<?xml version="1.0" encoding="UTF-8" standalone="no"?>
<!DOCTYPE svg PUBLIC "-//W3C//DTD SVG 1.1//EN" "http://www.w3.org/Graphics/SVG/1.1/DTD/svg11.dtd">
<svg xmlns="http://www.w3.org/2000/svg" xmlns:xl="http://www.w3.org/1999/xlink" xmlns:dc="http://purl.org/dc/elements/1.1/" version="1.1" viewBox="0 0 90 90" width="90" height="90">
  <defs/>
  <g id="Cell_1x1" fill-opacity="1" stroke="none" stroke-opacity="1" stroke-dasharray="none" fill="none">
    <title>Cell 1x1</title>
    <g id="Cell_1x1_Single_Cell">
      <title>Single Cell</title>
      <g id="Group_70">
        <title>route</title>
        <g id="Graphic_76">
          <path d="M 66.9375 55.5 L 66.9375 15 M 66.9375 15 L 78.75 25.5 M 66.9375 15 L 55.125 25.5" stroke="black" stroke-linecap="round" stroke-linejoin="round" stroke-width="4"/>
        </g>
        <g id="Graphic_75">
          <path d="M 66.9375 55.5 C 66.9375 61.299 61.648875 66 55.125 66 C 48.601125 66 43.3125 61.299 43.3125 55.5 L 43.3125 28.5" stroke="black" stroke-linecap="round" stroke-linejoin="round" stroke-width="4"/>
        </g>
        <g id="Graphic_74">
          <path d="M 43.3125 28.5 C 43.3125 22.701 38.023875 18 31.5 18 C 24.976125 18 19.6875 22.701 19.6875 28.5 L 19.6875 64.5" stroke="black" stroke-linecap="round" stroke-linejoin="round" stroke-width="4"/>
        </g>
        <g id="Graphic_73">
          <path d="M 19.6875 75 C 15.027469 75 11.25 71.64214 11.25 67.5 C 11.25 63.35786 15.027469 60 19.6875 60 C 24.34753 60 28.125 63.35786 28.125 67.5 C 28.125 71.64214 24.34753 75 19.6875 75 Z" fill="white"/>
          <path d="M 19.6875 75 C 15.027469 75 11.25 71.64214 11.25 67.5 C 11.25 63.35786 15.027469 60 19.6875 60 C 24.34753 60 28.125 63.35786 28.125 67.5 C 28.125 71.64214 24.34753 75 19.6875 75 Z" stroke="black" stroke-linecap="round" stroke-linejoin="round" stroke-width="4"/>
        </g>
        <g id="Graphic_72">
          <path d="M 32.34375 26.25 C 27.68372 26.25 23.90625 22.892138 23.90625 18.75 C 23.90625 14.607862 27.68372 11.25 32.34375 11.25 C 37.00378 11.25 40.78125 14.607862 40.78125 18.75 C 40.78125 22.892138 37.00378 26.25 32.34375 26.25 Z" fill="white"/>
          <path d="M 32.34375 26.25 C 27.68372 26.25 23.90625 22.892138 23.90625 18.75 C 23.90625 14.607862 27.68372 11.25 32.34375 11.25 C 37.00378 11.25 40.78125 14.607862 40.78125 18.75 C 40.78125 22.892138 37.00378 26.25 32.34375 26.25 Z" stroke="black" stroke-linecap="round" stroke-linejoin="round" stroke-width="4"/>
        </g>
        <g id="Graphic_71">
          <path d="M 56.25 75 C 51.58997 75 47.8125 71.64214 47.8125 67.5 C 47.8125 63.35786 51.58997 60 56.25 60 C 60.91003 60 64.6875 63.35786 64.6875 67.5 C 64.6875 71.64214 60.91003 75 56.25 75 Z" fill="white"/>
          <path d="M 56.25 75 C 51.58997 75 47.8125 71.64214 47.8125 67.5 C 47.8125 63.35786 51.58997 60 56.25 60 C 60.91003 60 64.6875 63.35786 64.6875 67.5 C 64.6875 71.64214 60.91003 75 56.25 75 Z" stroke="black" stroke-linecap="round" stroke-linejoin="round" stroke-width="4"/>
        </g>
      </g>
    </g>
  </g>
</svg>
