<?xml version="1.0" encoding="utf-8"?>
<svg width="128" height="128" viewBox="0 0 128 128" fill="none" xmlns="http://www.w3.org/2000/svg">
    <defs>
        <clipPath id="clip_path_1">
            <rect width="128" height="128" />
        </clipPath>
        <clipPath id="clip_path_2">
            <rect width="128" height="16" />
        </clipPath>
    </defs>
    <g clip-path="url(#clip_path_1)">
        <g transform="translate(12 10)">
            <g>
                <path d="M15.05 0L0 23.9017L8.05 23.9017L22.75 0L15.05 0Z" fill="#CCCCCC" transform="translate(10.15 80.098)" />
                <path d="M25.2 0L17.5 0L0 23.9017L10.15 23.9017L25.2 0Z" fill="#E6E6E6" transform="translate(0 80.098)" />
                <path d="M7.7 0L0 0L14.7 23.9017L22.75 23.9017L7.7 0Z" fill="#CCCCCC" transform="translate(72.1 80.098)" />
                <path d="M0 0L15.05 23.9017L25.2 23.9017L7.7 0L0 0Z" fill="#E6E6E6" transform="translate(79.8 80.098)" />
                <path d="M55.3 0L13.3 0L0 21.7123L68.6 21.7123L55.3 0Z" fill="#FFFFFF" transform="translate(18.199 82.288)" />
                <path d="M71.4 49.6281L0 49.6281C0 49.6281 0 6.20351 0 6.20351C0 5.10877 17.85 0 35.7 0C53.55 0 71.4 5.10877 71.4 6.20351C71.4 6.20351 71.4 49.6281 71.4 49.6281L71.4 49.6281Z" fill="#FF0000" transform="translate(16.799 0)" />
                <path d="M79.625 11.1298C79.625 17.8807 0 17.8807 0 11.1298C0 11.1298 0 0 0 0L79.625 0L79.625 11.1298C79.625 11.1298 79.625 11.1298 79.625 11.1298Z" fill="#999999" transform="translate(12.775 68.239)" />
                <path d="M56 13.6842C56 21.8947 0 21.8947 0 13.6842C0 13.6842 0 0 0 0L56 0L56 13.6842C56 13.6842 56 13.6842 56 13.6842Z" fill="#999999" transform="translate(24.499 73.347)" />
                <path d="M79.8 62.5825L0 62.5825C0 62.5825 0 7.84561 0 7.84561C0 6.38597 19.95 0 39.9 0C59.85 0 79.8 6.38597 79.8 7.84561C79.8 7.84561 79.8 62.5825 79.8 62.5825L79.8 62.5825Z" fill="#FF0000" transform="translate(12.514 5.656)" />
                <g transform="translate(16.799 14.414)">
                    <rect width="33.776" height="11.86" fill="#3E4347" fill-rule="evenodd" />
                    <rect width="33.603" height="11.767" fill="#3E4347" fill-rule="evenodd" transform="translate(37.797 0)" />
                </g>
                <rect width="31.5" height="38.635" fill="#FF4040" fill-rule="evenodd" transform="translate(36.75 29.604)" />
                <rect width="7.875" height="14.095" fill="#3E4347" fill-rule="evenodd" transform="translate(48.476 34.667)" />
                <rect width="31.5" height="11.86" fill="#DEAD26" fill-rule="evenodd" transform="translate(36.75 68.239)" />
                <rect width="3.5" height="8.575" fill="#3E4347" fill-rule="evenodd" transform="translate(48.476 75.856)" />
                <rect width="3.5" height="8.575" fill="#3E4347" fill-rule="evenodd" transform="translate(52.851 75.856)" />
                <rect width="83.475" height="5.109" fill="#DEAD26" fill-rule="evenodd" transform="translate(10.85 68.239)" />
                <path d="M0 2.73685C0 1.22533 1.17525 0 2.625 0C4.07476 0 5.25001 1.22533 5.25001 2.73685C5.25001 4.24837 4.07476 5.47369 2.625 5.47369C1.17525 5.47369 0 4.24837 0 2.73685Z" fill="#FFFFFF" fill-rule="evenodd" transform="translate(49.875 35.761)" />
                <path d="M0 2.73685C0 1.22533 1.17525 0 2.62501 0C4.07476 0 5.25001 1.22533 5.25001 2.73685C5.25001 4.24836 4.07476 5.47369 2.62501 5.47369C1.17525 5.47369 0 4.24836 0 2.73685Z" fill="#FFFFFF" fill-rule="evenodd" transform="translate(49.789 41.965)" />
                <path d="M20.65 8.57544L0 8.57544C0 8.57544 0 0.759337 0 0.759337C0 -0.253113 20.475 -0.253113 20.475 0.759337C20.65 1.97427 20.65 8.57544 20.65 8.57544C20.65 8.57544 20.65 8.57544 20.65 8.57544Z" fill="#FF4040" transform="translate(42.174 1.688)" />
                <path d="M0 1.82456C0 0.816886 0.783503 0 1.75 0C2.7165 0 3.50001 0.816886 3.50001 1.82456C3.50001 2.83224 2.7165 3.64913 1.75 3.64913C0.783503 3.64913 0 2.83224 0 1.82456Z" fill="#FF8080" fill-rule="evenodd" transform="translate(24.478 8.393)" />
                <path d="M0 1.82456C0 0.816886 0.783501 0 1.75 0C2.71651 0 3.50001 0.816886 3.50001 1.82456C3.50001 2.83224 2.71651 3.64913 1.75 3.64913C0.783501 3.64913 0 2.83224 0 1.82456Z" fill="#FF8080" fill-rule="evenodd" transform="translate(78.073 8.393)" />
                <g transform="translate(26.25 75.856)">
                    <rect width="1.05" height="8.575" fill="#3E4347" fill-rule="evenodd" />
                    <rect width="1.05" height="8.575" fill="#3E4347" fill-rule="evenodd" transform="translate(1.575 0)" />
                    <rect width="1.05" height="8.575" fill="#3E4347" fill-rule="evenodd" transform="translate(3.15 0)" />
                </g>
                <g transform="translate(75.6 75.856)">
                    <rect width="1.05" height="8.575" fill="#3E4347" fill-rule="evenodd" />
                    <rect width="1.05" height="8.575" fill="#3E4347" fill-rule="evenodd" transform="translate(1.575 0)" />
                    <rect width="1.05" height="8.575" fill="#3E4347" fill-rule="evenodd" transform="translate(3.152 0)" />
                </g>
                <rect width="4.9" height="3.649" fill="#3E4347" fill-rule="evenodd" transform="translate(50.181 78.639)" />
                <rect width="7.744" height="1.095" fill="#FF8080" fill-rule="evenodd" transform="translate(58.45 36.4)" />
                <rect width="7.744" height="1.095" fill="#FF8080" fill-rule="evenodd" transform="translate(58.45 40.14)" />
                <rect width="7.744" height="1.095" fill="#FF8080" fill-rule="evenodd" transform="translate(58.45 43.881)" />
                <rect width="7.744" height="1.095" fill="#FF8080" fill-rule="evenodd" transform="translate(58.45 47.621)" />
                <rect width="7.744" height="1.095" fill="#FF8080" fill-rule="evenodd" transform="translate(73.829 40.14)" />
                <rect width="7.744" height="1.095" fill="#FF8080" fill-rule="evenodd" transform="translate(24.478 40.14)" />
                <g transform="translate(64.75 1.688)">
                    <path d="M9.97432 0C11.4241 0 12.5993 1.22533 12.5993 2.73684C12.5993 2.73684 12.5993 2.73684 12.5993 2.73684C12.5993 4.24836 11.4241 5.47368 9.97432 5.47368C9.97432 5.47368 2.625 5.47368 2.625 5.47368C1.17525 5.47368 0 4.24836 0 2.73684C0 2.73684 0 2.73684 0 2.73684C0 1.22533 1.17525 0 2.625 0C2.625 0 9.97432 0 9.97432 0Z" fill="#3E4347" />
                    <path d="M9.97432 0C11.4241 0 12.5993 1.22533 12.5993 2.73684C12.5993 2.73684 12.5993 2.73684 12.5993 2.73684C12.5993 4.24836 11.4241 5.47368 9.97432 5.47368C9.97432 5.47368 2.625 5.47368 2.625 5.47368C1.17525 5.47368 0 4.24836 0 2.73684C0 2.73684 0 2.73684 0 2.73684C0 1.22533 1.17525 0 2.625 0C2.625 0 9.97432 0 9.97432 0Z" fill="none" stroke-width="0" stroke="#B1001C" stroke-linejoin="round" />
                </g>
                <g transform="translate(27.649 1.688)">
                    <path d="M9.97432 0C11.4241 0 12.5993 1.22533 12.5993 2.73684C12.5993 2.73684 12.5993 2.73684 12.5993 2.73684C12.5993 4.24836 11.4241 5.47368 9.97432 5.47368C9.97432 5.47368 2.625 5.47368 2.625 5.47368C1.17525 5.47368 0 4.24836 0 2.73684C0 2.73684 0 2.73684 0 2.73684C0 1.22533 1.17525 0 2.625 0C2.625 0 9.97432 0 9.97432 0Z" fill="#3E4347" />
                    <path d="M9.97432 0C11.4241 0 12.5993 1.22533 12.5993 2.73684C12.5993 2.73684 12.5993 2.73684 12.5993 2.73684C12.5993 4.24836 11.4241 5.47368 9.97432 5.47368C9.97432 5.47368 2.625 5.47368 2.625 5.47368C1.17525 5.47368 0 4.24836 0 2.73684C0 2.73684 0 2.73684 0 2.73684C0 1.22533 1.17525 0 2.625 0C2.625 0 9.97432 0 9.97432 0Z" fill="none" stroke-width="0" stroke="#B1001C" stroke-linejoin="round" />
                </g>
                <rect width="5.25" height="11.86" fill="#DEAD26" fill-rule="evenodd" transform="translate(75.076 61.488)" />
                <path d="M0 2.73685C0 1.22533 1.17525 0 2.62501 0C4.07475 0 5.25001 1.22533 5.25001 2.73685C5.25001 4.24837 4.07475 5.4737 2.62501 5.4737C1.17525 5.4737 0 4.24837 0 2.73685Z" fill="#FFFFFF" fill-rule="evenodd" transform="translate(75.076 62.126)" />
                <rect width="5.25" height="11.86" fill="#DEAD26" fill-rule="evenodd" transform="translate(25.921 61.488)" />
                <path d="M0 2.73685C0 1.22533 1.17525 0 2.625 0C4.07475 0 5.25001 1.22533 5.25001 2.73685C5.25001 4.24837 4.07475 5.4737 2.625 5.4737C1.17525 5.4737 0 4.24837 0 2.73685Z" fill="#FFFFFF" fill-rule="evenodd" transform="translate(25.921 62.126)" />
                <g transform="translate(15.706 41.712)">
                    <rect width="1.094" height="21.53" fill="#FFFFFF" fill-rule="evenodd" transform="translate(0 13.481)" />
                    <rect width="1.094" height="21.695" fill="#FFFFFF" fill-rule="evenodd" transform="translate(1.75 14.418)" />
                    <path d="M0 13.5492L16.0481 0L16.7226 0.868491L0.674553 14.4176L0 13.5492Z" fill="#FFFFFF" />
                    <path d="M0 13.5492L16.0481 0L16.7226 0.868491L0.674553 14.4176L0 13.5492Z" fill="#FFFFFF" transform="translate(1.75 0.889)" />
                </g>
                <g transform="translate(70.822 41.712)">
                    <rect width="1.094" height="21.53" fill="#FFFFFF" fill-rule="evenodd" transform="translate(17.379 13.481)" />
                    <rect width="1.094" height="21.695" fill="#FFFFFF" fill-rule="evenodd" transform="translate(15.629 14.418)" />
                    <path d="M16.7226 13.5492L0.674555 0L0 0.868491L16.0481 14.4176L16.7226 13.5492Z" fill="#FFFFFF" transform="translate(1.75 0)" />
                    <path d="M16.7226 13.5492L0.674555 0L0 0.868491L16.0481 14.4176L16.7226 13.5492Z" fill="#FFFFFF" transform="translate(0 0.889)" />
                </g>
            </g>
        </g>
        <path d="M0.720703 3.17725L2.94434 3.17725Q3.52881 3.17725 3.95068 3.23657Q4.37256 3.2959 4.75708 3.52661Q5.1416 3.75732 5.42944 4.16162Q5.71729 4.56592 5.88208 5.09106Q6.04688 5.61621 6.04688 6.36328Q6.04688 7.78711 5.37012 8.70337Q4.69336 9.61963 3.04102 9.61963L0.720703 9.61963L0.720703 3.17725ZM1.57324 8.85498L2.95312 8.85498Q3.375 8.85498 3.70679 8.80225Q4.03857 8.74951 4.37915 8.5166Q4.71973 8.28369 4.94385 7.75195Q5.16797 7.22021 5.16797 6.3457Q5.16797 5.8623 5.08228 5.44263Q4.99658 5.02295 4.76587 4.67798Q4.53516 4.33301 4.23633 4.17261Q3.9375 4.01221 3.65405 3.97705Q3.37061 3.94189 2.92676 3.94189L1.57324 3.94189L1.57324 8.85498ZM12.6475 7.57617Q12.3662 8.66162 11.6653 9.19556Q10.9644 9.72949 9.98438 9.72949Q8.40234 9.72949 7.67944 8.73853Q6.95654 7.74756 6.95654 6.35449Q6.95654 4.81201 7.80688 3.9397Q8.65723 3.06738 9.99316 3.06738Q10.9336 3.06738 11.6016 3.54639Q12.2695 4.02539 12.5376 4.94824L11.7026 5.146Q11.4917 4.47363 11.061 4.13525Q10.6304 3.79688 9.98438 3.79688Q8.92969 3.79688 8.38477 4.48901Q7.83984 5.18115 7.83984 6.3457Q7.83984 7.69043 8.41333 8.34521Q8.98682 9 9.90967 9Q10.6655 9 11.1379 8.59131Q11.6104 8.18262 11.7993 7.36084L12.6475 7.57617ZM19.147 7.57617Q18.8657 8.66162 18.1648 9.19556Q17.4639 9.72949 16.4839 9.72949Q14.9019 9.72949 14.179 8.73853Q13.4561 7.74756 13.4561 6.35449Q13.4561 4.81201 14.3064 3.9397Q15.1567 3.06738 16.4927 3.06738Q17.4331 3.06738 18.1011 3.54639Q18.769 4.02539 19.0371 4.94824L18.2021 5.146Q17.9912 4.47363 17.5605 4.13525Q17.1299 3.79688 16.4839 3.79688Q15.4292 3.79688 14.8843 4.48901Q14.3394 5.18115 14.3394 6.3457Q14.3394 7.69043 14.9128 8.34521Q15.4863 9 16.4092 9Q17.165 9 17.6375 8.59131Q18.1099 8.18262 18.2988 7.36084L19.147 7.57617ZM22.6934 3.17725L25.1235 3.17725Q25.6992 3.17725 26.1145 3.23438Q26.5298 3.2915 26.8857 3.53101Q27.2417 3.77051 27.4241 4.1814Q27.6064 4.59229 27.6064 5.04053Q27.6064 5.93262 27.033 6.47095Q26.4595 7.00928 25.1938 7.00928L23.5459 7.00928L23.5459 9.61963L22.6934 9.61963L22.6934 3.17725ZM23.5459 6.24463L25.2026 6.24463Q26.7231 6.24463 26.7231 5.06689Q26.7231 4.68018 26.5254 4.38354Q26.3276 4.08691 26.0398 4.0144Q25.752 3.94189 25.1851 3.94189L23.5459 3.94189L23.5459 6.24463ZM34.0137 9.61963L33.0513 9.61963L32.2954 7.65967L29.606 7.65967L28.894 9.61963L27.9932 9.61963L30.4673 3.17725L31.3857 3.17725L34.0137 9.61963ZM32.0361 6.98291Q31.2451 4.89111 31.144 4.60767Q31.043 4.32422 30.9199 3.84961L30.8979 3.84961Q30.7749 4.5 30.5684 5.05371L29.8477 6.98291L32.0361 6.98291ZM39.7837 9.61963L38.9092 9.61963L35.543 4.56152L35.5254 4.56152L35.5254 9.61963L34.7168 9.61963L34.7168 3.17725L35.5869 3.17725L38.9531 8.23535L38.9707 8.23535L38.9707 3.17725L39.7837 3.17725L39.7837 9.61963ZM46.0283 9.61963L41.2163 9.61963L41.2163 3.17725L45.8789 3.17725L45.8789 3.94189L42.0688 3.94189L42.0688 5.91064L45.6328 5.91064L45.6328 6.67529L42.0688 6.67529L42.0688 8.85498L46.0283 8.85498L46.0283 9.61963ZM51.2139 9.61963L47.1841 9.61963L47.1841 3.17725L48.0366 3.17725L48.0366 8.85498L51.2139 8.85498L51.2139 9.61963ZM60.1611 7.57617Q59.8799 8.66162 59.179 9.19556Q58.478 9.72949 57.498 9.72949Q55.916 9.72949 55.1931 8.73853Q54.4702 7.74756 54.4702 6.35449Q54.4702 4.81201 55.3206 3.9397Q56.1709 3.06738 57.5068 3.06738Q58.4473 3.06738 59.1152 3.54639Q59.7832 4.02539 60.0513 4.94824L59.2163 5.146Q59.0054 4.47363 58.5747 4.13525Q58.144 3.79688 57.498 3.79688Q56.4434 3.79688 55.8984 4.48901Q55.3535 5.18115 55.3535 6.3457Q55.3535 7.69043 55.927 8.34521Q56.5005 9 57.4233 9Q58.1792 9 58.6516 8.59131Q59.124 8.18262 59.313 7.36084L60.1611 7.57617ZM64.0239 3.06738Q65.3774 3.06738 66.2388 3.98584Q67.1001 4.9043 67.1001 6.40723Q67.1001 7.90576 66.2344 8.81763Q65.3687 9.72949 64.0239 9.72949Q62.6309 9.72949 61.7827 8.78467Q60.9346 7.83984 60.9346 6.47754Q60.9346 4.89111 61.7937 3.97925Q62.6528 3.06738 64.0239 3.06738ZM64.0151 9Q64.9951 9 65.6038 8.31445Q66.2124 7.62891 66.2168 6.40723Q66.2168 5.15039 65.595 4.47363Q64.9731 3.79688 64.0327 3.79688Q63.0659 3.79688 62.4419 4.46045Q61.8179 5.12402 61.8179 6.49512Q61.8179 7.61572 62.4287 8.30786Q63.0396 9 64.0151 9ZM73.292 9.61963L72.4175 9.61963L69.0513 4.56152L69.0337 4.56152L69.0337 9.61963L68.2251 9.61963L68.2251 3.17725L69.0952 3.17725L72.4614 8.23535L72.479 8.23535L72.479 3.17725L73.292 3.17725L73.292 9.61963ZM79.3125 3.94189L77.1812 3.94189L77.1812 9.61963L76.3242 9.61963L76.3242 3.94189L74.2104 3.94189L74.2104 3.17725L79.3125 3.17725L79.3125 3.94189ZM85.9087 9.61963L84.8364 9.61963Q83.874 8.09912 83.6411 7.75195Q83.4082 7.40479 83.1511 7.15649Q82.894 6.9082 82.6677 6.84229Q82.4414 6.77637 82.0679 6.77637L81.0835 6.77637L81.0835 9.61963L80.231 9.61963L80.231 3.17725L83.083 3.17725Q83.6675 3.17725 84.063 3.25195Q84.4585 3.32666 84.7573 3.56616Q85.0562 3.80566 85.2166 4.17041Q85.377 4.53516 85.377 4.93945Q85.377 5.66895 84.9155 6.11279Q84.4541 6.55664 83.5708 6.67529L83.5708 6.69287Q84.2168 6.97852 84.7837 7.86621L85.9087 9.61963ZM81.0835 6.01172L82.9116 6.01172Q83.4653 6.01172 83.7883 5.91724Q84.1113 5.82275 84.3047 5.55029Q84.498 5.27783 84.498 4.93945Q84.498 4.5 84.1772 4.19238Q83.8564 3.88477 83.1182 3.88477L81.0835 3.88477L81.0835 6.01172ZM89.521 3.06738Q90.8745 3.06738 91.7358 3.98584Q92.5972 4.9043 92.5972 6.40723Q92.5972 7.90576 91.7314 8.81763Q90.8657 9.72949 89.521 9.72949Q88.1279 9.72949 87.2798 8.78467Q86.4316 7.83984 86.4316 6.47754Q86.4316 4.89111 87.2908 3.97925Q88.1499 3.06738 89.521 3.06738ZM89.5122 9Q90.4922 9 91.1008 8.31445Q91.7095 7.62891 91.7139 6.40723Q91.7139 5.15039 91.092 4.47363Q90.4702 3.79688 89.5298 3.79688Q88.563 3.79688 87.939 4.46045Q87.3149 5.12402 87.3149 6.49512Q87.3149 7.61572 87.9258 8.30786Q88.5366 9 89.5122 9ZM97.7168 9.61963L93.687 9.61963L93.687 3.17725L94.5396 3.17725L94.5396 8.85498L97.7168 8.85498L97.7168 9.61963ZM102.722 9.61963L98.6924 9.61963L98.6924 3.17725L99.5449 3.17725L99.5449 8.85498L102.722 8.85498L102.722 9.61963ZM108.545 9.61963L103.733 9.61963L103.733 3.17725L108.396 3.17725L108.396 3.94189L104.585 3.94189L104.585 5.91064L108.149 5.91064L108.149 6.67529L104.585 6.67529L104.585 8.85498L108.545 8.85498L108.545 9.61963ZM115.422 9.61963L114.35 9.61963Q113.388 8.09912 113.155 7.75195Q112.922 7.40479 112.665 7.15649Q112.408 6.9082 112.181 6.84229Q111.955 6.77637 111.582 6.77637L110.597 6.77637L110.597 9.61963L109.745 9.61963L109.745 3.17725L112.597 3.17725Q113.181 3.17725 113.577 3.25195Q113.972 3.32666 114.271 3.56616Q114.57 3.80566 114.73 4.17041Q114.891 4.53516 114.891 4.93945Q114.891 5.66895 114.429 6.11279Q113.968 6.55664 113.084 6.67529L113.084 6.69287Q113.73 6.97852 114.297 7.86621L115.422 9.61963ZM110.597 6.01172L112.425 6.01172Q112.979 6.01172 113.302 5.91724Q113.625 5.82275 113.818 5.55029Q114.012 5.27783 114.012 4.93945Q114.012 4.5 113.691 4.19238Q113.37 3.88477 112.632 3.88477L110.597 3.88477L110.597 6.01172Z" transform="translate(0 115.971)" fill="#000000" clip-path="url(#clip_path_2)" />
    </g>
</svg>