<?xml version="1.0" encoding="utf-8"?>
<svg width="128" height="128" viewBox="0 0 128 128" fill="none" xmlns="http://www.w3.org/2000/svg">
    <defs>
        <clipPath id="clip_path_1">
            <rect width="128" height="128" />
        </clipPath>
    </defs>
    <g clip-path="url(#clip_path_1)">
        <g transform="translate(5 1)">
            <g>
                <path d="M16.9133 0L0 26.6596L9.04667 26.6596L25.5667 0L16.9133 0Z" fill="#CCCCCC" transform="translate(11.407 89.34)" />
                <path d="M28.32 0L19.6667 0L0 26.6596L11.4067 26.6596L28.32 0Z" fill="#E6E6E6" transform="translate(0 89.34)" />
                <path d="M8.65333 0L0 0L16.52 26.6596L25.5667 26.6596L8.65333 0Z" fill="#CCCCCC" transform="translate(81.027 89.34)" />
                <path d="M0 0L16.9133 26.6596L28.32 26.6596L8.65334 0L0 0Z" fill="#E6E6E6" transform="translate(89.68 89.34)" />
                <path d="M62.1467 0L14.9467 0L0 24.2175L77.0933 24.2175L62.1467 0Z" fill="#FFFFFF" transform="translate(20.453 91.782)" />
                <path d="M80.24 55.3544L0 55.3544C0 55.3544 0 6.9193 0 6.9193C0 5.69825 20.06 0 40.12 0C60.18 0 80.24 5.69825 80.24 6.9193C80.24 6.9193 80.24 55.3544 80.24 55.3544L80.24 55.3544Z" fill="#FF0000" transform="translate(18.879 0)" />
                <path d="M89.4833 12.414C89.4833 19.9439 0 19.9439 0 12.414C0 12.414 0 0 0 0L89.4833 0L89.4833 12.414C89.4833 12.414 89.4833 12.414 89.4833 12.414Z" fill="#999999" transform="translate(14.357 76.112)" />
                <path d="M62.9333 15.2632C62.9333 24.4211 0 24.4211 0 15.2632C0 15.2632 0 0 0 0L62.9333 0L62.9333 15.2632C62.9333 15.2632 62.9333 15.2632 62.9333 15.2632Z" fill="#999999" transform="translate(27.533 81.811)" />
                <path d="M89.68 69.8035L0 69.8035C0 69.8035 0 8.75088 0 8.75088C0 7.12281 22.42 0 44.84 0C67.26 0 89.68 7.12281 89.68 8.75088C89.68 8.75088 89.68 69.8035 89.68 69.8035L89.68 69.8035Z" fill="#FF0000" transform="translate(14.063 6.309)" />
                <g transform="translate(18.879 16.077)">
                    <rect width="37.957" height="13.228" fill="#3E4347" fill-rule="evenodd" />
                    <rect width="37.763" height="13.125" fill="#3E4347" fill-rule="evenodd" transform="translate(42.477 0)" />
                </g>
                <rect width="35.4" height="43.093" fill="#FF4040" fill-rule="evenodd" transform="translate(41.3 33.019)" />
                <rect width="8.85" height="15.721" fill="#3E4347" fill-rule="evenodd" transform="translate(54.478 38.667)" />
                <rect width="35.4" height="13.228" fill="#DEAD26" fill-rule="evenodd" transform="translate(41.3 76.112)" />
                <rect width="3.933" height="9.565" fill="#3E4347" fill-rule="evenodd" transform="translate(54.478 84.609)" />
                <rect width="3.933" height="9.565" fill="#3E4347" fill-rule="evenodd" transform="translate(59.394 84.609)" />
                <rect width="93.81" height="5.698" fill="#DEAD26" fill-rule="evenodd" transform="translate(12.193 76.112)" />
                <path d="M0 3.05264C0 1.36671 1.32076 0 2.95 0C4.57925 0 5.90001 1.36671 5.90001 3.05264C5.90001 4.73856 4.57925 6.10528 2.95 6.10528C1.32076 6.10528 0 4.73856 0 3.05264Z" fill="#FFFFFF" fill-rule="evenodd" transform="translate(56.05 39.888)" />
                <path d="M0 3.05264C0 1.36671 1.32076 0 2.95001 0C4.57925 0 5.90001 1.36671 5.90001 3.05264C5.90001 4.73856 4.57925 6.10527 2.95001 6.10527C1.32076 6.10527 0 4.73856 0 3.05264Z" fill="#FFFFFF" fill-rule="evenodd" transform="translate(55.953 46.807)" />
                <path d="M23.2067 9.56491L0 9.56491C0 9.56491 0 0.846952 0 0.846952C0 -0.282318 23.01 -0.282318 23.01 0.846952C23.2067 2.20207 23.2067 9.56491 23.2067 9.56491C23.2067 9.56491 23.2067 9.56491 23.2067 9.56491Z" fill="#FF4040" transform="translate(47.396 1.882)" />
                <path d="M0 2.03509C0 0.911141 0.880508 0 1.96667 0C3.05283 0 3.93334 0.911141 3.93334 2.03509C3.93334 3.15904 3.05283 4.07018 1.96667 4.07018C0.880508 4.07018 0 3.15904 0 2.03509Z" fill="#FF8080" fill-rule="evenodd" transform="translate(27.509 9.361)" />
                <path d="M0 2.03509C0 0.911141 0.880508 0 1.96667 0C3.05284 0 3.93335 0.911141 3.93335 2.03509C3.93335 3.15904 3.05284 4.07018 1.96667 4.07018C0.880508 4.07018 0 3.15904 0 2.03509Z" fill="#FF8080" fill-rule="evenodd" transform="translate(87.739 9.361)" />
                <g transform="translate(29.5 84.609)">
                    <rect width="1.18" height="9.565" fill="#3E4347" fill-rule="evenodd" />
                    <rect width="1.18" height="9.565" fill="#3E4347" fill-rule="evenodd" transform="translate(1.77 0)" />
                    <rect width="1.18" height="9.565" fill="#3E4347" fill-rule="evenodd" transform="translate(3.54 0)" />
                </g>
                <g transform="translate(84.96 84.609)">
                    <rect width="1.18" height="9.565" fill="#3E4347" fill-rule="evenodd" />
                    <rect width="1.18" height="9.565" fill="#3E4347" fill-rule="evenodd" transform="translate(1.77 0)" />
                    <rect width="1.18" height="9.565" fill="#3E4347" fill-rule="evenodd" transform="translate(3.542 0)" />
                </g>
                <rect width="5.507" height="4.07" fill="#3E4347" fill-rule="evenodd" transform="translate(56.393 87.712)" />
                <rect width="8.703" height="1.221" fill="#FF8080" fill-rule="evenodd" transform="translate(65.687 40.6)" />
                <rect width="8.703" height="1.221" fill="#FF8080" fill-rule="evenodd" transform="translate(65.687 44.772)" />
                <rect width="8.703" height="1.221" fill="#FF8080" fill-rule="evenodd" transform="translate(65.687 48.944)" />
                <rect width="8.703" height="1.221" fill="#FF8080" fill-rule="evenodd" transform="translate(65.687 53.116)" />
                <rect width="8.703" height="1.221" fill="#FF8080" fill-rule="evenodd" transform="translate(82.97 44.772)" />
                <rect width="8.703" height="1.221" fill="#FF8080" fill-rule="evenodd" transform="translate(27.509 44.772)" />
                <g transform="translate(72.767 1.882)">
                    <path d="M11.2092 0C12.8385 0 14.1592 1.36671 14.1592 3.05263C14.1592 3.05263 14.1592 3.05263 14.1592 3.05263C14.1592 4.73855 12.8385 6.10526 11.2092 6.10526C11.2092 6.10526 2.95 6.10526 2.95 6.10526C1.32076 6.10526 0 4.73855 0 3.05263C0 3.05263 0 3.05263 0 3.05263C0 1.36671 1.32076 0 2.95 0C2.95 0 11.2092 0 11.2092 0Z" fill="#3E4347" />
                    <path d="M11.2092 0C12.8385 0 14.1592 1.36671 14.1592 3.05263C14.1592 3.05263 14.1592 3.05263 14.1592 3.05263C14.1592 4.73855 12.8385 6.10526 11.2092 6.10526C11.2092 6.10526 2.95 6.10526 2.95 6.10526C1.32076 6.10526 0 4.73855 0 3.05263C0 3.05263 0 3.05263 0 3.05263C0 1.36671 1.32076 0 2.95 0C2.95 0 11.2092 0 11.2092 0Z" fill="none" stroke-width="0" stroke="#B1001C" stroke-linejoin="round" />
                </g>
                <g transform="translate(31.073 1.882)">
                    <path d="M11.2092 0C12.8385 0 14.1592 1.36671 14.1592 3.05263C14.1592 3.05263 14.1592 3.05263 14.1592 3.05263C14.1592 4.73855 12.8385 6.10526 11.2092 6.10526C11.2092 6.10526 2.95 6.10526 2.95 6.10526C1.32076 6.10526 0 4.73855 0 3.05263C0 3.05263 0 3.05263 0 3.05263C0 1.36671 1.32076 0 2.95 0C2.95 0 11.2092 0 11.2092 0Z" fill="#3E4347" />
                    <path d="M11.2092 0C12.8385 0 14.1592 1.36671 14.1592 3.05263C14.1592 3.05263 14.1592 3.05263 14.1592 3.05263C14.1592 4.73855 12.8385 6.10526 11.2092 6.10526C11.2092 6.10526 2.95 6.10526 2.95 6.10526C1.32076 6.10526 0 4.73855 0 3.05263C0 3.05263 0 3.05263 0 3.05263C0 1.36671 1.32076 0 2.95 0C2.95 0 11.2092 0 11.2092 0Z" fill="none" stroke-width="0" stroke="#B1001C" stroke-linejoin="round" />
                </g>
                <rect width="5.9" height="13.228" fill="#DEAD26" fill-rule="evenodd" transform="translate(84.371 68.583)" />
                <path d="M0 3.05264C0 1.36671 1.32076 0 2.95 0C4.57924 0 5.9 1.36671 5.9 3.05264C5.9 4.73856 4.57924 6.10527 2.95 6.10527C1.32076 6.10527 0 4.73856 0 3.05264Z" fill="#FFFFFF" fill-rule="evenodd" transform="translate(84.371 69.295)" />
                <rect width="5.9" height="13.228" fill="#DEAD26" fill-rule="evenodd" transform="translate(29.13 68.583)" />
                <path d="M0 3.05264C0 1.36671 1.32076 0 2.95001 0C4.57925 0 5.90001 1.36671 5.90001 3.05264C5.90001 4.73856 4.57925 6.10527 2.95001 6.10527C1.32076 6.10527 0 4.73856 0 3.05264Z" fill="#FFFFFF" fill-rule="evenodd" transform="translate(29.13 69.295)" />
                <g transform="translate(17.65 46.525)">
                    <rect width="1.229" height="24.014" fill="#FFFFFF" fill-rule="evenodd" transform="translate(0 15.036)" />
                    <rect width="1.229" height="24.199" fill="#FFFFFF" fill-rule="evenodd" transform="translate(1.967 16.081)" />
                    <path d="M0 15.1125L18.035 0L18.793 0.968701L0.758069 16.0812L0 15.1125Z" fill="#FFFFFF" />
                    <path d="M0 15.1125L18.035 0L18.793 0.968701L0.758069 16.0812L0 15.1125Z" fill="#FFFFFF" transform="translate(1.967 0.992)" />
                </g>
                <g transform="translate(79.59 46.525)">
                    <rect width="1.229" height="24.014" fill="#FFFFFF" fill-rule="evenodd" transform="translate(19.531 15.036)" />
                    <rect width="1.229" height="24.199" fill="#FFFFFF" fill-rule="evenodd" transform="translate(17.564 16.081)" />
                    <path d="M18.793 15.1125L0.758071 0L0 0.968701L18.035 16.0812L18.793 15.1125Z" fill="#FFFFFF" transform="translate(1.967 0)" />
                    <path d="M18.793 15.1125L0.758071 0L0 0.968701L18.035 16.0812L18.793 15.1125Z" fill="#FFFFFF" transform="translate(0 0.992)" />
                </g>
            </g>
        </g>
        <path d="M0.650391 1.70508L3.02783 1.70508Q3.83203 1.70508 4.25391 1.82812Q4.8208 1.99512 5.2251 2.42139Q5.62939 2.84766 5.84033 3.46509Q6.05127 4.08252 6.05127 4.98779Q6.05127 5.7832 5.85352 6.35889Q5.61182 7.06201 5.16357 7.49707Q4.8252 7.82666 4.24951 8.01123Q3.81885 8.14746 3.09814 8.14746L0.650391 8.14746L0.650391 1.70508ZM1.95117 2.79492L1.95117 7.06201L2.92236 7.06201Q3.46729 7.06201 3.70898 7.00049Q4.02539 6.92139 4.23413 6.73242Q4.44287 6.54346 4.57471 6.1106Q4.70654 5.67773 4.70654 4.93066Q4.70654 4.18359 4.57471 3.78369Q4.44287 3.38379 4.20557 3.15967Q3.96826 2.93555 3.60352 2.85645Q3.33105 2.79492 2.53564 2.79492L1.95117 2.79492ZM11.2764 5.77881L12.5376 6.17871Q12.2476 7.2334 11.573 7.74536Q10.8984 8.25732 9.86133 8.25732Q8.57812 8.25732 7.75195 7.38062Q6.92578 6.50391 6.92578 4.9834Q6.92578 3.375 7.75635 2.48511Q8.58691 1.59521 9.94043 1.59521Q11.1226 1.59521 11.8608 2.29395Q12.3003 2.70703 12.52 3.48047L11.2324 3.78809Q11.1182 3.28711 10.7556 2.99707Q10.3931 2.70703 9.87451 2.70703Q9.1582 2.70703 8.71216 3.22119Q8.26611 3.73535 8.26611 4.88672Q8.26611 6.1084 8.70557 6.62695Q9.14502 7.14551 9.84814 7.14551Q10.3667 7.14551 10.7402 6.81592Q11.1138 6.48633 11.2764 5.77881ZM17.7759 5.77881L19.0371 6.17871Q18.7471 7.2334 18.0725 7.74536Q17.3979 8.25732 16.3608 8.25732Q15.0776 8.25732 14.2515 7.38062Q13.4253 6.50391 13.4253 4.9834Q13.4253 3.375 14.2559 2.48511Q15.0864 1.59521 16.4399 1.59521Q17.6221 1.59521 18.3604 2.29395Q18.7998 2.70703 19.0195 3.48047L17.7319 3.78809Q17.6177 3.28711 17.2551 2.99707Q16.8926 2.70703 16.374 2.70703Q15.6577 2.70703 15.2117 3.22119Q14.7656 3.73535 14.7656 4.88672Q14.7656 6.1084 15.2051 6.62695Q15.6445 7.14551 16.3477 7.14551Q16.8662 7.14551 17.2397 6.81592Q17.6133 6.48633 17.7759 5.77881ZM22.6538 8.14746L22.6538 1.70508L24.7412 1.70508Q25.9277 1.70508 26.2881 1.80176Q26.8418 1.94678 27.2153 2.43237Q27.5889 2.91797 27.5889 3.68701Q27.5889 4.28027 27.3735 4.68457Q27.1582 5.08887 26.8264 5.31958Q26.4946 5.55029 26.1519 5.625Q25.686 5.71729 24.8027 5.71729L23.9546 5.71729L23.9546 8.14746L22.6538 8.14746ZM23.9546 2.79492L23.9546 4.62305L24.6665 4.62305Q25.4355 4.62305 25.6948 4.52197Q25.9541 4.4209 26.1013 4.20557Q26.2485 3.99023 26.2485 3.70459Q26.2485 3.35303 26.042 3.12451Q25.8354 2.896 25.519 2.83887Q25.2861 2.79492 24.583 2.79492L23.9546 2.79492ZM33.7983 8.14746L32.3833 8.14746L31.8208 6.68408L29.2456 6.68408L28.7139 8.14746L27.334 8.14746L29.8433 1.70508L31.2188 1.70508L33.7983 8.14746ZM31.4033 5.59863L30.5156 3.20801L29.6455 5.59863L31.4033 5.59863ZM34.5015 8.14746L34.5015 1.70508L35.7671 1.70508L38.4038 6.00732L38.4038 1.70508L39.6123 1.70508L39.6123 8.14746L38.3071 8.14746L35.71 3.94629L35.71 8.14746L34.5015 8.14746ZM40.9878 8.14746L40.9878 1.70508L45.7646 1.70508L45.7646 2.79492L42.2886 2.79492L42.2886 4.22314L45.5229 4.22314L45.5229 5.30859L42.2886 5.30859L42.2886 7.06201L45.8877 7.06201L45.8877 8.14746L40.9878 8.14746ZM47.0259 8.14746L47.0259 1.75781L48.3267 1.75781L48.3267 7.06201L51.561 7.06201L51.561 8.14746L47.0259 8.14746ZM58.9482 5.77881L60.2095 6.17871Q59.9194 7.2334 59.2449 7.74536Q58.5703 8.25732 57.5332 8.25732Q56.25 8.25732 55.4238 7.38062Q54.5977 6.50391 54.5977 4.9834Q54.5977 3.375 55.4282 2.48511Q56.2588 1.59521 57.6123 1.59521Q58.7944 1.59521 59.5327 2.29395Q59.9722 2.70703 60.1919 3.48047L58.9043 3.78809Q58.79 3.28711 58.4275 2.99707Q58.0649 2.70703 57.5464 2.70703Q56.8301 2.70703 56.384 3.22119Q55.938 3.73535 55.938 4.88672Q55.938 6.1084 56.3774 6.62695Q56.8169 7.14551 57.52 7.14551Q58.0386 7.14551 58.4121 6.81592Q58.7856 6.48633 58.9482 5.77881ZM61.062 4.96582Q61.062 3.98145 61.3564 3.31348Q61.5762 2.82129 61.9563 2.43018Q62.3364 2.03906 62.7891 1.8501Q63.3911 1.59521 64.1777 1.59521Q65.6016 1.59521 66.4563 2.47852Q67.311 3.36182 67.311 4.93506Q67.311 6.49512 66.4629 7.37622Q65.6147 8.25732 64.1953 8.25732Q62.7583 8.25732 61.9102 7.38062Q61.062 6.50391 61.062 4.96582ZM62.4023 4.92188Q62.4023 6.01611 62.9077 6.58081Q63.4131 7.14551 64.1909 7.14551Q64.9688 7.14551 65.4675 6.58521Q65.9663 6.0249 65.9663 4.9043Q65.9663 3.79688 65.4807 3.25195Q64.9951 2.70703 64.1909 2.70703Q63.3867 2.70703 62.8945 3.25854Q62.4023 3.81006 62.4023 4.92188ZM68.3394 8.14746L68.3394 1.70508L69.605 1.70508L72.2417 6.00732L72.2417 1.70508L73.4502 1.70508L73.4502 8.14746L72.145 8.14746L69.5479 3.94629L69.5479 8.14746L68.3394 8.14746ZM76.2759 8.14746L76.2759 2.79492L74.3643 2.79492L74.3643 1.70508L79.4839 1.70508L79.4839 2.79492L77.5767 2.79492L77.5767 8.14746L76.2759 8.14746ZM80.3276 8.14746L80.3276 1.70508L83.0654 1.70508Q84.0981 1.70508 84.5662 1.87866Q85.0342 2.05225 85.3154 2.49609Q85.5967 2.93994 85.5967 3.51123Q85.5967 4.23633 85.1704 4.70874Q84.7441 5.18115 83.896 5.3042Q84.3179 5.55029 84.5925 5.84473Q84.8672 6.13916 85.333 6.89062L86.1196 8.14746L84.564 8.14746L83.6235 6.74561Q83.1226 5.99414 82.938 5.79858Q82.7534 5.60303 82.5469 5.53052Q82.3403 5.45801 81.8921 5.45801L81.6284 5.45801L81.6284 8.14746L80.3276 8.14746ZM81.6284 4.42969L82.5908 4.42969Q83.5269 4.42969 83.7598 4.35059Q83.9927 4.27148 84.1245 4.07812Q84.2563 3.88477 84.2563 3.59473Q84.2563 3.26953 84.0828 3.06958Q83.9092 2.86963 83.5928 2.81689Q83.4346 2.79492 82.6436 2.79492L81.6284 2.79492L81.6284 4.42969ZM86.5591 4.96582Q86.5591 3.98145 86.8535 3.31348Q87.0732 2.82129 87.4534 2.43018Q87.8335 2.03906 88.2861 1.8501Q88.8882 1.59521 89.6748 1.59521Q91.0986 1.59521 91.9534 2.47852Q92.8081 3.36182 92.8081 4.93506Q92.8081 6.49512 91.96 7.37622Q91.1118 8.25732 89.6924 8.25732Q88.2554 8.25732 87.4072 7.38062Q86.5591 6.50391 86.5591 4.96582ZM87.8994 4.92188Q87.8994 6.01611 88.4048 6.58081Q88.9102 7.14551 89.688 7.14551Q90.4658 7.14551 90.9646 6.58521Q91.4634 6.0249 91.4634 4.9043Q91.4634 3.79688 90.9778 3.25195Q90.4922 2.70703 89.688 2.70703Q88.8838 2.70703 88.3916 3.25854Q87.8994 3.81006 87.8994 4.92188ZM93.8584 8.14746L93.8584 1.75781L95.1592 1.75781L95.1592 7.06201L98.3936 7.06201L98.3936 8.14746L93.8584 8.14746ZM99.356 8.14746L99.356 1.75781L100.657 1.75781L100.657 7.06201L103.891 7.06201L103.891 8.14746L99.356 8.14746ZM104.818 8.14746L104.818 1.70508L109.595 1.70508L109.595 2.79492L106.119 2.79492L106.119 4.22314L109.354 4.22314L109.354 5.30859L106.119 5.30859L106.119 7.06201L109.718 7.06201L109.718 8.14746L104.818 8.14746ZM110.826 8.14746L110.826 1.70508L113.563 1.70508Q114.596 1.70508 115.064 1.87866Q115.532 2.05225 115.813 2.49609Q116.095 2.93994 116.095 3.51123Q116.095 4.23633 115.668 4.70874Q115.242 5.18115 114.394 5.3042Q114.816 5.55029 115.091 5.84473Q115.365 6.13916 115.831 6.89062L116.618 8.14746L115.062 8.14746L114.122 6.74561Q113.621 5.99414 113.436 5.79858Q113.251 5.60303 113.045 5.53052Q112.838 5.45801 112.39 5.45801L112.126 5.45801L112.126 8.14746L110.826 8.14746ZM112.126 4.42969L113.089 4.42969Q114.025 4.42969 114.258 4.35059Q114.491 4.27148 114.623 4.07812Q114.754 3.88477 114.754 3.59473Q114.754 3.26953 114.581 3.06958Q114.407 2.86963 114.091 2.81689Q113.933 2.79492 113.142 2.79492L112.126 2.79492L112.126 4.42969Z" fill="#000000" transform="translate(5.5 118)" />
    </g>
</svg>