<?xml version="1.0" encoding="UTF-8" standalone="no"?>
<!DOCTYPE svg PUBLIC "-//W3C//DTD SVG 1.1//EN" "http://www.w3.org/Graphics/SVG/1.1/DTD/svg11.dtd">
<svg version="1.1" xmlns="http://www.w3.org/2000/svg" viewBox="28.5 29.5002 118.272 166.24999" width="118.272"
     height="166.24999">
    <defs/>
    <metadata>Produced by OmniGraffle 7.24.4\n2025-09-09 02:43:15 +0000</metadata>
    <g id="Canvas_1" fill-opacity="1" stroke-dasharray="none" stroke-opacity="1" stroke="none" fill="none">
        <title>Canvas 1</title>
        <g id="Canvas_1_Layer_1">
            <title>Layer 1</title>
            <g id="Group_68">
                <g id="Group_69">
                    <g id="Graphic_127">
                        <path d="M 56.8203 118.8402 L 39.907 145.4998 L 48.95367 145.4998 L 65.4737 118.8402 Z"
                              fill="#ccc"/>
                    </g>
                    <g id="Graphic_126">
                        <path d="M 56.82 118.8402 L 48.1667 118.8402 L 28.5 145.4998 L 39.9067 145.4998 Z"
                              fill="#e6e6e6"/>
                    </g>
                    <g id="Graphic_125">
                        <path d="M 118.18033 118.8402 L 109.527 118.8402 L 126.047 145.4998 L 135.0937 145.4998 Z"
                              fill="#ccc"/>
                    </g>
                    <g id="Graphic_124">
                        <path d="M 118.18 118.8402 L 135.0933 145.4998 L 146.5 145.4998 L 126.83334 118.8402 Z"
                              fill="#e6e6e6"/>
                    </g>
                    <g id="Graphic_123">
                        <path d="M 111.0997 121.2822 L 63.8997 121.2822 L 48.953 145.4997 L 126.0463 145.4997 Z"
                              fill="white"/>
                    </g>
                    <g id="Graphic_122">
                        <path d="M 127.619 84.8546 L 47.379 84.8546 L 47.379 36.4195 C 47.379 35.19845 67.439 29.5002 87.499 29.5002 C 107.559 29.5002 127.619 35.19845 127.619 36.4195 Z"
                              fill="red"/>
                    </g>
                    <g id="Graphic_121">
                        <path d="M 132.3403 118.0262 C 132.3403 125.5561 42.857 125.5561 42.857 118.0262 L 42.857 105.6122 L 132.3403 105.6122 Z"
                              fill="#999"/>
                    </g>
                    <g id="Graphic_120">
                        <path d="M 118.9663 126.5744 C 118.9663 135.7323 56.033 135.7323 56.033 126.5744 L 56.033 111.3112 L 118.9663 111.3112 Z"
                              fill="#999"/>
                    </g>
                    <g id="Graphic_119">
                        <path d="M 132.243 105.6127 L 42.563 105.6127 L 42.563 44.56008 C 42.563 42.93201 64.983 35.8092 87.403 35.8092 C 109.823 35.8092 132.243 42.93201 132.243 44.56008 Z"
                              fill="red"/>
                    </g>
                    <g id="Group_116">
                        <g id="Graphic_118">
                            <rect x="47.379" y="45.5772" width="37.957" height="13.228" fill="#3e4347"/>
                        </g>
                        <g id="Graphic_117">
                            <rect x="89.856" y="45.5772" width="37.763" height="13.125" fill="#3e4347"/>
                        </g>
                    </g>
                    <g id="Graphic_115">
                        <rect x="69.8" y="62.5192" width="35.4" height="43.093" fill="#ff4040"/>
                    </g>
                    <g id="Graphic_114">
                        <rect x="82.978" y="68.1672" width="8.85" height="15.721" fill="#3e4347"/>
                    </g>
                    <g id="Graphic_113">
                        <rect x="69.8" y="105.6122" width="35.4" height="13.228" fill="#dead26"/>
                    </g>
                    <g id="Graphic_112">
                        <rect x="82.978" y="114.1092" width="3.933" height="9.565" fill="#3e4347"/>
                    </g>
                    <g id="Graphic_111">
                        <rect x="87.894" y="114.1092" width="3.933" height="9.565" fill="#3e4347"/>
                    </g>
                    <g id="Graphic_110">
                        <rect x="40.693" y="105.6122" width="93.81" height="5.698" fill="#dead26"/>
                    </g>
                    <g id="Graphic_109">
                        <path d="M 84.55 72.44084 C 84.55 70.75491 85.87076 69.3882 87.5 69.3882 C 89.12925 69.3882 90.45001 70.75491 90.45001 72.44084 C 90.45001 74.12676 89.12925 75.49348 87.5 75.49348 C 85.87076 75.49348 84.55 74.12676 84.55 72.44084 Z"
                              fill="white"/>
                    </g>
                    <g id="Graphic_108">
                        <ellipse cx="87.40301" cy="79.35984" rx="2.95000660057781" ry="3.05263589331738" fill="white"/>
                    </g>
                    <g id="Graphic_107">
                        <path d="M 99.1027 40.94711 L 75.896 40.94711 L 75.896 32.229152 C 75.896 31.099882 98.906 31.099882 98.906 32.229152 C 99.1027 33.58427 99.1027 40.94711 99.1027 40.94711 Z"
                              fill="#ff4040"/>
                    </g>
                    <g id="Graphic_106">
                        <path d="M 56.009 40.89629 C 56.009 39.77234 56.88951 38.8612 57.97567 38.8612 C 59.06183 38.8612 59.94234 39.77234 59.94234 40.89629 C 59.94234 42.02024 59.06183 42.93138 57.97567 42.93138 C 56.88951 42.93138 56.009 42.02024 56.009 40.89629 Z"
                              fill="#ff8080"/>
                    </g>
                    <g id="Graphic_105">
                        <path d="M 116.239 40.89629 C 116.239 39.77234 117.11951 38.8612 118.20567 38.8612 C 119.29184 38.8612 120.17235 39.77234 120.17235 40.89629 C 120.17235 42.02024 119.29184 42.93138 118.20567 42.93138 C 117.11951 42.93138 116.239 42.02024 116.239 40.89629 Z"
                              fill="#ff8080"/>
                    </g>
                    <g id="Group_101">
                        <g id="Graphic_104">
                            <rect x="58" y="114.1092" width="1.18" height="9.565" fill="#3e4347"/>
                        </g>
                        <g id="Graphic_103">
                            <rect x="59.77" y="114.1092" width="1.18" height="9.565" fill="#3e4347"/>
                        </g>
                        <g id="Graphic_102">
                            <rect x="61.54" y="114.1092" width="1.18" height="9.565" fill="#3e4347"/>
                        </g>
                    </g>
                    <g id="Group_97">
                        <g id="Graphic_100">
                            <rect x="113.46" y="114.1092" width="1.18" height="9.565" fill="#3e4347"/>
                        </g>
                        <g id="Graphic_99">
                            <rect x="115.23" y="114.1092" width="1.18" height="9.565" fill="#3e4347"/>
                        </g>
                        <g id="Graphic_98">
                            <rect x="117.002" y="114.1092" width="1.18" height="9.565" fill="#3e4347"/>
                        </g>
                    </g>
                    <g id="Graphic_96">
                        <rect x="84.893" y="117.2122" width="5.507" height="4.07" fill="#3e4347"/>
                    </g>
                    <g id="Graphic_95">
                        <rect x="94.187" y="70.1002" width="8.703" height="1.221" fill="#ff8080"/>
                    </g>
                    <g id="Graphic_94">
                        <rect x="94.187" y="74.2722" width="8.703" height="1.221" fill="#ff8080"/>
                    </g>
                    <g id="Graphic_93">
                        <rect x="94.187" y="78.4442" width="8.703" height="1.221" fill="#ff8080"/>
                    </g>
                    <g id="Graphic_92">
                        <rect x="94.187" y="82.6162" width="8.703" height="1.221" fill="#ff8080"/>
                    </g>
                    <g id="Graphic_91">
                        <rect x="111.47" y="74.2722" width="8.703" height="1.221" fill="#ff8080"/>
                    </g>
                    <g id="Graphic_90">
                        <rect x="56.009" y="74.2722" width="8.703" height="1.221" fill="#ff8080"/>
                    </g>
                    <g id="Group_87">
                        <g id="Graphic_89">
                            <path d="M 112.4762 31.3822 C 114.1055 31.3822 115.4262 32.74891 115.4262 34.43483 C 115.4262 36.12075 114.1055 37.48746 112.4762 37.48746 L 104.217 37.48746 C 102.58776 37.48746 101.267 36.12075 101.267 34.43483 C 101.267 32.74891 102.58776 31.3822 104.217 31.3822 Z"
                                  fill="#3e4347"/>
                        </g>
                        <g id="Graphic_88">
                            <path d="M 112.4762 31.3822 C 114.1055 31.3822 115.4262 32.74891 115.4262 34.43483 C 115.4262 36.12075 114.1055 37.48746 112.4762 37.48746 L 104.217 37.48746 C 102.58776 37.48746 101.267 36.12075 101.267 34.43483 C 101.267 32.74891 102.58776 31.3822 104.217 31.3822 Z"
                                  stroke="#b1001c" stroke-linecap="butt" stroke-linejoin="round" stroke-width="0"/>
                        </g>
                    </g>
                    <g id="Group_84">
                        <g id="Graphic_86">
                            <path d="M 70.7822 31.3822 C 72.4115 31.3822 73.7322 32.74891 73.7322 34.43483 C 73.7322 36.12075 72.4115 37.48746 70.7822 37.48746 L 62.523 37.48746 C 60.89376 37.48746 59.573 36.12075 59.573 34.43483 C 59.573 32.74891 60.89376 31.3822 62.523 31.3822 Z"
                                  fill="#3e4347"/>
                        </g>
                        <g id="Graphic_85">
                            <path d="M 70.7822 31.3822 C 72.4115 31.3822 73.7322 32.74891 73.7322 34.43483 C 73.7322 36.12075 72.4115 37.48746 70.7822 37.48746 L 62.523 37.48746 C 60.89376 37.48746 59.573 36.12075 59.573 34.43483 C 59.573 32.74891 60.89376 31.3822 62.523 31.3822 Z"
                                  stroke="#b1001c" stroke-linecap="butt" stroke-linejoin="round" stroke-width="0"/>
                        </g>
                    </g>
                    <g id="Graphic_83">
                        <rect x="112.871" y="98.0832" width="5.9" height="13.228" fill="#dead26"/>
                    </g>
                    <g id="Graphic_82">
                        <ellipse cx="115.821" cy="101.84784" rx="2.94999999137317" ry="3.05263589331738" fill="white"/>
                    </g>
                    <g id="Graphic_81">
                        <rect x="57.63" y="98.0832" width="5.9" height="13.228" fill="#dead26"/>
                    </g>
                    <g id="Graphic_80">
                        <ellipse cx="60.58001" cy="101.84784" rx="2.95000660057781" ry="3.05263589331738" fill="white"/>
                    </g>
                    <g id="Group_75">
                        <g id="Graphic_79">
                            <rect x="46.15" y="91.0612" width="1.229" height="24.014" fill="white"/>
                        </g>
                        <g id="Graphic_78">
                            <rect x="48.117" y="92.1062" width="1.229" height="24.199" fill="white"/>
                        </g>
                        <g id="Graphic_77">
                            <path d="M 46.15 91.1377 L 64.185 76.0252 L 64.943 76.9939 L 46.90807 92.1064 Z"
                                  fill="white"/>
                        </g>
                        <g id="Graphic_76">
                            <path d="M 48.117 92.1297 L 66.152 77.0172 L 66.91 77.9859 L 48.87507 93.0984 Z"
                                  fill="white"/>
                        </g>
                    </g>
                    <g id="Group_70">
                        <g id="Graphic_74">
                            <rect x="127.621" y="91.0612" width="1.229" height="24.014" fill="white"/>
                        </g>
                        <g id="Graphic_73">
                            <rect x="125.654" y="92.1062" width="1.229" height="24.199" fill="white"/>
                        </g>
                        <g id="Graphic_72">
                            <path d="M 128.85 91.1377 L 110.81507 76.0252 L 110.057 76.9939 L 128.092 92.1064 Z"
                                  fill="white"/>
                        </g>
                        <g id="Graphic_71">
                            <path d="M 126.883 92.1297 L 108.84807 77.0172 L 108.09 77.9859 L 126.125 93.0984 Z"
                                  fill="white"/>
                        </g>
                    </g>
                </g>
            </g>
            <g id="Graphic_128">
                <text transform="translate(33.5 154.75019)" fill="black">
                    <tspan font-family="American Typewriter" font-size="16" fill="black" x="9.136" y="14"
                           xml:space="preserve">DCC PANEL</tspan>
                    <tspan font-family="American Typewriter" font-size="16" fill="black" x="42632564e-20" y="32"
                           xml:space="preserve">CONTROLLER</tspan>
                </text>
            </g>
        </g>
    </g>
</svg>
