<?xml version="1.0" encoding="utf-8"?>
<svg width="48" height="48" viewBox="0 0 48 48" fill="none" xmlns="http://www.w3.org/2000/svg">
    <g>
        <rect width="48" height="48"/>
        <g id="Tracks" transform="translate(8.5 8.5)">
            <g id="Track_Unknown">
                <rect id="Rectangle" width="31" height="31" fill="none" stroke-width="1" stroke="#979797"/>
            </g>
        </g>
        <g fill="#90C418" fill-rule="evenodd" transform="translate(10 10)">
            <path id="Oval"
                  d="M0 14C0 6.26801 6.26801 0 14 0C21.732 0 28 6.26801 28 14C28 21.732 21.732 28 14 28C6.26801 28 0 21.732 0 14Z"/>
            <path d="M14 0C6.26801 0 0 6.26801 0 14C0 21.732 6.26801 28 14 28C21.732 28 28 21.732 28 14C28 6.26801 21.732 0 14 0ZM4.80761 23.1924Q1 19.3848 1 14Q1 8.61522 4.80761 4.80761Q8.61522 1 14 1Q19.3848 1 23.1924 4.80761Q27 8.61522 27 14Q27 19.3848 23.1924 23.1924Q19.3848 27 14 27Q8.61522 27 4.80761 23.1924Z"
                  fill="#000000" fill-rule="evenodd"/>
        </g>
    </g>
</svg>