
<svg width="48px" height="48px" viewBox="0 0 48 48" version="1.1" xmlns="http://www.w3.org/2000/svg" xmlns:xlink="http://www.w3.org/1999/xlink">
    <g id="Track-Parts" stroke="none" stroke-width="1" fill="none" fill-rule="evenodd">
        <g id="Track_Corner_Right_Continuation_Arrow" transform="translate(24, 24) scale(1, -1) translate(-24, -24)">
            <polygon id="Track" fill="#BDBDBD" transform="translate(17, 23.9999) rotate(180) translate(-17, -23.9999)" points="8 19.99988 26 19.99988 26 27.999878 8 27.9997788"></polygon>
            <polygon id="Track" fill="#BDBDBD" transform="translate(33.25, 16.25) rotate(180) translate(-33.25, -16.25)" points="23.000004 23.0000006 41.5000194 4.5 43.5 12.5000124 28.0000043 28.0000024"></polygon>
            <polygon id="Border" fill="#000000" transform="translate(15.5, 19) rotate(180) translate(-15.5, -19)" points="7.9999027 17.999924 22.9999013 18.0001224 22.9999997 20.0001224 7.9999027 20.0001224"></polygon>
            <polygon id="Border" fill="#000000" transform="translate(17, 28.9999) rotate(180) translate(-17, -28.9999)" points="8 27.9999 26 27.9999992 26 29.9999992 8 29.9999"></polygon>
            <polygon id="Border" fill="#000000" transform="translate(36.5, 17.5) scale(-1, 1) rotate(90) translate(-36.5, -17.5)" points="24.000011 29.0000116 47.0000145 5.9999886 49.000011 6.99998859 27.0000125 29.0000116"></polygon>
            <polygon id="Border" fill="#000000" transform="translate(32.5002, 9.9999) rotate(180) translate(-32.5002, -9.9999)" points="22.000303 19.9998778 42.0003227 -0.000120162964 43.000122 2.00868024 25.0003008 19.9998778 23.9478128 19.9998778"></polygon>
            <polygon id="Triangle" fill="#000000" transform="translate(45.7279, 3.7279) rotate(45) translate(-45.7279, -3.7279)" points="45.72787 -2.272078 57.72787 9.727922 33.72787 9.727922"></polygon>
        </g>
    </g>
</svg>