
<svg width="48px" height="48px" viewBox="0 0 48 48" version="1.1" xmlns="http://www.w3.org/2000/svg" xmlns:xlink="http://www.w3.org/1999/xlink">
    <g id="Track-Parts" stroke="none" stroke-width="1" fill="none" fill-rule="evenodd">
        <g id="Track_Turnout_Left_Diverging">
            <polygon id="Track" fill="#BDBDBD" transform="translate(16.5, 23.9999) rotate(180) translate(-16.5, -23.9999)" points="8 19.99991 25 19.99991 25 27.999908 8 27.9998088"></polygon>
            <polygon id="Track" fill="#BDBDBD" transform="translate(35.5, 14) rotate(180) translate(-35.5, -14)" points="23.0000017 27.9999998 22.999998 23.0000125 46.0000073 3.8146973e-06 48 8.00000391 28.0000149 27.9999998"></polygon>
            <polygon id="Border" fill="#000000" transform="translate(23.9889, 19) rotate(180) translate(-23.9889, -19)" points="7.9997406 17.999876 39.9778178 18.0000744 39.9780276 20.0000922 22.9534764 20.0000896 24.9546971 17.999876"></polygon>
            <polygon id="Border" fill="#000000" transform="translate(17, 28.9999) rotate(180) translate(-17, -28.9999)" points="8.99999994 27.9999 26 27.9999992 26 29.9999992 8.99999994 29.9999 8 27.9999"></polygon>
            <polygon id="Border" fill="#000000" transform="translate(32.5002, 9.9999) rotate(180) translate(-32.5002, -9.9999)" points="22.000303 19.9999084 42.0003227 -8.9645386e-05 43.000122 2.00871075 25.0003008 19.9999084 23.9478128 19.9999084"></polygon>
            <polygon id="Border" fill="#000000" transform="translate(36.5, 17.5) scale(-1, 1) rotate(90) translate(-36.5, -17.5)" points="24.000038 29.0000335 47.0000433 5.9999685 49.00004 6.99996855 27.000046 29.0000335"></polygon>
            <polygon id="Track" fill="#BDBDBD" transform="translate(35.0001, 24) rotate(180) translate(-35.0001, -24)" points="30 20 40.000123 20 31.9957221 28.000001 30 27.9998999"></polygon>
            <polygon id="Border" fill="#000000" transform="translate(33.9647, 28.9978) rotate(180) translate(-33.9647, -28.9978)" points="27.929377 28 40 28.000099 37.9293764 29.9956055 27.929377 29.9956055"></polygon>
            <polygon id="Border" fill="#000000" points="40.0000033 20.0000114 38 20.0000008 40 18"></polygon>
        </g>
    </g>
</svg>