
<svg width="48px" height="48px" viewBox="0 0 48 48" version="1.1" xmlns="http://www.w3.org/2000/svg" xmlns:xlink="http://www.w3.org/1999/xlink">
    <g id="Track-Parts" stroke="none" stroke-width="1" fill="none" fill-rule="evenodd">
        <g id="Track_Angle_Terminator_Long">
            <polygon id="Track" fill="#BDBDBD" transform="translate(21.25, 26.75) rotate(180) translate(-21.25, -26.75)" points="2.2888184e-05 42.9999901 37.5000476 5.4999886 42.4999999 5.4999886 42.4999999 10.499992 5.00002448 47.9999986"></polygon>
            <polygon id="Border" fill="#000000" transform="translate(21.5, 21.5) rotate(180) translate(-21.5, -21.5)" points="0 42.9999996 42.9999957 -9.536743e-05 43 2.99990516 3.00000271 42.9999996 1.94751386 42.9999996"></polygon>
            <polygon id="Border" fill="#000000" transform="translate(26.5, 26.5) scale(-1, 1) rotate(90) translate(-26.5, -26.5)" points="5.000019 48.000017 48.000019 4.999983 48.000019 7.99998426 8.00001849 48.000017"></polygon>
            <polygon id="Triangle" fill="#000000" transform="translate(44.002, 4.0077) rotate(45) translate(-44.002, -4.0077)" points="43.9951739 -1.653172 55.316627 9.668483 32.687416 9.65441426"></polygon>
        </g>
    </g>
</svg>