<svg width="48px" height="48px" viewBox="0 0 48 48" version="1.1" xmlns="http://www.w3.org/2000/svg"
>
    <g id="Tracks" stroke="none" stroke-width="1" fill="none" fill-rule="evenodd">
        <g id="Track_Angle_Continuation_Arrow">
            <polygon id="Track" fill="#BDBDBD" transform="translate(17.75, 30.25) rotate(180) translate(-17.75, -30.25)"
                     points="-7.6293945e-06 43.0000004 30.4999982 12.5 35.5000004 12.5 35.5000004 17.5000028 4.99999313 48"></polygon>
            <polygon id="Border" fill="#000000" transform="translate(15, 27.25) rotate(180) translate(-15, -27.25)"
                     points="29.9999388 11.500002 29.9999388 14.500007 1.49996371 43 -3.6239624e-05 41.5000142"></polygon>
            <polygon id="Border" fill="#000000"
                     transform="translate(20.75, 33) scale(-1, 1) rotate(90) translate(-20.75, -33)"
                     points="5.7499657 47.2499554 35.7500347 17.250004 35.7500347 20.2500137 7.2499657 48.750002"></polygon>
            <line x1="3.99999998" y1="43.9999987" x2="30.0000002" y2="18" id="Dashline" stroke="#686868"
                  stroke-width="4" stroke-linecap="square" stroke-dasharray="2,6"></line>
            <polygon id="Occupied" fill="#FF0000"
                     transform="translate(12.4967, 26.0599) rotate(-45) translate(-12.4967, -26.0599)"
                     points="32.042436 25.014818 32.0018825 27.1000428 -7.04238841 27.1050425 -7.049034 25.1626207"></polygon>
            <polygon id="Occupied" fill="#FF0000"
                     transform="translate(21.8201, 35.6674) rotate(-45) translate(-21.8201, -35.6674)"
                     points="41.543953 34.57483 41.5085527 36.7394705 2.68343462 36.7600145 2.096325 34.5832788"></polygon>
            <polygon id="Continuation" fill="#000000"
                     transform="translate(34.9944, 13.0032) rotate(45) translate(-34.9944, -13.0032)"
                     points="35.0234848 7.340109 46.291406 18.6080302 23.697393 18.666201"></polygon>
        </g>
    </g>
</svg>