
<svg width="48px" height="48px" viewBox="0 0 48 48" version="1.1" xmlns="http://www.w3.org/2000/svg" xmlns:xlink="http://www.w3.org/1999/xlink">
    <g id="Track-Parts" stroke="none" stroke-width="1" fill="none" fill-rule="evenodd">
        <g id="Track_Crossing_Straight">
            <polygon id="Border" fill="#000000" points="8 18 40 18 40 20 8 20"></polygon>
            <polygon id="Border" fill="#000000" points="8 28 40 28 40 30 8 30"></polygon>
            <polygon id="Track" fill="#BDBDBD" points="8 20 40 20 40 28 8 28"></polygon>
            <polygon id="Border" fill="#000000" transform="translate(19, 34) rotate(90) translate(-19, -34)" points="13 33 25 33 25 35 13 35"></polygon>
            <polygon id="Track" fill="#BDBDBD" transform="translate(24, 24) rotate(90) translate(-24, -24)" points="8 20 40 20 40 28 8 28"></polygon>
            <polygon id="Border" fill="#000000" transform="translate(29, 34) rotate(90) translate(-29, -34)" points="23 33 35 33 35 35 23 35"></polygon>
            <polygon id="Border" fill="#000000" transform="translate(29, 14) rotate(90) translate(-29, -14)" points="23 13 35 13 35 15 23 15"></polygon>
            <polygon id="Border" fill="#000000" transform="translate(19, 14) rotate(90) translate(-19, -14)" points="13 13 25 13 25 15 13 15"></polygon>
        </g>
    </g>
</svg>