
<svg width="48px" height="48px" viewBox="0 0 48 48" version="1.1" xmlns="http://www.w3.org/2000/svg" xmlns:xlink="http://www.w3.org/1999/xlink">
    <g id="Track-Parts" stroke="none" stroke-width="1" fill="none" fill-rule="evenodd">
        <g id="Track_Angle_Button">
            <polygon id="Track" fill="#BDBDBD" transform="translate(36.0035, 12.1236) rotate(180) translate(-36.0035, -12.1236)" points="26.0034112 28.248749 19.878311 22.1236481 46.0035001 -4.001541 52.128601 2.12355985"></polygon>
            <polygon id="Border" fill="#000000" transform="translate(32.5002, 9.9999) rotate(180) translate(-32.5002, -9.9999)" points="22.000303 19.9999084 42.0003227 -8.9645386e-05 43.000122 2.00871075 25.0003008 19.9999084 23.9478128 19.9999084"></polygon>
            <polygon id="Border" fill="#000000" transform="translate(36.5, 17.5) scale(-1, 1) rotate(90) translate(-36.5, -17.5)" points="24.000011 29.0000116 47.0000145 5.9999886 49.000011 6.99998859 27.0000125 29.0000116"></polygon>
            <polygon id="Track" fill="#BDBDBD" transform="translate(23.5, 23.8748) rotate(180) translate(-23.5, -23.8748)" points="1.1251578 51.9999985 -5.0000114 45.8749115 44.999987 -4.2503815 51.9999986 0.74961859"></polygon>
            <polygon id="Border" fill="#000000" transform="translate(21.5, 21.5) rotate(180) translate(-21.5, -21.5)" points="0 42.9999996 42.9999957 -9.536743e-05 43 2.99990516 3.00000271 42.9999996 1.94751386 42.9999996"></polygon>
            <polygon id="Border" fill="#000000" transform="translate(26.5, 26.5) scale(-1, 1) rotate(90) translate(-26.5, -26.5)" points="5.000019 48.000017 48.000019 4.999983 48.000019 7.99998426 8.00001849 48.000017"></polygon>
            <circle id="Border" stroke="#000000" stroke-width="2" fill="#FFFFFF" cx="24" cy="24" r="7"></circle>
            <circle id="Button" fill="#90C418" cx="24" cy="24" r="6"></circle>
        </g>
    </g>
</svg>