
<svg width="48px" height="48px" viewBox="0 0 48 48" version="1.1" xmlns="http://www.w3.org/2000/svg" xmlns:xlink="http://www.w3.org/1999/xlink">
    <g id="Track-Parts" stroke="none" stroke-width="1" fill="none" fill-rule="evenodd">
        <g id="Track_Corner_Right_Continuation_Lines" transform="translate(24, 24) scale(1, -1) translate(-24, -24)">
            <polygon id="Track" fill="#BDBDBD" transform="translate(17, 23.9999) rotate(180) translate(-17, -23.9999)" points="8 19.99988 26 19.99988 26 27.999878 8 27.9997788"></polygon>
            <polygon id="Track" fill="#BDBDBD" transform="translate(31.0095, 18.5019) rotate(180) translate(-31.0095, -18.5019)" points="23 22.9849281 37.018922 9.003807 39.01892 17.0038067 28.0151464 28"></polygon>
            <polygon id="Border" fill="#000000" transform="translate(15.5, 19) rotate(180) translate(-15.5, -19)" points="7.9999027 17.999924 22.9999013 18.0001224 22.9999997 20.0001224 7.9999027 20.0001224"></polygon>
            <polygon id="Border" fill="#000000" transform="translate(17, 28.9999) rotate(180) translate(-17, -28.9999)" points="8 27.9999 26 27.9999992 26 29.9999992 8 29.9999"></polygon>
            <polygon id="Border" fill="#000000" transform="translate(32.75, 22) scale(-1, 1) rotate(90) translate(-32.75, -22)" points="24.750008 28.2499903 38.7500328 14.24999 40.749998 15.2499907 26.2500181 29.75"></polygon>
            <polygon id="Border" fill="#000000" transform="translate(32.5002, 9.9999) rotate(180) translate(-32.5002, -9.9999)" points="22.000303 19.9998778 42.0003227 -0.000120162964 43.000122 2.00868024 32.5004252 12.499788 30.9647809 11.0354327"></polygon>
            <g id="Group" transform="translate(37.5755, 10.4541) scale(1, -1) rotate(45) translate(-37.5755, -10.4541)translate(36.0757, -1.5459)" fill="#000000">
                <polygon id="Border" transform="translate(0.5, 12) scale(1, -1) translate(-0.5, -12)" points="0 0 0.999922 0 0.999922 24 0 24"></polygon>
                <polygon id="Border" transform="translate(2.4998, 12) scale(1, -1) translate(-2.4998, -12)" points="1.999844 0 2.9997659 0 2.9997659 24 1.999844 24"></polygon>
            </g>
        </g>
    </g>
</svg>