
<svg width="48px" height="48px" viewBox="0 0 48 48" version="1.1" xmlns="http://www.w3.org/2000/svg" xmlns:xlink="http://www.w3.org/1999/xlink">
    <g id="TrackParts-(new)" stroke="none" stroke-width="1" fill="none" fill-rule="evenodd">
        <g id="Track_Compass">
            <polygon id="CompassNW" fill="#000000" transform="translate(2, 2) rotate(-45) translate(-2, -2)" points="2 -0.828427125 7.65685425 4.82842712 -3.65685425 4.82842712"></polygon>
            <polygon id="CompassSW" fill="#BDBDBD" transform="translate(2, 46) rotate(-135) translate(-2, -46)" points="2 43.1715729 7.65685425 48.8284271 -3.65685425 48.8284271"></polygon>
            <polygon id="CompassNE" fill="#BDBDBD" transform="translate(46, 2) rotate(-315) translate(-46, -2)" points="46 -0.828427125 51.6568542 4.82842712 40.3431458 4.82842712"></polygon>
            <polygon id="CompassSE" fill="#BDBDBD" transform="translate(46, 46) rotate(-225) translate(-46, -46)" points="46 43.1715729 51.6568542 48.8284271 40.3431458 48.8284271"></polygon>
            <polygon id="CompassS" fill="#BDBDBD" transform="translate(23.9786, 34.9926) rotate(-180) translate(-23.9786, -34.9926)" points="23.9571533 31.9852295 29.9781494 38 17.9790039 38"></polygon>
            <polygon id="CompassW" fill="#BDBDBD" transform="translate(12.9786, 23.9926) rotate(-90) translate(-12.9786, -23.9926)" points="12.9571533 20.9852295 18.9781494 27 6.97900391 27"></polygon>
            <polygon id="CompassE" fill="#BDBDBD" transform="translate(34.9786, 23.9926) rotate(-270) translate(-34.9786, -23.9926)" points="34.9571533 20.9852295 40.9781494 27 28.9790039 27"></polygon>
            <polygon id="CompassN" fill="#BDBDBD" transform="translate(23.9786, 12.9926) rotate(-360) translate(-23.9786, -12.9926)" points="23.9571533 9.98522949 29.9781494 16 17.9790039 16"></polygon>
        </g>
    </g>
</svg>