
<svg width="48px" height="48px" viewBox="0 0 48 48" version="1.1" xmlns="http://www.w3.org/2000/svg" xmlns:xlink="http://www.w3.org/1999/xlink">
    <g id="Tracks" stroke="none" stroke-width="1" fill="none" fill-rule="evenodd">
        <g id="Track_Angle_Continuation_Lines">
            <polygon id="Track" fill="#BDBDBD" transform="translate(13.25, 34.75) rotate(180) translate(-13.25, -34.75)" points="-5.722046e-06 43.0000023 21.5000253 21.5 26.5000003 21.5 26.5000003 26.5000017 4.99999474 47.9999984"></polygon>
            <polygon id="Border" fill="#000000" transform="translate(11, 31.5) rotate(180) translate(-11, -31.5)" points="21.9999996 20 21.9999996 23.0000117 2.00000776 43 7.6293945e-06 42.0000002"></polygon>
            <polygon id="Border" fill="#000000" transform="translate(16.75, 37) scale(-1, 1) rotate(90) translate(-16.75, -37)" points="5.7499847 47.2500109 27.7500167 25.250015 27.7500167 28.2500318 7.24998472 48.750015"></polygon>
            <polygon id="Continuation" fill="#000000" transform="translate(23.7929, 23.1317) rotate(-45) translate(-23.7929, -23.1317)" points="23.292936 11.131729 24.292936 11.131729 24.292936 35.131729 23.292936 35.131729"></polygon>
            <polygon id="Continuation" fill="#000000" transform="translate(25.2071, 22.1317) rotate(-45) translate(-25.2071, -22.1317)" points="24.70712 10.131729 25.70712 10.131729 25.70712 34.131729 24.70712 34.131729"></polygon>
            <line x1="3.99999998" y1="44.0000001" x2="21.9999995" y2="26" id="Dashline" stroke="#686868" stroke-width="4" stroke-linecap="square" stroke-dasharray="2,6"></line>
            <polygon id="Rectangle" fill="#FF0000" transform="translate(8.3618, 30.3652) rotate(-45) translate(-8.3618, -30.3652)" points="-5.77066904 29.8584267 23.878789 29.44566 23.9205656 31.2653893 -7.1970534 31.2848109"></polygon>
            <polygon id="Rectangle" fill="#FF0000" transform="translate(18.6191, 38.6159) rotate(-45) translate(-18.6191, -38.6159)" points="4.474656 37.74261 32.7637826 37.72895 32.7069857 39.5027591 5.94247223 39.2104261"></polygon>
        </g>
    </g>
</svg>