
<svg width="48px" height="48px" viewBox="0 0 48 48" version="1.1" xmlns="http://www.w3.org/2000/svg" xmlns:xlink="http://www.w3.org/1999/xlink">
    <g id="TrackParts-(new)" stroke="none" stroke-width="1" fill="none" fill-rule="evenodd">
        <g id="Track_Threeway">
            <polygon id="Track" fill="#BDBDBD" transform="translate(24, 23.9999) rotate(180) translate(-24, -23.9999)" points="7 19.99988 41 19.99988 41 27.999878 7 27.9997788"></polygon>
            <polygon id="Track" fill="#BDBDBD" transform="translate(35.5, 14) rotate(180) translate(-35.5, -14)" points="22.9999983 27.9999692 22.999998 22.9999639 46.0001273 -6.484985e-05 48.0000025 7.99993518 28.0000257 27.9999692"></polygon>
            <polygon id="Track" fill="#BDBDBD" transform="translate(34, 35.5) rotate(-90) translate(-34, -35.5)" points="21.5000153 49.500014 21.500015 44.5000087 44.5001443 21.49998 46.5000195 29.49998 26.5000427 49.500014"></polygon>
            <polygon id="Border" fill="#000000" transform="translate(15, 19) rotate(180) translate(-15, -19)" points="6.9999027 17.999924 22.9998947 18.0001224 22.9999997 20.0001224 6.9999027 20.0001224"></polygon>
            <polygon id="Border" fill="#000000" transform="translate(15, 28.9999) rotate(180) translate(-15, -28.9999)" points="9.235218 27.9999 23 27.9999992 23 29.9999992 6.999996 29.9999 8.06666283 28.0000221"></polygon>
            <polygon id="Border" fill="#000000" transform="translate(37, 19) rotate(180) translate(-37, -19)" points="33.9999999 18 40.9999995 18 38.9999991 20 33 20 33 18"></polygon>
            <polygon id="Border" fill="#000000" transform="translate(31.5001, 10) rotate(180) translate(-31.5001, -10)" points="20 20.0000304 40.0000217 3.05250307e-05 43.000122 -9.1552734e-05 22.999997 20.0000304 21.9475098 20.0000304"></polygon>
            <polygon id="Border" fill="#000000" transform="translate(40.5, 12.5) scale(-1, 1) rotate(90) translate(-40.5, -12.5)" points="33.000015 20.0000136 48.000014 4.9999876 48.000014 7.9999877 36.0000184 20.0000136"></polygon>
            <polygon id="Border" fill="#000000" transform="translate(37, 28.9942) rotate(180) translate(-37, -28.9942)" points="39.0000001 27.988403 40.999998 30 33 29.9998777 33 27.988403"></polygon>
            <polygon id="Border" fill="#000000" transform="translate(31.4874, 38.0125) rotate(-135) translate(-31.4874, -38.0125)" points="26.9267086 36.93406 46.690189 36.9697503 44.5688272 39.09103 16.284548 39.0909974 18.4058861 36.9697198"></polygon>
            <polygon id="Border" fill="#000000" transform="translate(42.25, 35.75) rotate(-135) translate(-42.25, -35.75)" points="35.8859162 34.6895564 51.442377 34.689297 49.3210491 36.8106497 35.1789438 36.8106198 33.057606 34.6893123"></polygon>
            <line x1="11" y1="24" x2="38" y2="24" id="Branchline" stroke="#686868" stroke-width="4" stroke-linecap="square" stroke-dasharray="2,6"></line>
            <line x1="44" y1="4" x2="28" y2="20" id="Branchline" stroke="#686868" stroke-width="4" stroke-linecap="square" stroke-dasharray="2,6"></line>
            <line x1="44" y1="44" x2="28" y2="28" id="Branchline" stroke="#686868" stroke-width="4" stroke-linecap="square" stroke-dasharray="2,6"></line>
        </g>
    </g>
</svg>