
<svg width="48px" height="48px" viewBox="0 0 48 48" version="1.1" xmlns="http://www.w3.org/2000/svg" xmlns:xlink="http://www.w3.org/1999/xlink">
    <g id="TrackParts-(new)" stroke="none" stroke-width="1" fill="none" fill-rule="evenodd">
        <g id="Track_Corner_Right" transform="translate(24, 24) scale(1, -1) translate(-24, -24)">
            <polygon id="Mainline" fill="#BDBDBD" transform="translate(16.5, 24) rotate(180) translate(-16.5, -24)" points="7 20 26 20 26 28 7 27.9999008 8.00012934 20"></polygon>
            <polygon id="Mainline" fill="#BDBDBD" transform="translate(35.5, 14) rotate(180) translate(-35.5, -14)" points="22.9999983 27.9999997 22.999998 22.9999944 46.0001273 -3.4332275e-05 48.0000025 7.9999657 28.0000257 27.9999997"></polygon>
            <polygon id="Border" fill="#000000" transform="translate(15, 19) rotate(180) translate(-15, -19)" points="7 18 22.999895 18.0001983 23 20 7 20"></polygon>
            <polygon id="Border" fill="#000000" transform="translate(16.5, 29) rotate(180) translate(-16.5, -29)" points="7 28 26 28.0000992 26 30 7 29.9999008"></polygon>
            <polygon id="Border" fill="#000000" transform="translate(32.5002, 9.9999) rotate(180) translate(-32.5002, -9.9999)" points="22.000303 19.9998778 42.0003227 -0.000120162964 43.000122 2.00868024 25.0003008 19.9998778 23.9478128 19.9998778"></polygon>
            <polygon id="Border" fill="#000000" transform="translate(36.5, 17.5) scale(-1, 1) rotate(90) translate(-36.5, -17.5)" points="24.000011 29.0000116 47.0000145 5.9999886 49.000011 6.99998859 27.0000125 29.0000116"></polygon>
            <line x1="11" y1="24" x2="23.9999996" y2="24" id="Branchline" stroke="#686868" stroke-width="4" stroke-linecap="square" stroke-dasharray="2,6"></line>
            <line x1="44.0000006" y1="4" x2="27" y2="21.0000006" id="Branchline" stroke="#686868" stroke-width="4" stroke-linecap="square" stroke-dasharray="2,6"></line>
        </g>
    </g>
</svg>