
<svg width="48px" height="48px" viewBox="0 0 48 48" version="1.1" xmlns="http://www.w3.org/2000/svg" xmlns:xlink="http://www.w3.org/1999/xlink">
    <g id="Track-Parts" stroke="none" stroke-width="1" fill="none" fill-rule="evenodd">
        <g id="Track_Turnout_Right_Straight" transform="translate(24, 24) scale(1, -1) translate(-24, -24)">
            <polygon id="Track" fill="#BDBDBD" transform="translate(24, 23.9999) rotate(180) translate(-24, -23.9999)" points="8 19.99991 40 19.99991 40 27.999908 8 27.9998088"></polygon>
            <polygon id="Track" fill="#BDBDBD" transform="translate(37.5, 8) rotate(180) translate(-37.5, -8)" points="27.00006 16.0000014 27.00006 10.9999996 38.000038 0 48.0000071 0 32.0000564 16.0000126"></polygon>
            <polygon id="Border" fill="#000000" transform="translate(23.9889, 19) rotate(180) translate(-23.9889, -19)" points="7.9997444 17.999874 39.9778215 18.0000724 39.9780274 20.0000905 7.9997444 20.0000879"></polygon>
            <polygon id="Border" fill="#000000" transform="translate(24, 28.9999) rotate(180) translate(-24, -28.9999)" points="8 27.9999 40 27.9999992 40 29.9999992 8 29.9999"></polygon>
            <polygon id="Border" fill="#000000" transform="translate(33.5, 8) rotate(180) translate(-33.5, -8)" points="23.99996 16.0000004 40.0000829 -9.1552734e-05 43.000122 -9.01601713e-05 26.9999634 16.0000004 25.9474743 16.0000004"></polygon>
            <polygon id="Border" fill="#000000" transform="translate(42.5067, 10.5321) scale(-1, 1) rotate(90) translate(-42.5067, -10.5321)" points="36.974678 16.025362 47.9746691 5.038757 48.0387945 7.96124271 39.9746818 16.025362"></polygon>
        </g>
    </g>
</svg>