
<svg width="48px" height="48px" viewBox="0 0 48 48" version="1.1" xmlns="http://www.w3.org/2000/svg" xmlns:xlink="http://www.w3.org/1999/xlink">
    <g id="Track-Parts" stroke="none" stroke-width="1" fill="none" fill-rule="evenodd">
        <g id="Track_Corner_Left_Continuation_Lines">
            <polygon id="Track" fill="#BDBDBD" transform="translate(17, 23.9999) rotate(-180) translate(-17, -23.9999)" points="8 19.99991 26 19.99991 26 27.999908 8 27.9998088"></polygon>
            <polygon id="Track" fill="#BDBDBD" transform="translate(31.0057, 18.5005) rotate(-180) translate(-31.0057, -18.5005)" points="23.000042 22.9896781 37.0114141 9.000969 39.011368 17.0009812 28.0104249 28"></polygon>
            <polygon id="Border" fill="#000000" transform="translate(15.5, 19) rotate(-180) translate(-15.5, -19)" points="7.9999027 17.999893 22.9999013 18.0000914 22.9999997 20.0000914 7.9999027 20.0000914"></polygon>
            <polygon id="Border" fill="#000000" transform="translate(17, 28.9999) rotate(-180) translate(-17, -28.9999)" points="8 27.9999 26 27.9999992 26 29.9999992 8 29.9999"></polygon>
            <polygon id="Border" fill="#000000" transform="translate(32.75, 22) scale(-1, 1) rotate(90) translate(-32.75, -22)" points="24.750008 28.2499903 38.7500328 14.24999 40.749998 15.2499907 26.2500181 29.75"></polygon>
            <polygon id="Border" fill="#000000" transform="translate(32.5002, 9.9999) rotate(-180) translate(-32.5002, -9.9999)" points="22.000303 19.9999084 42.0003227 -8.9645386e-05 43.000122 2.00871075 32.5004252 12.4998185 30.9647809 11.0354633"></polygon>
            <g id="Group" transform="translate(37.5755, 10.4541) scale(1, -1) rotate(45) translate(-37.5755, -10.4541)translate(36.0757, -1.5459)" fill="#000000">
                <polygon id="Border" transform="translate(0.5, 12) scale(1, -1) translate(-0.5, -12)" points="0 0 0.999922 0 0.999922 24 0 24"></polygon>
                <polygon id="Border" transform="translate(2.4998, 12) scale(1, -1) translate(-2.4998, -12)" points="1.999844 0 2.9997659 0 2.9997659 24 1.999844 24"></polygon>
            </g>
        </g>
    </g>
</svg>