<svg id="Add-Filled--Streamline-Carbon.svg" xmlns="http://www.w3.org/2000/svg" viewBox="-0.5 -0.5 24 24" height="24"
     width="24">
    <desc>Add Filled Streamline Icon: https://streamlinehq.com</desc>
    <defs></defs>
    <title>add--filled</title>
    <path d="M11.5 1.4375A10.186484375 10.186484375 0 0 0 1.4375 11.5a10.186484375 10.186484375 0 0 0 10.0625 10.0625 10.186484375 10.186484375 0 0 0 10.0625 -10.0625A10.186484375 10.186484375 0 0 0 11.5 1.4375Zm5.75 10.78125h-5.03125v5.03125h-1.4375v-5.03125H5.75v-1.4375h5.03125V5.75h1.4375v5.03125h5.03125Z"
          stroke-width="1"></path>
    <path id="inner-path"
          d="m17.25 12.21875 -5.03125 0 0 5.03125 -1.4375 0 0 -5.03125 -5.03125 0 0 -1.4375 5.03125 0 0 -5.03125 1.4375 0 0 5.03125 5.03125 0 0 1.4375z"
          fill="#ffffff" fill-opacity="0" stroke-width="1"></path>
    <path id="_Transparent_Rectangle_" d="M0 0h23v23H0Z" fill="none" stroke-width="1"></path>
</svg>