<svg id="Right-Panel-Open--Streamline-Carbon.svg" xmlns="http://www.w3.org/2000/svg" viewBox="-0.5 -0.5 24 24"
     height="24" width="24">
    <desc>Right Panel Open Streamline Icon: https://streamlinehq.com</desc>
    <defs></defs>
    <g transform="matrix(-0 1 -1 -0 24 0)">
    <path d="M1.4375 4.3125v14.375c0 0.793859375 0.643640625 1.4375 1.4375 1.4375h17.25c0.793859375 0 1.4375 -0.643640625 1.4375 -1.4375V4.3125c0 -0.793859375 -0.643640625 -1.4375 -1.4375 -1.4375H2.875c-0.793859375 0 -1.4375 0.643640625 -1.4375 1.4375Zm14.375 0h4.3125v14.375h-4.3125V4.3125ZM2.875 4.3125h11.5v6.46875H7.065384375l2.57298125 -2.58016875L8.625 7.1875l-4.3125 4.3125 4.3125 4.3125 1.013365625 -1.0135812499999999L7.065384375 12.21875H14.375v6.46875H2.875V4.3125Z"
          stroke-width="1"></path>
    <path id="_Transparent_Rectangle_" d="M0 0h23v23H0Z" stroke-width="1" fill="none"></path>
    </g>
</svg>