<?xml version="1.0" encoding="UTF-8" standalone="no"?>
<!DOCTYPE svg PUBLIC "-//W3C//DTD SVG 1.1//EN" "http://www.w3.org/Graphics/SVG/1.1/DTD/svg11.dtd">
<svg version="1.1" xmlns="http://www.w3.org/2000/svg"
     viewBox="-.5 -.5 24 24" width="24" height="24">
    <defs/>
    <g id="Canvas_1" stroke-dasharray="none" fill-opacity="1" stroke-opacity="1" stroke="none" fill="none">
        <title>Canvas 1</title>
        <g id="Canvas_1_Layer_1">
            <title>Layer 1</title>
            <g id="Graphic_2">
                <path d="M 14.883228 7.695728 L 10.149828 12.429272 L 14.883228 17.162816 L 13.866772 18.179272 L 8.116772 12.429272 L 13.866772 6.679272 L 14.883228 7.695728 Z"
                      fill="black"/>
            </g>
            <g id="Graphic_3">
                <path d="M 11.5 21.5625 C 5.9514656 21.5625 1.4375 17.048534 1.4375 11.5 C 1.4375 5.9514656 5.9514656 1.4375 11.5 1.4375 C 17.048534 1.4375 21.5625 5.9514656 21.5625 11.5 C 21.5625 17.048534 17.048534 21.5625 11.5 21.5625 Z M 11.5 2.875 C 6.744247 2.875 2.875 6.744247 2.875 11.5 C 2.875 16.255753 6.744247 20.125 11.5 20.125 C 16.255753 20.125 20.125 16.255753 20.125 11.5 C 20.125 6.744247 16.255753 2.875 11.5 2.875 Z"
                      fill="black"/>
            </g>
            <g id="Graphic_4">
                <title>_Transparent_Rectangle_</title>
            </g>
        </g>
    </g>
</svg>
