<svg id="Chevron-Down-Outline--Streamline-Carbon.svg" xmlns="http://www.w3.org/2000/svg" viewBox="-0.5 -0.5 24 24"
     height="24" width="24">
    <desc>Chevron Down Outline Streamline Icon: https://streamlinehq.com</desc>
    <defs></defs>
    <path d="M6.766456249999999 9.04604375 11.5 13.779443749999999l4.73354375 -4.7334000000000005L17.25 10.0625l-5.75 5.75 -5.75 -5.75 1.0164562499999998 -1.0164562499999998z"
          stroke-width="1"></path>
    <path d="M21.5625 11.5c0 5.548534375 -4.513965625 10.0625 -10.0625 10.0625S1.4375 17.048534375 1.4375 11.5 5.951465625 1.4375 11.5 1.4375s10.0625 4.513965625 10.0625 10.0625ZM2.875 11.5c0 4.755753125 3.869246875 8.625 8.625 8.625s8.625 -3.869246875 8.625 -8.625S16.255753125000002 2.875 11.5 2.875 2.875 6.744246875 2.875 11.5Z"
          stroke-width="1"></path>
    <path id="_Transparent_Rectangle_" d="M0 0h23v23H0Z" fill="none" stroke-width="1"></path>
</svg>