<svg id="Circle-Dash--Streamline-Carbon.svg" xmlns="http://www.w3.org/2000/svg" viewBox="-0.5 -0.5 24 24" height="24" width="24"><desc>Circle Dash Streamline Icon: https://streamlinehq.com</desc><defs></defs><title>circle--dash</title><path d="M5.534375 3.3781250000000003a10.565624999999999 10.565624999999999 0 0 0 -2.15625 2.228125L4.528125 6.46875a9.530625 9.530625 0 0 1 1.8687500000000001 -1.940625Z" fill="#000000" stroke-width="1"></path><path d="m3.30625 8.840625000000001 -1.3656249999999999 -0.43124999999999997A8.9915625 8.9915625 0 0 0 1.4375 11.5h1.4375a8.25125 8.25125 0 0 1 0.43124999999999997 -2.6593750000000003Z" fill="#000000" stroke-width="1"></path><path d="M1.940625 14.6625a10.35 10.35 0 0 0 1.4375 2.803125l1.1500000000000001 -0.8624999999999999a9.2646875 9.2646875 0 0 1 -1.221875 -2.3718749999999997Z" fill="#000000" stroke-width="1"></path><path d="M5.60625 19.621875a10.35 10.35 0 0 0 2.803125 1.4375l0.43124999999999997 -1.3656249999999999A9.2646875 9.2646875 0 0 1 6.46875 18.471875Z" fill="#000000" stroke-width="1"></path><path d="m8.409374999999999 1.940625 0.43124999999999997 1.3656249999999999A8.25125 8.25125 0 0 1 11.5 2.875V1.4375a8.9915625 8.9915625 0 0 0 -3.0906249999999997 0.5031249999999999Z" fill="#000000" stroke-width="1"></path><path d="M17.39375 19.621875a10.910625 10.910625 0 0 0 2.228125 -2.228125L18.471875 16.53125a8.2871875 8.2871875 0 0 1 -1.940625 1.940625Z" fill="#000000" stroke-width="1"></path><path d="m19.693749999999998 14.159374999999999 1.3656249999999999 0.43124999999999997A11.1190625 11.1190625 0 0 0 21.5625 11.5h-1.4375a8.25125 8.25125 0 0 1 -0.43124999999999997 2.6593750000000003Z" fill="#000000" stroke-width="1"></path><path d="M20.9875 8.3375a10.35 10.35 0 0 0 -1.4375 -2.803125l-1.1500000000000001 0.8624999999999999a9.2646875 9.2646875 0 0 1 1.221875 2.3718749999999997Z" fill="#000000" stroke-width="1"></path><path d="M17.321875000000002 3.30625a10.35 10.35 0 0 0 -2.803125 -1.4375l-0.43124999999999997 1.3656249999999999a9.2646875 9.2646875 0 0 1 2.3718749999999997 1.221875Z" fill="#000000" stroke-width="1"></path><path d="m14.590625000000001 21.059375 -0.43124999999999997 -1.3656249999999999a8.25125 8.25125 0 0 1 -2.6593750000000003 0.43124999999999997v1.4375a15.395625 15.395625 0 0 0 3.0906249999999997 -0.5031249999999999Z" fill="#000000" stroke-width="1"></path><path id="_Transparent_Rectangle_" d="M0 0h23v23H0Z" fill="none" stroke-width="1"></path></svg>