<svg version="1.1" id="Edit-Off--Streamline-Carbon.svg" xmlns="http://www.w3.org/2000/svg"
     xmlns:xlink="http://www.w3.org/1999/xlink" x="0" y="0" viewBox="-0.5 -0.5 24 24" xml:space="preserve"
     enable-background="new 0 0 32 32" height="24" width="24"><desc>Edit Off Streamline Icon: https://streamlinehq.com</desc>
    <title>Asset 2</title>
    <path d="M21.5625 20.556250000000002 2.44375 1.4375 1.4375 2.44375l7.2593749999999995 7.2593749999999995L2.875 15.525V20.125h4.6000000000000005l5.8218749999999995 -5.8218749999999995L20.556250000000002 21.5625l1.0062499999999999 -1.0062499999999999zM6.8999999999999995 18.6875H4.3125v-2.5875l5.390625 -5.390625 2.5875 2.5875L6.8999999999999995 18.6875z"
          stroke-width="1"></path>
    <path d="m21.131249999999998 4.45625 -2.5875 -2.5875c-0.5750000000000001 -0.5750000000000001 -1.4375 -0.5750000000000001 -2.0124999999999997 0l-5.75 5.75 1.0062499999999999 1.0062499999999999L14.375 6.0375000000000005l2.5875 2.5875 -2.5875 2.5875 1.0062499999999999 1.0062499999999999 5.75 -5.75c0.5750000000000001 -0.5750000000000001 0.5750000000000001 -1.4375 0 -2.0124999999999997zM17.96875 7.6187499999999995 15.38125 5.03125l2.15625 -2.15625L20.125 5.4624999999999995l-2.15625 2.15625z"
          stroke-width="1"></path>
    <path d="M0 0h23v23H0Z" fill="none" stroke-width="1"></path></svg>