<svg xmlns="http://www.w3.org/2000/svg" fill="none" viewBox="-0.5 -0.5 24 24"
     id="Apps--Streamline-Sharp----Material-Symbols.svg" height="24" width="24">
    <desc>Apps Streamline Icon: https://streamlinehq.com</desc>
    <path fill="#000000"
          d="M5.414583333333334 19.166666666666668c-0.44720625 0 -0.8225710416666666 -0.15175208333333334 -1.1260416666666668 -0.4552083333333333 -0.303470625 -0.30345625 -0.4552083333333333 -0.6788354166666667 -0.4552083333333333 -1.1260416666666668s0.15173770833333333 -0.8225854166666666 0.4552083333333333 -1.1260416666666668c0.303470625 -0.30345625 0.6788354166666667 -0.4552083333333333 1.1260416666666668 -0.4552083333333333s0.8225854166666666 0.15175208333333334 1.1260416666666668 0.4552083333333333c0.30345625 0.30345625 0.4552083333333333 0.6788354166666667 0.4552083333333333 1.1260416666666668s-0.15175208333333334 0.8225854166666666 -0.4552083333333333 1.1260416666666668c-0.30345625 0.30345625 -0.6788354166666667 0.4552083333333333 -1.1260416666666668 0.4552083333333333ZM11.5 19.166666666666668c-0.44720625 0 -0.8225854166666666 -0.15175208333333334 -1.1260416666666668 -0.4552083333333333 -0.30345625 -0.30345625 -0.4552083333333333 -0.6788354166666667 -0.4552083333333333 -1.1260416666666668s0.15175208333333334 -0.8225854166666666 0.4552083333333333 -1.1260416666666668c0.30345625 -0.30345625 0.6788354166666667 -0.4552083333333333 1.1260416666666668 -0.4552083333333333s0.8225854166666666 0.15175208333333334 1.1260416666666668 0.4552083333333333c0.30345625 0.30345625 0.4552083333333333 0.6788354166666667 0.4552083333333333 1.1260416666666668s-0.15175208333333334 0.8225854166666666 -0.4552083333333333 1.1260416666666668c-0.30345625 0.30345625 -0.6788354166666667 0.4552083333333333 -1.1260416666666668 0.4552083333333333Zm6.085416666666666 0c-0.44720625 0 -0.8225854166666666 -0.15175208333333334 -1.1260416666666668 -0.4552083333333333 -0.30345625 -0.30345625 -0.4552083333333333 -0.6788354166666667 -0.4552083333333333 -1.1260416666666668s0.15175208333333334 -0.8225854166666666 0.4552083333333333 -1.1260416666666668c0.30345625 -0.30345625 0.6788354166666667 -0.4552083333333333 1.1260416666666668 -0.4552083333333333s0.8225854166666666 0.15175208333333334 1.1260416666666668 0.4552083333333333c0.30345625 0.30345625 0.4552083333333333 0.6788354166666667 0.4552083333333333 1.1260416666666668s-0.15175208333333334 0.8225854166666666 -0.4552083333333333 1.1260416666666668c-0.30345625 0.30345625 -0.6788354166666667 0.4552083333333333 -1.1260416666666668 0.4552083333333333ZM5.414583333333334 13.08125c-0.44720625 0 -0.8225710416666666 -0.15175208333333334 -1.1260416666666668 -0.4552083333333333C3.985071041666667 12.322585416666668 3.8333333333333335 11.94720625 3.8333333333333335 11.5s0.15173770833333333 -0.8225854166666666 0.4552083333333333 -1.1260416666666668c0.303470625 -0.30345625 0.6788354166666667 -0.4552083333333333 1.1260416666666668 -0.4552083333333333s0.8225854166666666 0.15175208333333334 1.1260416666666668 0.4552083333333333c0.30345625 0.30345625 0.4552083333333333 0.6788354166666667 0.4552083333333333 1.1260416666666668s-0.15175208333333334 0.8225854166666666 -0.4552083333333333 1.1260416666666668c-0.30345625 0.30345625 -0.6788354166666667 0.4552083333333333 -1.1260416666666668 0.4552083333333333Zm6.085416666666666 0c-0.44720625 0 -0.8225854166666666 -0.15175208333333334 -1.1260416666666668 -0.4552083333333333 -0.30345625 -0.30345625 -0.4552083333333333 -0.6788354166666667 -0.4552083333333333 -1.1260416666666668s0.15175208333333334 -0.8225854166666666 0.4552083333333333 -1.1260416666666668c0.30345625 -0.30345625 0.6788354166666667 -0.4552083333333333 1.1260416666666668 -0.4552083333333333s0.8225854166666666 0.15175208333333334 1.1260416666666668 0.4552083333333333c0.30345625 0.30345625 0.4552083333333333 0.6788354166666667 0.4552083333333333 1.1260416666666668s-0.15175208333333334 0.8225854166666666 -0.4552083333333333 1.1260416666666668c-0.30345625 0.30345625 -0.6788354166666667 0.4552083333333333 -1.1260416666666668 0.4552083333333333Zm6.085416666666666 0c-0.44720625 0 -0.8225854166666666 -0.15175208333333334 -1.1260416666666668 -0.4552083333333333 -0.30345625 -0.30345625 -0.4552083333333333 -0.6788354166666667 -0.4552083333333333 -1.1260416666666668s0.15175208333333334 -0.8225854166666666 0.4552083333333333 -1.1260416666666668c0.30345625 -0.30345625 0.6788354166666667 -0.4552083333333333 1.1260416666666668 -0.4552083333333333s0.8225854166666666 0.15175208333333334 1.1260416666666668 0.4552083333333333c0.30345625 0.30345625 0.4552083333333333 0.6788354166666667 0.4552083333333333 1.1260416666666668s-0.15175208333333334 0.8225854166666666 -0.4552083333333333 1.1260416666666668c-0.30345625 0.30345625 -0.6788354166666667 0.4552083333333333 -1.1260416666666668 0.4552083333333333ZM5.414583333333334 6.995833333333334c-0.44720625 0 -0.8225710416666666 -0.15175208333333334 -1.1260416666666668 -0.4552083333333333 -0.303470625 -0.30345625 -0.4552083333333333 -0.6788354166666667 -0.4552083333333333 -1.1260416666666668s0.15173770833333333 -0.8225710416666666 0.4552083333333333 -1.1260416666666668C4.592012291666667 3.985071041666667 4.967377083333333 3.8333333333333335 5.414583333333334 3.8333333333333335s0.8225854166666666 0.15173770833333333 1.1260416666666668 0.4552083333333333c0.30345625 0.303470625 0.4552083333333333 0.6788354166666667 0.4552083333333333 1.1260416666666668s-0.15175208333333334 0.8225854166666666 -0.4552083333333333 1.1260416666666668c-0.30345625 0.30345625 -0.6788354166666667 0.4552083333333333 -1.1260416666666668 0.4552083333333333Zm6.085416666666666 0c-0.44720625 0 -0.8225854166666666 -0.15175208333333334 -1.1260416666666668 -0.4552083333333333 -0.30345625 -0.30345625 -0.4552083333333333 -0.6788354166666667 -0.4552083333333333 -1.1260416666666668s0.15175208333333334 -0.8225710416666666 0.4552083333333333 -1.1260416666666668C10.677414583333334 3.985071041666667 11.052793750000001 3.8333333333333335 11.5 3.8333333333333335s0.8225854166666666 0.15173770833333333 1.1260416666666668 0.4552083333333333c0.30345625 0.303470625 0.4552083333333333 0.6788354166666667 0.4552083333333333 1.1260416666666668s-0.15175208333333334 0.8225854166666666 -0.4552083333333333 1.1260416666666668c-0.30345625 0.30345625 -0.6788354166666667 0.4552083333333333 -1.1260416666666668 0.4552083333333333Zm6.085416666666666 0c-0.44720625 0 -0.8225854166666666 -0.15175208333333334 -1.1260416666666668 -0.4552083333333333 -0.30345625 -0.30345625 -0.4552083333333333 -0.6788354166666667 -0.4552083333333333 -1.1260416666666668s0.15175208333333334 -0.8225710416666666 0.4552083333333333 -1.1260416666666668c0.30345625 -0.303470625 0.6788354166666667 -0.4552083333333333 1.1260416666666668 -0.4552083333333333s0.8225854166666666 0.15173770833333333 1.1260416666666668 0.4552083333333333c0.30345625 0.303470625 0.4552083333333333 0.6788354166666667 0.4552083333333333 1.1260416666666668s-0.15175208333333334 0.8225854166666666 -0.4552083333333333 1.1260416666666668c-0.30345625 0.30345625 -0.6788354166666667 0.4552083333333333 -1.1260416666666668 0.4552083333333333Z"
          stroke-width="1"></path>
</svg>