<svg id="Help-Filled--Streamline-Carbon.svg" xmlns="http://www.w3.org/2000/svg" viewBox="-0.5 -0.5 24 24" height="24" width="24"><desc>Help Filled Streamline Icon: https://streamlinehq.com</desc><defs></defs><title>help--filled</title><path d="M11.5 1.4375a10.0625 10.0625 0 1 0 10.0625 10.0625A10.0625 10.0625 0 0 0 11.5 1.4375Zm0 16.53125a1.078125 1.078125 0 1 1 1.078125 -1.078125A1.078125 1.078125 0 0 1 11.5 17.96875Zm0.8208843749999999 -5.5731874999999995v1.7978812499999999h-1.6171875V10.78125h1.52734375a1.7079656250000002 1.7079656250000002 0 0 0 0 -3.4159312500000003h-1.078125a1.708971875 1.708971875 0 0 0 -1.70703125 1.70703125v0.458275h-1.6171875v-0.45834687500000004A3.3263031250000004 3.3263031250000004 0 0 1 11.152915624999999 5.75h1.078125a3.3233562500000002 3.3233562500000002 0 0 1 0.08984375 6.6455625000000005Z" stroke-width="1"></path><path id="inner-path" d="M11.5 17.96875a1.078125 1.078125 0 1 1 1.078125 -1.078125A1.078125 1.078125 0 0 1 11.5 17.96875Zm0.8208843749999999 -5.5731874999999995v1.7978812499999999h-1.6171875V10.78125h1.52734375a1.7079656250000002 1.7079656250000002 0 0 0 0 -3.4159312500000003h-1.078125a1.708971875 1.708971875 0 0 0 -1.70703125 1.70703125v0.458275h-1.6171875v-0.45834687500000004A3.3263031250000004 3.3263031250000004 0 0 1 11.152915624999999 5.75h1.078125a3.3233562500000002 3.3233562500000002 0 0 1 0.08984375 6.6455625000000005Z" fill="none" stroke-width="1"></path><path id="_Transparent_Rectangle_" d="M0 0h23v23H0Z" fill="none" stroke-width="1"></path></svg>