<svg id="Information-Filled--Streamline-Carbon.svg" xmlns="http://www.w3.org/2000/svg" viewBox="-0.5 -0.5 24 24" height="24" width="24"><desc>Information Filled Streamline Icon: https://streamlinehq.com</desc><defs></defs><path id="inner-path" d="M11.5 5.75a1.078125 1.078125 0 1 1 -1.078125 1.078125A1.078125 1.078125 0 0 1 11.5 5.75Zm2.875 9.97265625h-2.06640625v-5.75H9.34375v1.6171875h1.34765625v4.1328125H8.625v1.6171875h5.75Z" fill="none" stroke-width="1"></path><path d="M11.5 1.4375a10.0625 10.0625 0 1 0 10.0625 10.0625A10.0625 10.0625 0 0 0 11.5 1.4375Zm0 4.3125a1.078125 1.078125 0 1 1 -1.078125 1.078125A1.078125 1.078125 0 0 1 11.5 5.75Zm2.875 11.58984375h-5.75v-1.6171875h2.06640625v-4.1328125H9.34375v-1.6171875h2.96484375v5.75H14.375Z" stroke-width="1"></path><path id="_Transparent_Rectangle_" d="M0 0h23v23H0Z" fill="none" stroke-width="1"></path></svg>