<svg id="Information--Streamline-Carbon.svg" xmlns="http://www.w3.org/2000/svg" viewBox="-0.5 -0.5 24 24" height="24" width="24"><desc>Information Streamline Icon: https://streamlinehq.com</desc><defs></defs><path d="m12.21875 15.8125 0 -5.75 -2.875 0 0 1.4375 1.4375 0 0 4.3125 -2.15625 0 0 1.4375 5.75 0 0 -1.4375 -2.15625 0z" stroke-width="1"></path><path d="M11.5 5.75a1.078125 1.078125 0 1 0 1.078125 1.078125A1.078125 1.078125 0 0 0 11.5 5.75Z" stroke-width="1"></path><path d="M11.5 21.5625a10.0625 10.0625 0 1 1 10.0625 -10.0625 10.0625 10.0625 0 0 1 -10.0625 10.0625Zm0 -18.6875a8.625 8.625 0 1 0 8.625 8.625A8.625 8.625 0 0 0 11.5 2.875Z" stroke-width="1"></path><path id="_Transparent_Rectangle_" d="M0 0h23v23H0Z" fill="none" stroke-width="1"></path></svg>