<?xml version="1.0" encoding="utf-8"?>
<svg width="24" height="24" viewBox="0 0 24 24" fill="none" xmlns="http://www.w3.org/2000/svg">
    <g>
        <rect width="24" height="6" fill="#000000" fill-rule="evenodd" transform="translate(0 15)" />
        <path d="M3.5245 2.48047L2.7468 2.48047Q2.70241 2.1804 2.49112 2.00906Q2.27983 1.83771 1.96378 1.83771Q1.54119 1.83771 1.2864 2.14755Q1.03161 2.45739 1.03161 3.02557Q1.03161 3.60795 1.28817 3.91069Q1.54474 4.21342 1.95845 4.21342Q2.26562 4.21342 2.47869 4.05273Q2.69176 3.89205 2.7468 3.60085L3.5245 3.6044Q3.48366 3.93821 3.28658 4.23295Q3.08949 4.5277 2.75124 4.71058Q2.413 4.89347 1.94602 4.89347Q1.45952 4.89347 1.07688 4.6733Q0.694247 4.45312 0.473189 4.03587Q0.252131 3.61861 0.252131 3.02557Q0.252131 2.43075 0.475852 2.01349Q0.699574 1.59624 1.0831 1.37695Q1.46662 1.15767 1.94602 1.15767Q2.36683 1.15767 2.70508 1.31303Q3.04332 1.46839 3.25906 1.76403Q3.47479 2.05966 3.5245 2.48047ZM4.81889 1.20739L4.81889 4.84375L4.0625 4.84375L4.0625 1.20739L4.81889 1.20739ZM6.65483 4.89702Q6.24112 4.89702 5.94016 4.72035Q5.6392 4.54368 5.47585 4.22674Q5.3125 3.9098 5.3125 3.49077Q5.3125 3.06818 5.47585 2.75124Q5.6392 2.4343 5.94016 2.25764Q6.24112 2.08097 6.65483 2.08097Q7.06854 2.08097 7.3695 2.25764Q7.67045 2.4343 7.83381 2.75124Q7.99716 3.06818 7.99716 3.49077Q7.99716 3.9098 7.83381 4.22674Q7.67045 4.54368 7.3695 4.72035Q7.06854 4.89702 6.65483 4.89702ZM6.65838 4.31108Q6.93892 4.31108 7.08363 4.0767Q7.22834 3.84233 7.22834 3.48544Q7.22834 3.12855 7.08363 2.89329Q6.93892 2.65803 6.65838 2.65803Q6.37251 2.65803 6.22692 2.89329Q6.08132 3.12855 6.08132 3.48544Q6.08132 3.84233 6.22692 4.0767Q6.37251 4.31108 6.65838 4.31108ZM10.7599 2.89418L10.0675 2.93679Q10.0391 2.8054 9.92365 2.71129Q9.80824 2.61719 9.61115 2.61719Q9.43537 2.61719 9.31374 2.69087Q9.19212 2.76456 9.19389 2.88707Q9.19212 2.98473 9.27113 3.0522Q9.35014 3.11967 9.54013 3.16051L10.0337 3.25994Q10.8203 3.42152 10.8221 3.99858Q10.8221 4.26669 10.665 4.46911Q10.5078 4.67152 10.2344 4.78427Q9.96094 4.89702 9.6076 4.89702Q9.06605 4.89702 8.74467 4.67063Q8.4233 4.44425 8.37003 4.05362L9.11399 4.01456Q9.1495 4.18146 9.27823 4.26669Q9.40696 4.35192 9.60938 4.35192Q9.80824 4.35192 9.92987 4.27379Q10.0515 4.19567 10.0533 4.07493Q10.0479 3.87251 9.70348 3.80327L9.23118 3.70916Q8.43928 3.55114 8.44283 2.92969Q8.44105 2.53551 8.75799 2.30824Q9.07493 2.08097 9.59872 2.08097Q10.1154 2.08097 10.4128 2.29936Q10.7102 2.51776 10.7599 2.89418ZM12.5426 4.89702Q12.1236 4.89702 11.82 4.72567Q11.5163 4.55433 11.353 4.23917Q11.1896 3.92401 11.1896 3.49254Q11.1896 3.07173 11.353 2.75391Q11.5163 2.43608 11.8137 2.25852Q12.1112 2.08097 12.5124 2.08097Q12.8729 2.08097 13.1632 2.23366Q13.4535 2.38636 13.6239 2.69442Q13.7944 3.00249 13.7944 3.46591L13.7944 3.67365L11.9371 3.67365L11.9371 3.67543Q11.9371 3.98082 12.104 4.15661Q12.271 4.33239 12.555 4.33239Q12.745 4.33239 12.8835 4.25249Q13.022 4.17259 13.0788 4.01634L13.7784 4.0625Q13.6985 4.44247 13.3736 4.66974Q13.0487 4.89702 12.5426 4.89702ZM11.9371 3.2049L13.0824 3.2049Q13.0806 2.96165 12.9261 2.80362Q12.7717 2.6456 12.5249 2.6456Q12.2727 2.6456 12.1112 2.80895Q11.9496 2.9723 11.9371 3.2049ZM15.293 4.88814Q14.9822 4.88814 14.7319 4.72745Q14.4815 4.56676 14.3342 4.25337Q14.1868 3.93999 14.1868 3.48366Q14.1868 3.01491 14.3386 2.7033Q14.4904 2.39169 14.7417 2.23633Q14.9929 2.08097 15.2912 2.08097Q15.5202 2.08097 15.6738 2.1582Q15.8274 2.23544 15.9224 2.34908Q16.0174 2.46271 16.0671 2.57457L16.0902 2.57457L16.0902 1.20739L16.8448 1.20739L16.8448 4.84375L16.0991 4.84375L16.0991 4.40696L16.0671 4.40696Q16.0156 4.5206 15.918 4.63157Q15.8203 4.74254 15.6667 4.81534Q15.5131 4.88814 15.293 4.88814ZM15.5327 4.28622Q15.8061 4.28622 15.9561 4.06516Q16.1062 3.84411 16.1062 3.48011Q16.1062 3.11435 15.957 2.89861Q15.8079 2.68288 15.5327 2.68288Q15.2521 2.68288 15.1056 2.90394Q14.9592 3.125 14.9592 3.48011Q14.9592 3.837 15.1065 4.06161Q15.2539 4.28622 15.5327 4.28622Z" fill="#FFFFFF" transform="translate(3 15)" />
        <path d="M0.0397778 3.4318C-0.121063 4.57987 0.21061 5.74322 0.948714 6.61992C1.68682 7.49662 2.75858 8.00021 3.88582 8C3.88582 8 7.18243 8 7.18243 8C9.30146 7.9621 11 6.18366 11 4.00283C11 1.822 9.30146 0.0435538 7.18243 0.00565386C7.18243 0.00565386 5.29787 0 5.29787 0" fill="none" stroke-width="2" stroke="#000000" stroke-linecap="round" stroke-linejoin="round" transform="translate(10 5)" />
        <path d="M10.9602 4.57143C11.1211 3.42255 10.7894 2.25837 10.0513 1.38106C9.31318 0.503741 8.24142 -0.000210285 7.11418 4.76837e-07C7.11418 4.76837e-07 3.81758 0 3.81758 0C1.69854 0.0379229 7.15256e-07 1.81763 0 4C-1.43051e-06 6.18237 1.69854 7.96208 3.81757 8C3.81757 8 5.69664 8 5.69664 8" fill="none" stroke-width="2" stroke="#000000" stroke-linecap="round" stroke-linejoin="round" transform="translate(3 5)" />
    </g>
</svg>