<?xml version="1.0" encoding="utf-8"?>
<svg width="24" height="24" viewBox="0 0 24 24" fill="none" xmlns="http://www.w3.org/2000/svg">
    <g>
        <path d="M3.41974 2.38991L2.86577 2.38991Q2.7983 2.03658 2.53462 1.84748Q2.27095 1.65838 1.92294 1.65838Q1.61044 1.65838 1.36186 1.81641Q1.11328 1.97443 0.970348 2.27894Q0.827415 2.58345 0.827415 3.02557Q0.827415 3.46946 0.971236 3.77486Q1.11506 4.08026 1.36275 4.23651Q1.61044 4.39276 1.92116 4.39276Q2.26562 4.39276 2.53018 4.20632Q2.79474 4.01989 2.86577 3.67188L3.41974 3.67365Q3.36115 4.03232 3.15696 4.30753Q2.95277 4.58274 2.63494 4.7381Q2.31712 4.89347 1.91761 4.89347Q1.44531 4.89347 1.07599 4.66886Q0.706676 4.44425 0.494496 4.02521Q0.282315 3.60618 0.282315 3.02557Q0.282315 2.44318 0.495384 2.02504Q0.708452 1.60689 1.07777 1.38228Q1.44709 1.15767 1.91761 1.15767Q2.30291 1.15767 2.61985 1.30327Q2.93679 1.44886 3.14719 1.72496Q3.3576 2.00107 3.41974 2.38991ZM4.56499 1.20739L4.56499 4.84375L4.03409 4.84375L4.03409 1.20739L4.56499 1.20739ZM6.42756 4.89879Q6.04403 4.89879 5.75817 4.72301Q5.4723 4.54723 5.31428 4.23029Q5.15625 3.91335 5.15625 3.49254Q5.15625 3.06818 5.31428 2.75036Q5.4723 2.43253 5.75817 2.25675Q6.04403 2.08097 6.42756 2.08097Q6.81286 2.08097 7.09783 2.25675Q7.38281 2.43253 7.54084 2.75036Q7.69886 3.06818 7.69886 3.49254Q7.69886 3.91335 7.54084 4.23029Q7.38281 4.54723 7.09783 4.72301Q6.81286 4.89879 6.42756 4.89879ZM6.42933 4.45312Q6.67969 4.45312 6.84215 4.32173Q7.00462 4.19034 7.08363 3.97106Q7.16264 3.75178 7.16264 3.49077Q7.16264 3.22976 7.08363 3.00959Q7.00462 2.78942 6.84215 2.65714Q6.67969 2.52486 6.42933 2.52486Q6.17898 2.52486 6.01562 2.65714Q5.85227 2.78942 5.77237 3.00959Q5.69247 3.22976 5.69247 3.49077Q5.69247 3.75178 5.77237 3.97106Q5.85227 4.19034 6.01562 4.32173Q6.17898 4.45312 6.42933 4.45312ZM10.3338 2.78232L9.85263 2.86754Q9.80646 2.73082 9.68129 2.6163Q9.55611 2.50178 9.30753 2.50178Q9.08203 2.50178 8.93022 2.6021Q8.77841 2.70241 8.78018 2.86044Q8.77841 2.99893 8.8805 3.0815Q8.9826 3.16406 9.2081 3.21733L9.64134 3.31676Q10.3871 3.48899 10.3871 4.0554Q10.3871 4.3022 10.2459 4.49219Q10.1048 4.68217 9.85352 4.79048Q9.60227 4.89879 9.27202 4.89879Q8.81215 4.89879 8.5245 4.70259Q8.23686 4.50639 8.16939 4.14418L8.68253 4.06605Q8.77841 4.47088 9.26847 4.47088Q9.52947 4.47088 9.68572 4.36168Q9.84197 4.25249 9.84197 4.09446Q9.84197 3.83345 9.45668 3.74822L8.99503 3.64702Q8.61151 3.56179 8.4304 3.37003Q8.24929 3.17827 8.24929 2.88885Q8.24929 2.64737 8.38423 2.46538Q8.51918 2.28338 8.7571 2.18217Q8.99503 2.08097 9.3022 2.08097Q9.74432 2.08097 9.99822 2.27273Q10.2521 2.46449 10.3338 2.78232ZM12.1449 4.89879Q11.7436 4.89879 11.4524 4.72479Q11.1612 4.55078 11.0041 4.23562Q10.8469 3.92045 10.8469 3.49787Q10.8469 3.07884 11.0041 2.75923Q11.1612 2.43963 11.4444 2.2603Q11.7276 2.08097 12.1076 2.08097Q12.4165 2.08097 12.6926 2.21857Q12.9688 2.35618 13.1419 2.65714Q13.315 2.9581 13.315 3.4517L13.315 3.63991L11.3761 3.63991Q11.3867 4.03409 11.598 4.24716Q11.8093 4.46023 12.1502 4.46023Q12.3775 4.46023 12.5426 4.36257Q12.7077 4.26491 12.7788 4.07138L13.2813 4.16193Q13.1907 4.49396 12.8906 4.69638Q12.5906 4.89879 12.1449 4.89879ZM11.3778 3.24219L12.7947 3.24219Q12.793 2.92969 12.6065 2.72461Q12.4201 2.51953 12.1112 2.51953Q11.8963 2.51953 11.7356 2.61985Q11.5749 2.72017 11.4817 2.88441Q11.3885 3.04865 11.3778 3.24219ZM14.9272 4.89702Q14.5969 4.89702 14.3395 4.72834Q14.082 4.55966 13.9347 4.24272Q13.7873 3.92578 13.7873 3.48544Q13.7873 3.04332 13.9355 2.72905Q14.0838 2.41477 14.343 2.24787Q14.6023 2.08097 14.9308 2.08097Q15.1847 2.08097 15.34 2.16531Q15.4954 2.24964 15.5815 2.36151Q15.6676 2.47337 15.7156 2.55859L15.7475 2.55859L15.7475 1.20739L16.2784 1.20739L16.2784 4.84375L15.7599 4.84375L15.7599 4.41939L15.7156 4.41939Q15.6676 4.50639 15.5779 4.61825Q15.4883 4.73011 15.332 4.81357Q15.1758 4.89702 14.9272 4.89702ZM15.0444 4.44425Q15.3889 4.44425 15.5726 4.17702Q15.7564 3.9098 15.7564 3.48011Q15.7564 3.0522 15.5744 2.79208Q15.3924 2.53196 15.0444 2.53196Q14.8047 2.53196 14.6449 2.65625Q14.4851 2.78054 14.4043 2.9945Q14.3235 3.20845 14.3235 3.48011Q14.3235 3.75355 14.4052 3.97195Q14.4869 4.19034 14.6476 4.31729Q14.8082 4.44425 15.0444 4.44425Z" fill="#000000" transform="translate(3.5 15)" />
        <path d="M0.0397778 3.4318C-0.121063 4.57987 0.21061 5.74322 0.948714 6.61992C1.68682 7.49662 2.75858 8.00021 3.88582 8C3.88582 8 7.18243 8 7.18243 8C9.30146 7.9621 11 6.18366 11 4.00283C11 1.822 9.30146 0.0435538 7.18243 0.00565386C7.18243 0.00565386 5.29787 0 5.29787 0" fill="none" stroke-width="2" stroke="#000000" stroke-linecap="round" stroke-linejoin="round" transform="translate(10 6)" />
        <path d="M10.9602 4.57143C11.1211 3.42255 10.7894 2.25837 10.0513 1.38106C9.31318 0.503741 8.24142 -0.000210285 7.11418 4.76837e-07C7.11418 4.76837e-07 3.81758 0 3.81758 0C1.69854 0.0379229 7.15256e-07 1.81763 0 4C-1.43051e-06 6.18237 1.69854 7.96208 3.81757 8C3.81757 8 5.69664 8 5.69664 8" fill="none" stroke-width="2" stroke="#000000" stroke-linecap="round" stroke-linejoin="round" transform="translate(3 6)" />
    </g>
</svg>