<?xml version="1.0" encoding="utf-8"?>
<svg width="24" height="24" viewBox="0 0 24 24" fill="none" xmlns="http://www.w3.org/2000/svg">
    <g>
        <path d="M4.29119 3.02983L3.22585 3.02983Q3.18537 2.7017 2.96271 2.50781Q2.74006 2.31392 2.37997 2.31392Q1.9027 2.31392 1.63104 2.66016Q1.35938 3.00639 1.35938 3.63068Q1.35938 4.28054 1.63317 4.61399Q1.90696 4.94744 2.37358 4.94744Q2.72088 4.94744 2.94567 4.7706Q3.17045 4.59375 3.22585 4.27841L4.29119 4.2848Q4.26136 4.57457 4.12287 4.85689Q3.98438 5.1392 3.74041 5.36825Q3.49645 5.5973 3.14915 5.73473Q2.80185 5.87216 2.35227 5.87216Q1.75994 5.87216 1.29226 5.61115Q0.824574 5.35014 0.553977 4.84943Q0.283381 4.34872 0.283381 3.63068Q0.283381 2.90838 0.558239 2.40874Q0.833097 1.90909 1.30185 1.64915Q1.7706 1.3892 2.35227 1.3892Q2.88068 1.3892 3.2983 1.58203Q3.71591 1.77486 3.97692 2.14134Q4.23793 2.50781 4.29119 3.02983ZM5.93395 1.44886L5.93395 5.8125L4.89205 5.8125L4.89205 1.44886L5.93395 1.44886ZM8.12216 5.87429Q7.60867 5.87429 7.23793 5.66229Q6.86719 5.45028 6.66797 5.06996Q6.46875 4.68963 6.46875 4.18679Q6.46875 3.68182 6.66797 3.30149Q6.86719 2.92116 7.23793 2.70916Q7.60867 2.49716 8.12216 2.49716Q8.63778 2.49716 9.00746 2.70916Q9.37713 2.92116 9.57635 3.30149Q9.77557 3.68182 9.77557 4.18679Q9.77557 4.68963 9.57635 5.06996Q9.37713 5.45028 9.00746 5.66229Q8.63778 5.87429 8.12216 5.87429ZM8.12855 5.08807Q8.40767 5.08807 8.56108 4.83665Q8.71449 4.58523 8.71449 4.1804Q8.71449 3.77344 8.56108 3.52095Q8.40767 3.26847 8.12855 3.26847Q7.83878 3.26847 7.6843 3.52095Q7.52983 3.77344 7.52983 4.1804Q7.52983 4.58523 7.6843 4.83665Q7.83878 5.08807 8.12855 5.08807ZM13.1676 3.53906L12.2109 3.56463Q12.1896 3.40909 12.0554 3.31001Q11.9212 3.21094 11.7145 3.21094Q11.5334 3.21094 11.4066 3.28232Q11.2798 3.35369 11.282 3.4794Q11.2798 3.57315 11.3597 3.64453Q11.4396 3.71591 11.6463 3.75852L12.277 3.87784Q13.2422 4.06321 13.2486 4.7642Q13.2464 5.10085 13.0494 5.35014Q12.8523 5.59943 12.5114 5.73686Q12.1705 5.87429 11.7315 5.87429Q11.0305 5.87429 10.6257 5.58558Q10.2209 5.29688 10.1655 4.81108L11.1946 4.78551Q11.2287 4.96449 11.3714 5.05824Q11.5142 5.15199 11.7358 5.15199Q11.9361 5.15199 12.0618 5.07741Q12.1875 5.00284 12.1896 4.87926Q12.1832 4.67259 11.7912 4.59588L11.2202 4.48722Q10.2422 4.30611 10.2486 3.53906Q10.2464 3.04688 10.6385 2.77202Q11.0305 2.49716 11.6953 2.49716Q12.3601 2.49716 12.7436 2.77521Q13.1271 3.05327 13.1676 3.53906ZM15.2898 5.87429Q14.5185 5.87429 14.0763 5.42472Q13.6342 4.97514 13.6342 4.18892Q13.6342 3.68182 13.8345 3.30149Q14.0348 2.92116 14.3991 2.70916Q14.7635 2.49716 15.2578 2.49716Q15.7223 2.49716 16.0803 2.68999Q16.4382 2.88281 16.6406 3.25568Q16.843 3.62855 16.843 4.16761L16.843 4.42756L14.6612 4.42756L14.6612 4.45526Q14.6612 4.75568 14.8349 4.93892Q15.0085 5.12216 15.3089 5.12216Q15.5135 5.12216 15.6648 5.03587Q15.8161 4.94957 15.8757 4.78764L16.8324 4.81534Q16.7429 5.29688 16.3381 5.58558Q15.9332 5.87429 15.2898 5.87429ZM14.6612 3.82244L15.8736 3.82244Q15.8714 3.57102 15.7042 3.41016Q15.5369 3.24929 15.2791 3.24929Q15.0192 3.24929 14.8455 3.41335Q14.6719 3.57741 14.6612 3.82244ZM18.5732 5.85938Q18.2131 5.85938 17.9158 5.67081Q17.6186 5.48224 17.4418 5.10938Q17.2649 4.73651 17.2649 4.17827Q17.2649 3.60085 17.4482 3.22905Q17.6314 2.85724 17.9297 2.6772Q18.228 2.49716 18.5689 2.49716Q18.9567 2.49716 19.1793 2.68572Q19.402 2.87429 19.4936 3.10014L19.5149 3.10014L19.5149 1.44886L20.5568 1.44886L20.5568 5.8125L19.5256 5.8125L19.5256 5.28196L19.4936 5.28196Q19.3956 5.50781 19.1697 5.68359Q18.9439 5.85938 18.5732 5.85938ZM18.9354 5.04759Q19.2209 5.04759 19.3796 4.81108Q19.5384 4.57457 19.5384 4.17614Q19.5384 3.77557 19.3796 3.54332Q19.2209 3.31108 18.9354 3.31108Q18.6456 3.31108 18.4901 3.54652Q18.3345 3.78196 18.3345 4.17614Q18.3345 4.57244 18.4901 4.81001Q18.6456 5.04759 18.9354 5.04759Z" fill="#000000" transform="translate(1.5 15)" />
        <path d="M0.0433941 3.86078C-0.13207 5.15236 0.229757 6.46113 1.03496 7.44741C1.84017 8.43369 3.00936 9.00024 4.23907 9C4.23907 9 7.83537 9 7.83537 9C10.147 8.95737 12 6.95661 12 4.50318C12 2.04975 10.147 0.0489979 7.83538 0.00636053C7.83538 0.00636053 5.77949 0 5.77949 0" fill="none" stroke-width="2" stroke="#000000" stroke-linecap="round" stroke-linejoin="round" transform="translate(9.389 4)" />
        <path d="M11.9566 5.14286C12.1321 3.85036 11.7702 2.54067 10.965 1.55369C10.1598 0.566709 8.99065 -0.000236511 7.76093 4.76837e-07C7.76093 4.76837e-07 4.16463 0 4.16463 0C1.85295 0.0426636 7.15256e-07 2.04483 0 4.5C-1.66893e-06 6.95517 1.85295 8.95734 4.16463 9C4.16463 9 6.21452 9 6.21452 9" fill="none" stroke-width="2" stroke="#000000" stroke-linecap="round" stroke-linejoin="round" transform="translate(2 4)" />
    </g>
</svg>