<?xml version="1.0" encoding="utf-8"?>
<svg width="24" height="24" viewBox="0 0 24 24" fill="none" xmlns="http://www.w3.org/2000/svg">
    <g>
        <path d="M1.5767 4.84375L0.399503 4.84375L0.399503 1.20739L1.61399 1.20739Q2.15021 1.20739 2.53285 1.42489Q2.91548 1.6424 3.12056 2.04812Q3.32564 2.45384 3.32564 3.02024Q3.32564 3.58842 3.11967 3.9968Q2.91371 4.40518 2.52219 4.62447Q2.13068 4.84375 1.5767 4.84375ZM0.948153 4.36435L1.54652 4.36435Q2.16797 4.36435 2.47692 4.01545Q2.78587 3.66655 2.78587 3.02024Q2.78587 2.37749 2.48136 2.03214Q2.17685 1.68679 1.58026 1.68679L0.948153 1.68679L0.948153 4.36435ZM3.96484 4.84375L3.96484 2.11648L4.49574 2.11648L4.49574 4.84375L3.96484 4.84375ZM4.23295 1.69567Q4.09446 1.69567 3.99592 1.60245Q3.89737 1.50923 3.89737 1.37962Q3.89737 1.24822 3.99592 1.15501Q4.09446 1.06179 4.23295 1.06179Q4.36967 1.06179 4.46911 1.15501Q4.56854 1.24822 4.56854 1.37962Q4.56854 1.50923 4.46911 1.60245Q4.36967 1.69567 4.23295 1.69567ZM7.54261 2.11648L6.55362 4.84375L5.98544 4.84375L4.99467 2.11648L5.56463 2.11648L6.25533 4.2152L6.28374 4.2152L6.97266 2.11648L7.54261 2.11648ZM9.12109 4.89879Q8.71982 4.89879 8.42862 4.72479Q8.13743 4.55078 7.98029 4.23562Q7.82315 3.92045 7.82315 3.49787Q7.82315 3.07884 7.98029 2.75923Q8.13743 2.43963 8.42063 2.2603Q8.70384 2.08097 9.08381 2.08097Q9.39276 2.08097 9.66886 2.21857Q9.94496 2.35618 10.1181 2.65714Q10.2912 2.9581 10.2912 3.4517L10.2912 3.63991L8.35227 3.63991Q8.36293 4.03409 8.57422 4.24716Q8.78551 4.46023 9.12642 4.46023Q9.35369 4.46023 9.51882 4.36257Q9.68395 4.26491 9.75497 4.07138L10.2575 4.16193Q10.1669 4.49396 9.86683 4.69638Q9.56676 4.89879 9.12109 4.89879ZM8.35405 3.24219L9.77095 3.24219Q9.76918 2.92969 9.58274 2.72461Q9.39631 2.51953 9.08736 2.51953Q8.87251 2.51953 8.71183 2.61985Q8.55114 2.72017 8.45792 2.88441Q8.3647 3.04865 8.35405 3.24219ZM10.8825 4.84375L10.8825 2.11648L11.3956 2.11648L11.3956 2.54972L11.424 2.54972Q11.4986 2.32955 11.6877 2.20259Q11.8768 2.07564 12.1165 2.07564Q12.168 2.07564 12.2354 2.07919Q12.3029 2.08274 12.342 2.08807L12.342 2.59588Q12.31 2.587 12.2292 2.57546Q12.1484 2.56392 12.065 2.56392Q11.7827 2.56392 11.598 2.73704Q11.4134 2.91016 11.4134 3.17827L11.4134 4.84375L10.8825 4.84375ZM13.8477 5.9233Q13.3594 5.9233 13.0779 5.73952Q12.7965 5.55575 12.6882 5.3054L13.1445 5.11719Q13.1925 5.19531 13.2733 5.2832Q13.354 5.37109 13.4934 5.43324Q13.6328 5.49538 13.853 5.49538Q14.1548 5.49538 14.3519 5.34979Q14.549 5.20419 14.549 4.88281L14.549 4.34659L14.5153 4.34659Q14.4673 4.43359 14.3786 4.54013Q14.2898 4.64666 14.1326 4.72479Q13.9755 4.80291 13.7251 4.80291Q13.4038 4.80291 13.1454 4.6511Q12.8871 4.49929 12.7362 4.20188Q12.5852 3.90447 12.5852 3.46946Q12.5852 3.03445 12.7335 2.72372Q12.8817 2.413 13.141 2.24698Q13.4002 2.08097 13.7287 2.08097Q13.9826 2.08097 14.1397 2.16531Q14.2969 2.24964 14.3848 2.36151Q14.4727 2.47337 14.5188 2.55859L14.5579 2.55859L14.5579 2.11648L15.0781 2.11648L15.0781 4.90412Q15.0781 5.25391 14.9148 5.48029Q14.7514 5.70668 14.4735 5.81499Q14.1957 5.9233 13.8477 5.9233ZM13.8423 4.36257Q14.1868 4.36257 14.3706 4.12376Q14.5543 3.88494 14.5543 3.46236Q14.5543 3.04865 14.3723 2.79031Q14.1903 2.53196 13.8423 2.53196Q13.6026 2.53196 13.4428 2.65536Q13.283 2.77876 13.2022 2.98917Q13.1214 3.19957 13.1214 3.46236Q13.1214 3.86364 13.3043 4.1131Q13.4872 4.36257 13.8423 4.36257ZM15.7901 4.84375L15.7901 2.11648L16.321 2.11648L16.321 4.84375L15.7901 4.84375ZM16.0582 1.69567Q15.9197 1.69567 15.8212 1.60245Q15.7227 1.50923 15.7227 1.37962Q15.7227 1.24822 15.8212 1.15501Q15.9197 1.06179 16.0582 1.06179Q16.195 1.06179 16.2944 1.15501Q16.3938 1.24822 16.3938 1.37962Q16.3938 1.50923 16.2944 1.60245Q16.195 1.69567 16.0582 1.69567ZM17.5657 3.22443L17.5657 4.84375L17.0348 4.84375L17.0348 2.11648L17.5444 2.11648L17.5444 2.56037L17.5781 2.56037Q17.6722 2.34375 17.8738 2.21236Q18.0753 2.08097 18.3825 2.08097Q18.8015 2.08097 19.0563 2.34197Q19.3111 2.60298 19.3111 3.10902L19.3111 4.84375L18.7802 4.84375L18.7802 3.17294Q18.7802 2.87642 18.6257 2.70863Q18.4712 2.54084 18.2013 2.54084Q17.9244 2.54084 17.745 2.71928Q17.5657 2.89773 17.5657 3.22443ZM21.1648 5.9233Q20.6765 5.9233 20.3951 5.73952Q20.1136 5.55575 20.0053 5.3054L20.4616 5.11719Q20.5096 5.19531 20.5904 5.2832Q20.6712 5.37109 20.8105 5.43324Q20.9499 5.49538 21.1701 5.49538Q21.4719 5.49538 21.669 5.34979Q21.8661 5.20419 21.8661 4.88281L21.8661 4.34659L21.8324 4.34659Q21.7844 4.43359 21.6957 4.54013Q21.6069 4.64666 21.4498 4.72479Q21.2926 4.80291 21.0423 4.80291Q20.7209 4.80291 20.4625 4.6511Q20.2042 4.49929 20.0533 4.20188Q19.9023 3.90447 19.9023 3.46946Q19.9023 3.03445 20.0506 2.72372Q20.1989 2.413 20.4581 2.24698Q20.7173 2.08097 21.0458 2.08097Q21.2997 2.08097 21.4569 2.16531Q21.614 2.24964 21.7019 2.36151Q21.7898 2.47337 21.8359 2.55859L21.875 2.55859L21.875 2.11648L22.3952 2.11648L22.3952 4.90412Q22.3952 5.25391 22.2319 5.48029Q22.0685 5.70668 21.7907 5.81499Q21.5128 5.9233 21.1648 5.9233ZM21.1594 4.36257Q21.5039 4.36257 21.6877 4.12376Q21.8714 3.88494 21.8714 3.46236Q21.8714 3.04865 21.6895 2.79031Q21.5075 2.53196 21.1594 2.53196Q20.9197 2.53196 20.7599 2.65536Q20.6001 2.77876 20.5194 2.98917Q20.4386 3.19957 20.4386 3.46236Q20.4386 3.86364 20.6214 4.1131Q20.8043 4.36257 21.1594 4.36257Z" fill="#000000" transform="translate(0.5 15)" />
        <path d="M0.0397778 3.4318C-0.121063 4.57987 0.21061 5.74322 0.948714 6.61992C1.68682 7.49662 2.75858 8.00021 3.88582 8C3.88582 8 7.18243 8 7.18243 8C9.30146 7.9621 11 6.18366 11 4.00283C11 1.822 9.30146 0.0435538 7.18243 0.00565386C7.18243 0.00565386 5.29787 0 5.29787 0" fill="none" stroke-width="2" stroke="#000000" stroke-linecap="round" stroke-linejoin="round" transform="translate(10 6)" />
        <path d="M10.9602 4.57143C11.1211 3.42255 10.7894 2.25837 10.0513 1.38106C9.31318 0.503741 8.24142 -0.000210285 7.11418 4.76837e-07C7.11418 4.76837e-07 3.81758 0 3.81758 0C1.69854 0.0379229 7.15256e-07 1.81763 0 4C-1.43051e-06 6.18237 1.69854 7.96208 3.81757 8C3.81757 8 5.69664 8 5.69664 8" fill="none" stroke-width="2" stroke="#000000" stroke-linecap="round" stroke-linejoin="round" transform="translate(3 6)" />
    </g>
</svg>