<?xml version="1.0" encoding="utf-8"?>
<svg width="24" height="24" viewBox="0 0 24 24" fill="none" xmlns="http://www.w3.org/2000/svg">
    <g>
        <path d="M1.60511 4.84375L0.316051 4.84375L0.316051 1.20739L1.61577 1.20739Q2.16442 1.20739 2.56126 1.42489Q2.9581 1.6424 3.17116 2.04901Q3.38423 2.45561 3.38423 3.02202Q3.38423 3.5902 3.17028 3.99858Q2.95632 4.40696 2.55771 4.62536Q2.15909 4.84375 1.60511 4.84375ZM1.08487 4.18501L1.57315 4.18501Q2.08629 4.18501 2.35174 3.90803Q2.61719 3.63104 2.61719 3.02202Q2.61719 2.41655 2.35174 2.14134Q2.08629 1.86612 1.57493 1.86612L1.08487 1.86612L1.08487 4.18501ZM3.93821 4.84375L3.93821 2.11648L4.6946 2.11648L4.6946 4.84375L3.93821 4.84375ZM4.31818 1.76491Q4.15128 1.76491 4.03054 1.65217Q3.9098 1.53942 3.9098 1.38139Q3.9098 1.22337 4.03054 1.11151Q4.15128 0.999645 4.31818 0.999645Q4.48686 0.999645 4.6076 1.11151Q4.72834 1.22337 4.72834 1.38139Q4.72834 1.53942 4.6076 1.65217Q4.48686 1.76491 4.31818 1.76491ZM7.84091 2.11648L6.88743 4.84375L6.03516 4.84375L5.08168 2.11648L5.88068 2.11648L6.44709 4.06783L6.4755 4.06783L7.04013 2.11648L7.84091 2.11648ZM9.38033 4.89702Q8.96129 4.89702 8.65767 4.72567Q8.35405 4.55433 8.1907 4.23917Q8.02734 3.92401 8.02734 3.49254Q8.02734 3.07173 8.1907 2.75391Q8.35405 2.43608 8.65146 2.25852Q8.94886 2.08097 9.35014 2.08097Q9.71058 2.08097 10.0009 2.23366Q10.2912 2.38636 10.4616 2.69442Q10.6321 3.00249 10.6321 3.46591L10.6321 3.67365L8.77486 3.67365L8.77486 3.67543Q8.77486 3.98082 8.94176 4.15661Q9.10867 4.33239 9.39276 4.33239Q9.58274 4.33239 9.72124 4.25249Q9.85973 4.17259 9.91655 4.01634L10.6161 4.0625Q10.5362 4.44247 10.2113 4.66974Q9.88636 4.89702 9.38033 4.89702ZM8.77486 3.2049L9.9201 3.2049Q9.91832 2.96165 9.76385 2.80362Q9.60938 2.6456 9.36257 2.6456Q9.11044 2.6456 8.94886 2.80895Q8.78729 2.9723 8.77486 3.2049ZM11.1257 4.84375L11.1257 2.11648L11.859 2.11648L11.859 2.59233L11.8874 2.59233Q11.962 2.33842 12.1378 2.20792Q12.3136 2.07741 12.5426 2.07741Q12.6687 2.07741 12.7805 2.10405L12.7805 2.77521Q12.7273 2.75746 12.6332 2.74592Q12.5391 2.73438 12.4609 2.73438Q12.2106 2.73438 12.0463 2.89151Q11.8821 3.04865 11.8821 3.30078L11.8821 4.84375L11.1257 4.84375ZM14.2702 5.9233Q13.7198 5.9233 13.4055 5.70401Q13.0913 5.48473 13.0238 5.16335L13.7234 5.06925Q13.7695 5.19354 13.9036 5.28675Q14.0376 5.37997 14.288 5.37997Q14.5348 5.37997 14.6955 5.26012Q14.8562 5.14027 14.8562 4.85973L14.8562 4.3608L14.8242 4.3608Q14.7496 4.52947 14.5614 4.66708Q14.3732 4.80469 14.0465 4.80469Q13.7393 4.80469 13.4881 4.66087Q13.2369 4.51705 13.0886 4.2223Q12.9403 3.92756 12.9403 3.47479Q12.9403 3.00959 13.0922 2.70064Q13.244 2.39169 13.4952 2.23633Q13.7464 2.08097 14.0447 2.08097Q14.2738 2.08097 14.4283 2.1582Q14.5827 2.23544 14.6786 2.34908Q14.7745 2.46271 14.8242 2.57457L14.8526 2.57457L14.8526 2.11648L15.6037 2.11648L15.6037 4.87038Q15.6037 5.21839 15.4324 5.45277Q15.261 5.68714 14.9609 5.80522Q14.6609 5.9233 14.2702 5.9233ZM14.2862 4.23651Q14.5597 4.23651 14.7097 4.03409Q14.8597 3.83168 14.8597 3.47124Q14.8597 3.11257 14.7106 2.89773Q14.5614 2.68288 14.2862 2.68288Q14.0057 2.68288 13.8592 2.90305Q13.7127 3.12322 13.7127 3.47124Q13.7127 3.82457 13.8601 4.03054Q14.0075 4.23651 14.2862 4.23651ZM16.2074 4.84375L16.2074 2.11648L16.9638 2.11648L16.9638 4.84375L16.2074 4.84375ZM16.5874 1.76491Q16.4205 1.76491 16.2997 1.65217Q16.179 1.53942 16.179 1.38139Q16.179 1.22337 16.2997 1.11151Q16.4205 0.999645 16.5874 0.999645Q16.756 0.999645 16.8768 1.11151Q16.9975 1.22337 16.9975 1.38139Q16.9975 1.53942 16.8768 1.65217Q16.756 1.76491 16.5874 1.76491ZM18.3239 3.26705L18.3239 4.84375L17.5675 4.84375L17.5675 2.11648L18.2884 2.11648L18.2884 2.59766L18.3203 2.59766Q18.4126 2.35973 18.6248 2.22035Q18.837 2.08097 19.1406 2.08097Q19.5668 2.08097 19.8242 2.35529Q20.0817 2.62962 20.0817 3.10724L20.0817 4.84375L19.3253 4.84375L19.3253 3.24219Q19.3271 2.99183 19.1974 2.85067Q19.0678 2.70952 18.8406 2.70952Q18.6115 2.70952 18.4686 2.856Q18.3256 3.00249 18.3239 3.26705ZM21.9052 5.9233Q21.3548 5.9233 21.0405 5.70401Q20.7262 5.48473 20.6587 5.16335L21.3583 5.06925Q21.4045 5.19354 21.5385 5.28675Q21.6726 5.37997 21.9229 5.37997Q22.1697 5.37997 22.3304 5.26012Q22.4911 5.14027 22.4911 4.85973L22.4911 4.3608L22.4592 4.3608Q22.3846 4.52947 22.1964 4.66708Q22.0082 4.80469 21.6815 4.80469Q21.3743 4.80469 21.123 4.66087Q20.8718 4.51705 20.7235 4.2223Q20.5753 3.92756 20.5753 3.47479Q20.5753 3.00959 20.7271 2.70064Q20.8789 2.39169 21.1301 2.23633Q21.3814 2.08097 21.6797 2.08097Q21.9087 2.08097 22.0632 2.1582Q22.2177 2.23544 22.3136 2.34908Q22.4094 2.46271 22.4592 2.57457L22.4876 2.57457L22.4876 2.11648L23.2386 2.11648L23.2386 4.87038Q23.2386 5.21839 23.0673 5.45277Q22.896 5.68714 22.5959 5.80522Q22.2958 5.9233 21.9052 5.9233ZM21.9212 4.23651Q22.1946 4.23651 22.3446 4.03409Q22.4947 3.83168 22.4947 3.47124Q22.4947 3.11257 22.3455 2.89773Q22.1964 2.68288 21.9212 2.68288Q21.6406 2.68288 21.4941 2.90305Q21.3477 3.12322 21.3477 3.47124Q21.3477 3.82457 21.495 4.03054Q21.6424 4.23651 21.9212 4.23651Z" fill="#000000" transform="translate(0 15)" />
        <path d="M0.0433941 3.86078C-0.13207 5.15236 0.229757 6.46113 1.03496 7.44741C1.84017 8.43369 3.00936 9.00024 4.23907 9C4.23907 9 7.83537 9 7.83537 9C10.147 8.95737 12 6.95661 12 4.50318C12 2.04975 10.147 0.0489979 7.83538 0.00636053C7.83538 0.00636053 5.77949 0 5.77949 0" fill="none" stroke-width="2" stroke="#000000" stroke-linecap="round" stroke-linejoin="round" transform="translate(9.389 4)" />
        <path d="M11.9566 5.14286C12.1321 3.85036 11.7702 2.54067 10.965 1.55369C10.1598 0.566709 8.99065 -0.000236511 7.76093 4.76837e-07C7.76093 4.76837e-07 4.16463 0 4.16463 0C1.85295 0.0426636 7.15256e-07 2.04483 0 4.5C-1.66893e-06 6.95517 1.85295 8.95734 4.16463 9C4.16463 9 6.21452 9 6.21452 9" fill="none" stroke-width="2" stroke="#000000" stroke-linecap="round" stroke-linejoin="round" transform="translate(2 4)" />
    </g>
</svg>