<svg version="1.1" id="Misuse-Outline--Streamline-Carbon.svg" xmlns="http://www.w3.org/2000/svg"
     x="0" y="0" viewBox="-0.5 -0.5 24 24" xml:space="preserve"
     enable-background="new 0 0 32 32" height="24" width="24"><desc>Misuse Outline Streamline Icon: https://streamlinehq.com</desc>
    <title>checkmark</title>
    <path d="M11.5 1.4375C5.89375 1.4375 1.4375 5.89375 1.4375 11.5s4.45625 10.0625 10.0625 10.0625 10.0625 -4.45625 10.0625 -10.0625S17.10625 1.4375 11.5 1.4375zm0 18.6875C6.7562500000000005 20.125 2.875 16.243750000000002 2.875 11.5S6.7562500000000005 2.875 11.5 2.875s8.625 3.88125 8.625 8.625 -3.88125 8.625 -8.625 8.625z"
          stroke-width="1"></path>
    <path id="_Transparent_Rectangle_" d="M0 0h23v23H0Z" fill="none" stroke-width="1"></path>
    <path d="M15.38125 16.53125 11.5 12.65 7.6187499999999995 16.53125 6.46875 15.38125l3.88125 -3.88125L6.46875 7.6187499999999995 7.6187499999999995 6.46875l3.88125 3.88125L15.38125 6.46875l1.1500000000000001 1.1500000000000001 -3.88125 3.88125 3.88125 3.88125z"
          stroke-width="1"></path></svg>