<svg version="1.1" id="Misuse--Streamline-Carbon.svg" xmlns="http://www.w3.org/2000/svg" xmlns:xlink="http://www.w3.org/1999/xlink" x="0" y="0" viewBox="-0.5 -0.5 24 24" xml:space="preserve" enable-background="new 0 0 32 32" height="24" width="24"><desc>Misuse Streamline Icon: https://streamlinehq.com</desc><path id="_Transparent_Rectangle_" d="M0 0h23v23H0Z" fill="none" stroke-width="1"></path><path d="M11.5 1.4375C5.965625 1.4375 1.4375 5.965625 1.4375 11.5s4.528125 10.0625 10.0625 10.0625 10.0625 -4.528125 10.0625 -10.0625S17.034375 1.4375 11.5 1.4375zm3.88125 15.09375L11.5 12.65 7.6187499999999995 16.53125 6.46875 15.38125l3.88125 -3.88125L6.46875 7.6187499999999995 7.6187499999999995 6.46875l3.88125 3.88125L15.38125 6.46875l1.1500000000000001 1.1500000000000001 -3.88125 3.88125 3.88125 3.88125 -1.1500000000000001 1.1500000000000001z" stroke-width="1"></path><path id="inner-path" d="M15.38125 16.53125 11.5 12.65 7.6187499999999995 16.53125 6.46875 15.38125l3.88125 -3.88125L6.46875 7.6187499999999995 7.6187499999999995 6.46875l3.88125 3.88125L15.38125 6.46875l1.1500000000000001 1.1500000000000001 -3.88125 3.88125 3.88125 3.88125 -1.1500000000000001 1.1500000000000001z" opacity="0" fill-opacity="0" stroke-width="1"></path></svg>