<svg id="Rotate-Clockwise-Filled--Streamline-Carbon.svg" xmlns="http://www.w3.org/2000/svg" viewBox="-0.5 -0.5 24 24"
     height="24" width="24">
    <desc>Rotate Clockwise Filled Streamline Icon: https://streamlinehq.com</desc>
    <defs></defs>
    <title>rotate--clockwise--filled</title>
    <path d="M20.125 21.5625H11.5a1.439153125 1.439153125 0 0 1 -1.4375 -1.4375V11.5a1.439153125 1.439153125 0 0 1 1.4375 -1.4375h8.625a1.439153125 1.439153125 0 0 1 1.4375 1.4375v8.625a1.439153125 1.439153125 0 0 1 -1.4375 1.4375Z"
          stroke-width="1"></path>
    <path d="m10.78125 1.4375 -1.0134375 1.0134375L11.6221875 4.3125H7.90625a5.03685625 5.03685625 0 0 0 -5.03125 5.03125v3.59375h1.4375v-3.59375a3.597846875 3.597846875 0 0 1 3.59375 -3.59375h3.7159375l-1.854375 1.8615624999999998L10.78125 8.625l3.59375 -3.59375Z"
          stroke-width="1"></path>
    <path id="_Transparent_Rectangle_" d="M0 0h23v23H0Z" fill="none" stroke-width="1"></path>
</svg>