<svg id="Rotate-360--Streamline-Carbon.svg" xmlns="http://www.w3.org/2000/svg" viewBox="-0.5 -0.5 24 24" height="24" width="24"><desc>Rotate 360 Streamline Icon: https://streamlinehq.com</desc><defs></defs><title>rotate--360</title><path d="m18.6515625 5.4984375000000005 0.003378125 -0.002803125c-0.06598125 -0.07863125 -0.14159375000000002 -0.148134375 -0.21023437499999997 -0.224609375 -0.132321875 -0.147415625 -0.263925 -0.2946875 -0.405015625 -0.43340625 -0.09933125 -0.09760625 -0.205275 -0.18780937499999997 -0.3090625 -0.280815625 -0.13160312500000002 -0.118234375 -0.26284687500000004 -0.23618125 -0.40113437500000004 -0.346725 -0.114425 -0.09192812500000001 -0.23316250000000002 -0.17724375 -0.351828125 -0.263565625 -0.13807187499999998 -0.100625 -0.277078125 -0.19895 -0.42075625 -0.29195625000000003 -0.12527812500000002 -0.081075 -0.253215625 -0.1572625 -0.38251875 -0.23273124999999997q-0.221446875 -0.12836875 -0.449434375 -0.24495c-0.13268125 -0.06770625000000001 -0.2659375 -0.13268125 -0.4025 -0.19406250000000003 -0.15985 -0.07187500000000001 -0.32271875 -0.13756875 -0.48731250000000004 -0.200746875 -0.13613125 -0.051965625 -0.271471875 -0.104578125 -0.410621875 -0.15021874999999998 -0.17702812499999998 -0.058578125 -0.3579375 -0.10738125 -0.539565625 -0.155465625 -0.132825 -0.035434375 -0.26406875 -0.073671875 -0.39919375 -0.102853125 -0.2084375 -0.04556875 -0.421546875 -0.07719374999999999 -0.634871875 -0.1083875 -0.11428125 -0.01653125 -0.226046875 -0.039675 -0.34169375 -0.052325A9.295665625 9.295665625 0 0 0 4.3125 5.536603125V2.875H2.875v5.75h5.75v-1.4375H4.895765625A7.87821875 7.87821875 0 0 1 11.5 3.59375a7.98631875 7.98631875 0 0 1 0.85459375 0.048084375c0.09789374999999999 0.01049375 0.19262500000000002 0.030187500000000003 0.28936875 0.044203124999999996 0.18033437500000002 0.02630625 0.36038125 0.053331250000000004 0.5367625 0.091640625 0.114425 0.02486875 0.225975 0.0575 0.338675 0.08732812499999999 0.153165625 0.04039375 0.30604375 0.08179375 0.455328125 0.13095625 0.118090625 0.039315625 0.23359375000000002 0.083878125 0.34924062499999997 0.12808125 0.13843125 0.053331250000000004 0.27564062500000003 0.10845937500000001 0.41004687500000003 0.168834375 0.115790625 0.052253125 0.229496875 0.10781249999999999 0.342340625 0.1653125q0.192409375 0.097965625 0.37820625 0.206065625c0.10996875 0.064184375 0.21893125 0.129375 0.325665625 0.19823125 0.120678125 0.07827187499999999 0.2377625 0.16114375 0.35376875 0.245309375 0.10105625 0.07374375 0.202471875 0.146409375 0.29971875 0.224609375 0.11614999999999999 0.09300624999999998 0.2268375 0.1923375 0.33781249999999996 0.29202812499999997 0.088046875 0.0790625 0.17810625 0.155825 0.26248750000000004 0.238625 0.11988750000000001 0.1175875 0.231653125 0.24286562499999997 0.343921875 0.36778437500000005A7.9010750000000005 7.9010750000000005 0 1 1 3.59375 11.5H2.15625a9.34375 9.34375 0 1 0 16.4953125 -6.0015624999999995Z" stroke-width="1"></path><path id="_Transparent_Rectangle_" d="M0 0h23v23H0Z" fill="none" stroke-width="1"></path></svg>