<svg id="Rotate--Streamline-Carbon.svg" xmlns="http://www.w3.org/2000/svg" viewBox="-0.5 -0.5 24 24" height="24"
     width="24">
    <desc>Rotate Streamline Icon: https://streamlinehq.com</desc>
    <defs></defs>
    <title>rotate</title>
    <path d="m12.8728125 19.276875 0.25156249999999997 1.4375a9.271875 9.271875 0 0 0 3.0475000000000003 -1.106875l-0.71875 -1.2434375a7.82 7.82 0 0 1 -2.5803125 0.9128125Z"
          stroke-width="1"></path>
    <path d="M17.551875000000003 16.5815625 18.6875 17.501562500000002a9.34375 9.34375 0 0 0 1.61 -2.8103125l-1.3440625000000002 -0.48875a7.90625 7.90625 0 0 1 -1.4015625 2.3790625Z"
          stroke-width="1"></path>
    <path d="M6.828125 19.5859375a9.271875 9.271875 0 0 0 3.0475000000000003 1.106875l0.25156249999999997 -1.4375a7.82 7.82 0 0 1 -2.5803125 -0.9343750000000001Z"
          stroke-width="1"></path>
    <path d="m4.0753125 14.2025 -1.3440625000000002 0.48875A9.34375 9.34375 0 0 0 4.3125 17.501562500000002l0.23 -0.186875 0.876875 -0.71875a7.90625 7.90625 0 0 1 -1.3728125 -2.3790625Z"
          stroke-width="1"></path>
    <path d="M20.84375 11.5a9.2359375 9.2359375 0 0 0 -0.5750000000000001 -3.19125l-1.3440625000000002 0.48875A8.035625 8.035625 0 0 1 19.40625 11.5Z"
          stroke-width="1"></path>
    <path d="M18.6875 5.4984375000000005a9.34375 9.34375 0 0 0 -14.375 0V2.875H2.875v5.75h5.75v-1.4375H4.8946875a7.90625 7.90625 0 0 1 12.6571875 -0.7690625000000001Z"
          stroke-width="1"></path>
    <path id="_Transparent_Rectangle_" d="M0 0h23v23H0Z" fill="none" stroke-width="1"></path>
</svg>