<svg id="Rotate-180--Streamline-Carbon.svg" xmlns="http://www.w3.org/2000/svg" viewBox="-0.5 -0.5 24 24" height="24" width="24"><desc>Rotate 180 Streamline Icon: https://streamlinehq.com</desc><defs></defs><title>rotate--180</title><path d="m10.128121875 19.279390624999998 -0.249190625 1.4144999999999999a9.2687125 9.2687125 0 0 1 -3.0475000000000003 -1.1081687500000001l0.71875 -1.243940625a7.84055625 7.84055625 0 0 0 2.577940625 0.937609375Z" stroke-width="1"></path><path d="m5.4457531249999995 16.580268750000002 -1.10098125 0.9236656249999999a9.330165625 9.330165625 0 0 1 -1.6171875 -2.811175l1.349453125 -0.49119375a7.89245 7.89245 0 0 0 1.368715625 2.378703125Z" stroke-width="1"></path><path d="M16.168353125 19.5859375a9.2687125 9.2687125 0 0 1 -3.0475000000000003 1.1081687500000001l-0.249190625 -1.4144999999999999a7.84055625 7.84055625 0 0 0 2.578084375 -0.937609375Z" stroke-width="1"></path><path d="m18.922603125000002 14.201565625 1.349453125 0.49119375a9.330165625 9.330165625 0 0 1 -1.6168281249999998 2.811175l-0.223890625 -0.18788125000000003 -0.876875 -0.735784375a7.893456250000001 7.893456250000001 0 0 0 1.36835625 -2.378559375Z" stroke-width="1"></path><path d="M9.819275 3.7776781249999996c-0.114425 0.02486875 -0.225975 0.0575 -0.338675 0.08732812499999999 -0.153165625 0.04039375 -0.30604375 0.08179375 -0.455328125 0.13095625 -0.118090625 0.039315625 -0.23359375000000002 0.083878125 -0.34924062499999997 0.12808125 -0.13843125 0.053331250000000004 -0.27564062500000003 0.10845937500000001 -0.4096875 0.168834375 -0.115790625 0.052253125 -0.229496875 0.10781249999999999 -0.342340625 0.1653125q-0.192409375 0.097965625 -0.37820625 0.206065625c-0.10996875 0.064184375 -0.21893125 0.129375 -0.325665625 0.19823125 -0.120678125 0.07827187499999999 -0.2377625 0.16114375 -0.35376875 0.245309375 -0.10105625 0.07374375 -0.202471875 0.146409375 -0.29971875 0.224609375 -0.11614999999999999 0.09300624999999998 -0.2268375 0.1923375 -0.33781249999999996 0.29202812499999997 -0.088046875 0.0790625 -0.17810625 0.155825 -0.26248750000000004 0.238625 -0.11988750000000001 0.1175875 -0.231653125 0.24286562499999997 -0.343921875 0.36778437500000005A7.865856249999999 7.865856249999999 0 0 0 3.59375 11.5H2.15625a9.297965625 9.297965625 0 0 1 2.1921874999999997 -6.0015624999999995l-0.003378125 -0.002803125c0.06598125 -0.07863125 0.14159375000000002 -0.148134375 0.21023437499999997 -0.224609375 0.132321875 -0.147415625 0.263925 -0.2946875 0.405015625 -0.43340625 0.09933125 -0.09760625 0.205275 -0.18780937499999997 0.3090625 -0.280815625 0.13160312500000002 -0.118234375 0.26284687500000004 -0.23618125 0.40113437500000004 -0.346725 0.114425 -0.09192812500000001 0.23316250000000002 -0.17724375 0.351828125 -0.263565625 0.13807187499999998 -0.100625 0.277078125 -0.19895 0.42075625 -0.29195625000000003 0.12527812500000002 -0.081075 0.253215625 -0.1572625 0.38251875 -0.23273124999999997q0.221446875 -0.12836875 0.449434375 -0.24495c0.13268125 -0.06770625000000001 0.2659375 -0.13268125 0.4025 -0.19406250000000003 0.15985 -0.07187500000000001 0.32271875 -0.13756875 0.48731250000000004 -0.200746875 0.13613125 -0.051965625 0.271471875 -0.104578125 0.410621875 -0.15021874999999998 0.17702812499999998 -0.058578125 0.3579375 -0.10738125 0.539565625 -0.155465625 0.132825 -0.035434375 0.26406875 -0.073671875 0.39919375 -0.102853125 0.2084375 -0.04556875 0.421546875 -0.07719374999999999 0.634871875 -0.1083875 0.11428125 -0.01653125 0.226046875 -0.039675 0.34169375 -0.052325A9.295665625 9.295665625 0 0 1 18.6875 5.536603125V2.875h1.4375v5.75h-5.75v-1.4375h3.7292343750000003A7.87821875 7.87821875 0 0 0 11.5 3.59375a7.98631875 7.98631875 0 0 0 -0.85459375 0.048084375c-0.09789374999999999 0.01049375 -0.19262500000000002 0.030187500000000003 -0.28936875 0.044203124999999996 -0.18033437500000002 0.02630625 -0.36038125 0.053331250000000004 -0.5367625 0.091640625Z" stroke-width="1"></path><path id="_Transparent_Rectangle_" d="M0 0h23v23H0Z" fill="none" stroke-width="1"></path></svg>