<svg id="Rotate-Counterclockwise-Alt--Streamline-Carbon.svg" xmlns="http://www.w3.org/2000/svg"
     viewBox="-0.5 -0.5 24 24" height="24" width="24">
    <desc>Rotate Counterclockwise Alt Streamline Icon: https://streamlinehq.com</desc>
    <defs></defs>
    <title>rotate--counterclockwise--alt</title>
    <path d="M10.0625 20.125V11.5a1.439153125 1.439153125 0 0 1 1.4375 -1.4375h8.625a1.439153125 1.439153125 0 0 1 1.4375 1.4375v8.625a1.439153125 1.439153125 0 0 1 -1.4375 1.4375H11.5a1.439153125 1.439153125 0 0 1 -1.4375 -1.4375Zm1.4375 -8.625 -0.0008624999999999999 8.625H20.125V11.5Z"
          stroke-width="1"></path>
    <path d="m1.4375 10.78125 1.0134375 -1.0134375L4.3125 11.6221875V7.90625a5.03685625 5.03685625 0 0 1 5.03125 -5.03125h3.59375v1.4375h-3.59375a3.597846875 3.597846875 0 0 0 -3.59375 3.59375v3.7159375l1.8615624999999998 -1.854375L8.625 10.78125l-3.59375 3.59375Z"
          stroke-width="1"></path>
    <path id="_Transparent_Rectangle_" d="M0 0h23v23H0Z" fill="none" stroke-width="1"></path>
</svg>