<svg id="Rotate-Counterclockwise-Filled--Streamline-Carbon.svg" xmlns="http://www.w3.org/2000/svg" viewBox="-0.5 -0.5 24 24" height="24" width="24"><desc>Rotate Counterclockwise Filled Streamline Icon: https://streamlinehq.com</desc><defs></defs><title>rotate--counterclockwise--filled</title><path d="M1.4375 20.125V11.5a1.439153125 1.439153125 0 0 1 1.4375 -1.4375h8.625a1.439153125 1.439153125 0 0 1 1.4375 1.4375v8.625a1.439153125 1.439153125 0 0 1 -1.4375 1.4375H2.875a1.439153125 1.439153125 0 0 1 -1.4375 -1.4375Z" stroke-width="1"></path><path d="m12.21875 1.4375 1.0134375 1.0134375L11.3778125 4.3125H15.09375a5.03685625 5.03685625 0 0 1 5.03125 5.03125v3.59375h-1.4375v-3.59375a3.597846875 3.597846875 0 0 0 -3.59375 -3.59375h-3.7159375l1.854375 1.8615624999999998L12.21875 8.625l-3.59375 -3.59375Z" stroke-width="1"></path><path id="_Transparent_Rectangle_" d="M0 0h23v23H0Z" fill="none" stroke-width="1"></path></svg>