<svg id="Rotate-Clockwise-Alt-Filled--Streamline-Carbon.svg" xmlns="http://www.w3.org/2000/svg" viewBox="-0.5 -0.5 24 24" height="24" width="24"><desc>Rotate Clockwise Alt Filled Streamline Icon: https://streamlinehq.com</desc><defs></defs><title>rotate--clockwise--alt--filled</title><path d="M11.5 21.5625H2.875a1.439153125 1.439153125 0 0 1 -1.4375 -1.4375V11.5a1.439153125 1.439153125 0 0 1 1.4375 -1.4375h8.625a1.439153125 1.439153125 0 0 1 1.4375 1.4375v8.625a1.439153125 1.439153125 0 0 1 -1.4375 1.4375Z" stroke-width="1"></path><path d="m21.5625 10.78125 -1.0134375 -1.0134375L18.6875 11.6221875V7.90625a5.03685625 5.03685625 0 0 0 -5.03125 -5.03125h-3.59375v1.4375h3.59375a3.597846875 3.597846875 0 0 1 3.59375 3.59375v3.7159375l-1.8615624999999998 -1.854375L14.375 10.78125l3.59375 3.59375Z" stroke-width="1"></path><path id="_Transparent_Rectangle_" d="M0 0h23v23H0Z" fill="none" stroke-width="1"></path></svg>