<svg id="Select-01--Streamline-Carbon.svg" xmlns="http://www.w3.org/2000/svg" viewBox="-0.5 -0.5 24 24" height="24"
     width="24">
    <desc>Select 01 Streamline Icon: https://streamlinehq.com</desc>
    <defs></defs>
    <path d="M8.625 4.3125 5.75 4.3125l0 -2.875 -1.4375 0 0 2.875 -2.875 0 0 1.4375 2.875 0 0 2.875 1.4375 0 0 -2.875 2.875 0 0 -1.4375z"
          stroke-width="1"></path>
    <path d="M11.5 4.3125h2.875v1.4375h-2.875Z" stroke-width="1"></path>
    <path d="M17.25 4.3125v1.4375h2.875v2.875h1.4375V5.75a1.4375 1.4375 0 0 0 -1.4375 -1.4375Z" stroke-width="1"></path>
    <path d="M4.3125 11.5h1.4375v2.875H4.3125Z" stroke-width="1"></path>
    <path d="M5.75 20.125v-2.875H4.3125v2.875a1.4375 1.4375 0 0 0 1.4375 1.4375h2.875v-1.4375Z" stroke-width="1"></path>
    <path d="M20.125 11.5h1.4375v2.875h-1.4375Z" stroke-width="1"></path>
    <path d="M11.5 20.125h2.875v1.4375h-2.875Z" stroke-width="1"></path>
    <path d="M20.125 17.25v2.875h-2.875v1.4375h2.875a1.4375 1.4375 0 0 0 1.4375 -1.4375v-2.875Z"
          stroke-width="1"></path>
    <path id="_Transparent_Rectangle_" d="M0 0h23v23H0Z" fill="none" stroke-width="1"></path>
</svg>