<svg version="1.1" id="Settings-Adjust--Streamline-Carbon.svg" xmlns="http://www.w3.org/2000/svg"
     xmlns:xlink="http://www.w3.org/1999/xlink" x="0" y="0" viewBox="-0.5 -0.5 24 24" xml:space="preserve"
     enable-background="new 0 0 32 32" height="24" width="24"><desc>Settings Adjust Streamline Icon: https://streamlinehq.com</desc>
    <title>settings--adjust</title>
    <path d="M21.5625 5.75h-2.946875c-0.359375 -1.653125 -1.796875 -2.875 -3.521875 -2.875s-3.1625 1.221875 -3.521875 2.875H1.4375v1.4375h10.134375c0.359375 1.653125 1.796875 2.875 3.521875 2.875s3.1625 -1.221875 3.521875 -2.875H21.5625V5.75zm-6.46875 2.875c-1.221875 0 -2.15625 -0.9343750000000001 -2.15625 -2.15625s0.9343750000000001 -2.15625 2.15625 -2.15625 2.15625 0.9343750000000001 2.15625 2.15625 -0.9343750000000001 2.15625 -2.15625 2.15625z"
          stroke-width="1"></path>
    <path d="M1.4375 17.25h2.946875c0.359375 1.653125 1.796875 2.875 3.521875 2.875s3.1625 -1.221875 3.521875 -2.875H21.5625v-1.4375H11.428125c-0.359375 -1.653125 -1.796875 -2.875 -3.521875 -2.875s-3.1625 1.221875 -3.521875 2.875H1.4375v1.4375zm6.46875 -2.875c1.221875 0 2.15625 0.9343750000000001 2.15625 2.15625s-0.9343750000000001 2.15625 -2.15625 2.15625 -2.15625 -0.9343750000000001 -2.15625 -2.15625 0.9343750000000001 -2.15625 2.15625 -2.15625z"
          stroke-width="1"></path>
    <path id="_Transparent_Rectangle_" d="M0 0h23v23H0Z" fill="none" stroke-width="1"></path></svg>