<svg id="Shape-Except--Streamline-Carbon.svg" xmlns="http://www.w3.org/2000/svg" viewBox="-0.5 -0.5 24 24" height="24"
     width="24">
    <desc>Shape Except Streamline Icon: https://streamlinehq.com</desc>
    <defs></defs>
    <path d="M20.125 7.1875h-4.3125V2.875a1.439153125 1.439153125 0 0 0 -1.4375 -1.4375H2.875a1.439296875 1.439296875 0 0 0 -1.4375 1.4375v11.5a1.439296875 1.439296875 0 0 0 1.4375 1.4375h4.3125v4.3125a1.4375 1.4375 0 0 0 1.4375 1.4375h11.5a1.4375 1.4375 0 0 0 1.4375 -1.4375V8.625a1.4375 1.4375 0 0 0 -1.4375 -1.4375ZM8.625 14.375v-5.75h5.75v5.75ZM2.8741375000000002 2.875H14.375v4.3125h-5.75a1.439153125 1.439153125 0 0 0 -1.4375 1.4375v5.75H2.875Z"
          stroke-width="1"></path>
    <path id="_Transparent_Rectangle_" d="M0 0h23v23H0Z" fill="none" stroke-width="1"></path>
</svg>