<svg id="Shape-Exclude--Streamline-Carbon.svg" xmlns="http://www.w3.org/2000/svg" viewBox="-0.5 -0.5 24 24" height="24"
     width="24">
    <desc>Shape Exclude Streamline Icon: https://streamlinehq.com</desc>
    <defs></defs>
    <path d="M8.625 7.1875h7.1875V2.875a1.4375 1.4375 0 0 0 -1.4375 -1.4375H2.875a1.4375 1.4375 0 0 0 -1.4375 1.4375v11.5a1.4375 1.4375 0 0 0 1.4375 1.4375h4.3125V8.625a1.4375 1.4375 0 0 1 1.4375 -1.4375Z"
          stroke-width="1"></path>
    <path d="M20.125 7.1875h-4.3125v7.1875a1.4375 1.4375 0 0 1 -1.4375 1.4375H7.1875v4.3125a1.4375 1.4375 0 0 0 1.4375 1.4375h11.5a1.4375 1.4375 0 0 0 1.4375 -1.4375V8.625a1.4375 1.4375 0 0 0 -1.4375 -1.4375Z"
          stroke-width="1"></path>
    <path id="_Transparent_Rectangle_" d="M0 0h23v23H0Z" fill="none" stroke-width="1"></path>
</svg>