<svg id="Shape-Intersect--Streamline-Carbon.svg" xmlns="http://www.w3.org/2000/svg" viewBox="-0.5 -0.5 24 24" height="24" width="24"><desc>Shape Intersect Streamline Icon: https://streamlinehq.com</desc><defs></defs><path d="M20.125 7.1875h-4.3125V2.875a1.439296875 1.439296875 0 0 0 -1.4375 -1.4375H2.875a1.439296875 1.439296875 0 0 0 -1.4375 1.4375v11.5a1.439296875 1.439296875 0 0 0 1.4375 1.4375h4.3125v4.3125a1.439296875 1.439296875 0 0 0 1.4375 1.4375h11.5a1.439296875 1.439296875 0 0 0 1.4375 -1.4375V8.625a1.439296875 1.439296875 0 0 0 -1.4375 -1.4375ZM2.875 14.375V2.875h11.5v4.3125h-5.75a1.439296875 1.439296875 0 0 0 -1.4375 1.4375v5.75Zm5.75 5.75v-4.3125h5.75a1.439296875 1.439296875 0 0 0 1.4375 -1.4375v-5.75h4.3125v11.5Z" stroke-width="1"></path><path id="_Transparent_Rectangle_" d="M0 0h23v23H0Z" fill="none" stroke-width="1"></path></svg>