<svg version="1.1" id="Side-Panel-Open--Streamline-Carbon.svg" xmlns="http://www.w3.org/2000/svg"
     xmlns:xlink="http://www.w3.org/1999/xlink" x="0" y="0" viewBox="-0.5 -0.5 24 24" xml:space="preserve"
     enable-background="new 0 0 32 32" height="24" width="24"><desc>Side Panel Open Streamline Icon: https://streamlinehq.com</desc>
    <path d="M20.125 2.875H2.875c-0.790625 0 -1.4375 0.646875 -1.4375 1.4375v14.375c0 0.790625 0.646875 1.4375 1.4375 1.4375h17.25c0.790625 0 1.4375 -0.646875 1.4375 -1.4375V4.3125c0 -0.790625 -0.646875 -1.4375 -1.4375 -1.4375zM7.1875 18.6875H2.875V4.3125h4.3125v14.375zm12.9375 0H8.625v-6.46875h7.33125l-2.5875 2.5875L14.375 15.8125l4.3125 -4.3125 -4.3125 -4.3125 -1.0062499999999999 1.0062499999999999 2.5875 2.5875H8.625V4.3125h11.5v14.375z"
          stroke-width="1"></path>
    <path id="_x3C_Transparent_Rectangle_x3E__589_" d="M0 0h23v23H0Z" fill="none" stroke-width="1"></path></svg>