<svg id="Transpose--Streamline-Carbon.svg" xmlns="http://www.w3.org/2000/svg" viewBox="-0.5 -0.5 24 24" height="24" width="24"><desc>Transpose Streamline Icon: https://streamlinehq.com</desc><defs></defs><path d="M13.65625 18.6875h-3.59375v-1.4375h3.59375a3.597703125 3.597703125 0 0 0 3.59375 -3.59375v-3.59375h1.4375v3.59375a5.03685625 5.03685625 0 0 1 -5.03125 5.03125Z" stroke-width="1"></path><path d="M5.75 21.5625H2.875a1.439153125 1.439153125 0 0 1 -1.4375 -1.4375V10.0625a1.439153125 1.439153125 0 0 1 1.4375 -1.4375h2.875a1.439153125 1.439153125 0 0 1 1.4375 1.4375v10.0625a1.439153125 1.439153125 0 0 1 -1.4375 1.4375ZM2.875 10.0625v10.0625h2.875V10.0625Z" stroke-width="1"></path><path d="M20.125 7.1875H10.0625a1.439153125 1.439153125 0 0 1 -1.4375 -1.4375V2.875a1.439153125 1.439153125 0 0 1 1.4375 -1.4375h10.0625a1.439153125 1.439153125 0 0 1 1.4375 1.4375v2.875a1.439153125 1.439153125 0 0 1 -1.4375 1.4375ZM10.0625 2.875v2.875h10.0625V2.875Z" stroke-width="1"></path><path id="_Transparent_Rectangle_" d="M0 0h23v23H0Z" fill="none" stroke-width="1"></path></svg>