<svg id="Triangle-Left-Outline--Streamline-Carbon.svg" xmlns="http://www.w3.org/2000/svg" viewBox="0 0 32 32" height="24" width="24" stroke-width="1"><desc>Triangle Left Outline Streamline Icon: https://streamlinehq.com</desc><defs></defs><path d="M27.5117 2.1245 3.5249 15.144C3.1811 15.3305 3 15.6652 3 16c0 .3345.1812.6689.5249.8555L27.5117 29.875c.1582.0862.3257.1255.4883.125.5229-.0017 1-.4114 1-.9805V2.9802c0-.5691-.4771-.9788-1-.9802-.1626-.0005-.3301.0386-.4883.1245ZM27 27.323 6.1323 16 27 4.677v22.646Z" stroke-width="0"></path><path id="_Transparent_Rectangle_" transform="rotate(90 16 16)" d="M0 0h32v32H0Z" stroke-width="0" fill="none"></path></svg>