<svg id="Triangle-Right-Outline--Streamline-Carbon.svg" xmlns="http://www.w3.org/2000/svg" viewBox="0 0 32 32"
     height="24" width="24" stroke-width="1">
    <desc>Triangle Right Outline Streamline Icon: https://streamlinehq.com</desc>
    <defs></defs>
    <path d="M4.4883 29.8755 28.4751 16.856c.3438-.1865.5249-.5212.5249-.856 0-.3345-.1812-.6689-.5249-.8555L4.4883 2.125C4.3301 2.0388 4.1626 1.9995 4 2c-.5229.0017-1 .4114-1 .9805v26.0393c0 .5691.4771.9788 1 .9802.1626.0005.3301-.0386.4883-.1245ZM5 4.677 25.8677 16 5 27.323V4.677Z"
          stroke-width="0"></path>
    <path id="_Transparent_Rectangle_" transform="rotate(-90 16 16)" d="M0 0h32v32H0Z" stroke-width="0"
          fill="none"></path>
</svg>