<svg id="Triangle-Outline--Streamline-Carbon.svg" xmlns="http://www.w3.org/2000/svg" viewBox="0 0 32 32" height="24"
     width="24" stroke-width="1">
    <desc>Triangle Outline Streamline Icon: https://streamlinehq.com</desc>
    <defs></defs>
    <path d="M29.8755 27.5117 16.856 3.5249C16.6695 3.1811 16.3348 3 16 3c-.3345 0-.6689.1812-.8555.5249L2.125 27.5117c-.0862.1582-.1255.3257-.125.4883.0017.5229.4114 1 .9805 1h26.0393c.5691 0 .9788-.4771.9802-1 .0005-.1626-.0386-.3301-.1245-.4883ZM4.677 27 16 6.1323 27.323 27H4.677Z"
          stroke-width="0"></path>
    <path id="_Transparent_Rectangle_" transform="rotate(180 16 16)" d="M0 0h32v32H0Z" stroke-width="0"
          fill="none"></path>
</svg>