<svg id="Tuning--Streamline-Carbon.svg" xmlns="http://www.w3.org/2000/svg" viewBox="-0.5 -0.5 24 24" height="24" width="24"><desc>Tuning Streamline Icon: https://streamlinehq.com</desc><defs></defs><path d="M17.25 21.5625v-2.946875c1.653125 -0.359375 2.875 -1.796875 2.875 -3.521875 0 -1.7249999999999999 -1.221875 -3.1625 -2.875 -3.521875V1.4375l-1.4375 0v10.134375c-1.653125 0.359375 -2.875 1.796875 -2.875 3.521875 0 1.7249999999999999 1.221875 3.1625 2.875 3.521875V21.5625l1.4375 0Zm-2.875 -6.46875c0 -1.221875 0.9343750000000001 -2.15625 2.15625 -2.15625s2.15625 0.9343750000000001 2.15625 2.15625 -0.9343750000000001 2.15625 -2.15625 2.15625 -2.15625 -0.9343750000000001 -2.15625 -2.15625Z" stroke-width="1"></path><path d="M5.75 1.4375v2.946875c-1.653125 0.359375 -2.875 1.796875 -2.875 3.521875 0 1.7249999999999999 1.221875 3.1625 2.875 3.521875V21.5625l1.4375 0V11.428125c1.653125 -0.359375 2.875 -1.796875 2.875 -3.521875 0 -1.7249999999999999 -1.221875 -3.1625 -2.875 -3.521875V1.4375L5.75 1.4375Zm2.875 6.46875c0 1.221875 -0.9343750000000001 2.15625 -2.15625 2.15625s-2.15625 -0.9343750000000001 -2.15625 -2.15625 0.9343750000000001 -2.15625 2.15625 -2.15625 2.15625 0.9343750000000001 2.15625 2.15625Z" stroke-width="1"></path><g id="_Transparent_Rectangle_"><path d="M0 0h23v23H0Z" fill="none" stroke-width="1"></path></g></svg>