<svg xmlns="http://www.w3.org/2000/svg" width="96" height="96" fill="none" viewBox="0 0 96 96" id="wifi">
  <path stroke="#000" stroke-linecap="round" stroke-width="6" d="M82 39C77.5351 34.5614 72.2344 31.0406 66.4007 28.6385 60.5669 26.2364 54.3144 25 48 25 41.6856 25 35.4331 26.2364 29.5993 28.6385 23.7656 31.0406 18.4649 34.5615 14 39M69 50C66.2422 47.1466 62.9683 44.8832 59.3651 43.339 55.7619 41.7948 51.9001 41 48 41 44.0999 41 40.2381 41.7948 36.6349 43.339 33.0317 44.8832 29.7578 47.1466 27 50M59 62C57.5555 60.4148 55.8405 59.1574 53.9532 58.2995 52.0658 57.4416 50.0429 57 48 57 45.9571 57 43.9342 57.4416 42.0468 58.2995 40.1595 59.1574 38.4445 60.4148 37 62"></path>
  <circle cx="48" cy="72" r="4" fill="#000"></circle>
</svg>
