<svg xmlns="http://www.w3.org/2000/svg" width="96" height="96" fill="none" viewBox="0 0 96 96" id="search-wifi">
  <path stroke="#000" stroke-linecap="round" stroke-width="6" d="M82 39.0002C77.5351 34.5616 72.2344 31.0408 66.4007 28.6387M29.5993 28.6387C23.7656 31.0408 18.4649 34.5617 14 39.0002M69 49.9998C66.2422 47.1465 62.9683 44.8831 59.3651 43.3389M36.6349 43.3389C33.0317 44.8831 29.7578 47.1465 27 49.9998M59 62C57.5555 60.4148 55.8405 59.1574 53.9532 58.2995 52.0658 57.4416 50.0429 57 48 57 45.9571 57 43.9342 57.4416 42.0468 58.2995 40.1595 59.1574 38.4445 60.4148 37 62"></path>
  <circle cx="48" cy="72" r="4" fill="#000"></circle>
  <circle cx="48" cy="23" r="9" stroke="#000" stroke-width="5"></circle>
  <path stroke="#000" stroke-linecap="round" stroke-width="5" d="M48 32L48 44"></path>
</svg>
