<svg xmlns="http://www.w3.org/2000/svg" width="24" height="24" viewBox="0 0 24 24" fill="none" stroke="currentColor"
     stroke-width="2" stroke-linecap="round" stroke-linejoin="round" class="feather feather-wifi-reconnecting-center">

    <defs>
        <mask id="cut-center">
            <rect x="0" y="0" width="24" height="24" fill="white"/>
            <circle cx="12" cy="12" r="5.0" fill="black"/>
        </mask>
    </defs>

    <g mask="url(#cut-center)">
        <path d="M5 12.55a11 11 0 0 1 14.08 0"></path>
        <path d="M1.42 9a16 16 0 0 1 21.16 0"></path>
        <path d="M8.53 16.11a6 6 0 0 1 6.95 0"></path>
    </g>
    <!-- keep the dot at the bottom (not masked) -->
    <line x1="12" y1="20" x2="12.01" y2="20"></line>
    

    <!-- clockwise top-right arc with arrow -->
    <path d="M12 8a4 4 0 0 1 3.5 2"></path>
    <polyline points="14.8,9.0 15.8,10.2 14.2,10.2"></polyline>
    <!-- clockwise bottom-left arc with arrow -->
    <path d="M12 16a4 4 0 0 1-3.5-2"></path>
    <polyline points="9.2,15.0 8.2,13.8 9.8,13.8"></polyline>

</svg>