<svg id="Zoom-Out-Area--Streamline-Carbon.svg" xmlns="http://www.w3.org/2000/svg" viewBox="-0.5 -0.5 24 24" height="24"
     width="24">
    <desc>Zoom Out Area Streamline Icon: https://streamlinehq.com</desc>
    <defs></defs>
    <path d="M11.5 13.65625h5.75v1.4375h-5.75Z" stroke-width="1"></path>
    <path d="m22.28125 21.264865625 -3.3698593750000003 -3.3697874999999997a5.770125 5.770125 0 1 0 -1.0163125 1.0163125L21.264865625 22.28125ZM14.375 18.6875a4.3125 4.3125 0 1 1 4.3125 -4.3125 4.317243749999999 4.317243749999999 0 0 1 -4.3125 4.3125Z"
          stroke-width="1"></path>
    <path d="M2.875 5.75H1.4375V2.875a1.439009375 1.439009375 0 0 1 1.4375 -1.4375h2.875v1.4375H2.875Z"
          stroke-width="1"></path>
    <path d="M18.6875 5.75h-1.4375V2.875h-2.875V1.4375h2.875a1.439009375 1.439009375 0 0 1 1.4375 1.4375Z"
          stroke-width="1"></path>
    <path d="M8.625 1.4375h2.875v1.4375h-2.875Z" stroke-width="1"></path>
    <path d="M5.75 18.6875H2.875a1.439009375 1.439009375 0 0 1 -1.4375 -1.4375v-2.875h1.4375v2.875h2.875Z"
          stroke-width="1"></path>
    <path d="M1.4375 8.625h1.4375v2.875H1.4375Z" stroke-width="1"></path>
    <path id="_Transparent_Rectangle_" d="M0 0h23v23H0Z" fill="none" stroke-width="1"></path>
</svg>