<?xml version="1.0" encoding="utf-8"?>
<svg width="48" height="48" viewBox="0 0 48 48" fill="none" xmlns="http://www.w3.org/2000/svg">
    <g id="Light" fill="none" fill-opacity="1" stroke-dasharray="none" stroke="none" stroke-opacity="1">


        <path id="Button"
              d="M 27.925553 27.738292 C 27.176528 28.81829 26.329324 30.038717 26.277308 31.716164 C 26.01983 31.997653 25.101105 32.455313 24.002276 32.455313 C 22.902796 32.455313 21.98342 31.997653 21.726593 31.714887 C 21.674577 30.036802 20.826073 28.816377 20.075748 27.737015 C 19.238947 26.533185 18.44896 25.396377 18.44896 23.362121 C 18.44896 20.528717 20.939207 18.223185 23.999675 18.223185 C 27.060793 18.223185 29.55104 20.528717 29.55104 23.362121 C 29.55104 25.397015 28.761053 26.534462 27.925553 27.738292 Z"
              fill="#68bc36"/>

        <path id="ButtonOutline"
              d="M 24 16.307872 C 19.848505 16.307872 16.481795 19.473191 16.481795 23.378298 C 16.481795 28.015532 19.762029 29.19766 19.762029 31.895745 C 19.762029 32.562766 20.281534 33.18319 21.061769 33.638936 C 20.89857 33.77234 20.807542 33.91851 20.807542 34.071702 C 20.807542 34.277234 20.972042 34.46936 21.254876 34.634043 C 20.989597 34.79553 20.8355 34.981277 20.8355 35.179787 C 20.8355 35.380213 20.992848 35.567872 21.26398 35.73064 C 20.986996 35.894043 20.825748 36.084894 20.825748 36.287234 C 20.825748 36.534894 21.06372 36.76149 21.461638 36.945957 C 21.307542 37.08319 21.219116 37.235106 21.219116 37.39468 C 21.219116 37.86702 21.96879 38.26851 23.022757 38.42936 C 23.208062 38.766383 23.583875 39 24.022107 39 C 24.459688 39 24.83485 38.7683 25.020156 38.432553 C 26.084525 38.274255 26.842653 37.870213 26.842653 37.396596 C 26.842653 37.238936 26.757477 37.088936 26.606632 36.953617 C 27.013004 36.767872 27.255527 36.538085 27.255527 36.28851 C 27.255527 36.088085 27.09883 35.899787 26.827048 35.73766 C 27.10338 35.573617 27.26528 35.384043 27.26528 35.181702 C 27.26528 34.97617 27.10013 34.784043 26.817945 34.618723 C 27.084525 34.457872 27.23797 34.27149 27.23797 34.07298 C 27.23797 33.914043 27.139792 33.764043 26.96424 33.627447 C 27.73212 33.17234 28.242523 32.558298 28.242523 31.89702 C 28.242523 29.19766 31.518856 28.01617 31.518856 23.379574 C 31.518205 19.473191 28.152146 16.307872 24 16.307872 Z M 27.925878 27.75383 C 27.176853 28.83383 26.32965 30.054255 26.277633 31.731702 C 26.020156 32.01319 25.10143 32.47085 24.0026 32.47085 C 22.90312 32.47085 21.983745 32.01319 21.726918 31.730426 C 21.674902 30.05234 20.826398 28.831915 20.076073 27.752553 C 19.239272 26.548723 18.449285 25.411915 18.449285 23.37766 C 18.449285 20.544255 20.939532 18.238723 24 18.238723 C 27.061118 18.238723 29.551365 20.544255 29.551365 23.37766 C 29.551365 25.412553 28.76138 26.55 27.925878 27.75383 Z"
              fill="black"/>

    </g>
</svg>