<?xml version="1.0" encoding="utf-8"?>
<svg width="48" height="48" viewBox="0 0 48 48" fill="none" xmlns="http://www.w3.org/2000/svg">
    <g transform="translate(24 24) scale(0.50) translate(-24 -24)">
    <g id="Light" fill="none" fill-opacity="1" stroke-dasharray="none" stroke="none" stroke-opacity="1">
      <path id="Button"
              d="M 27.925553 27.738292 C 27.176528 28.81829 26.329324 30.038717 26.277308 31.716164 C 26.01983 31.997653 25.101105 32.455313 24.002276 32.455313 C 22.902796 32.455313 21.98342 31.997653 21.726593 31.714887 C 21.674577 30.036802 20.826073 28.816377 20.075748 27.737015 C 19.238947 26.533185 18.44896 25.396377 18.44896 23.362121 C 18.44896 20.528717 20.939207 18.223185 23.999675 18.223185 C 27.060793 18.223185 29.55104 20.528717 29.55104 23.362121 C 29.55104 25.397015 28.761053 26.534462 27.925553 27.738292 Z"
              fill="#68bc36"/>

        <path id="ButtonOutline"
              d="M 24 16.307872 C 19.848505 16.307872 16.481795 19.473191 16.481795 23.378298 C 16.481795 28.015532 19.762029 29.19766 19.762029 31.895745 C 19.762029 32.562766 20.281534 33.18319 21.061769 33.638936 C 20.89857 33.77234 20.807542 33.91851 20.807542 34.071702 C 20.807542 34.277234 20.972042 34.46936 21.254876 34.634043 C 20.989597 34.79553 20.8355 34.981277 20.8355 35.179787 C 20.8355 35.380213 20.992848 35.567872 21.26398 35.73064 C 20.986996 35.894043 20.825748 36.084894 20.825748 36.287234 C 20.825748 36.534894 21.06372 36.76149 21.461638 36.945957 C 21.307542 37.08319 21.219116 37.235106 21.219116 37.39468 C 21.219116 37.86702 21.96879 38.26851 23.022757 38.42936 C 23.208062 38.766383 23.583875 39 24.022107 39 C 24.459688 39 24.83485 38.7683 25.020156 38.432553 C 26.084525 38.274255 26.842653 37.870213 26.842653 37.396596 C 26.842653 37.238936 26.757477 37.088936 26.606632 36.953617 C 27.013004 36.767872 27.255527 36.538085 27.255527 36.28851 C 27.255527 36.088085 27.09883 35.899787 26.827048 35.73766 C 27.10338 35.573617 27.26528 35.384043 27.26528 35.181702 C 27.26528 34.97617 27.10013 34.784043 26.817945 34.618723 C 27.084525 34.457872 27.23797 34.27149 27.23797 34.07298 C 27.23797 33.914043 27.139792 33.764043 26.96424 33.627447 C 27.73212 33.17234 28.242523 32.558298 28.242523 31.89702 C 28.242523 29.19766 31.518856 28.01617 31.518856 23.379574 C 31.518205 19.473191 28.152146 16.307872 24 16.307872 Z M 27.925878 27.75383 C 27.176853 28.83383 26.32965 30.054255 26.277633 31.731702 C 26.020156 32.01319 25.10143 32.47085 24.0026 32.47085 C 22.90312 32.47085 21.983745 32.01319 21.726918 31.730426 C 21.674902 30.05234 20.826398 28.831915 20.076073 27.752553 C 19.239272 26.548723 18.449285 25.411915 18.449285 23.37766 C 18.449285 20.544255 20.939532 18.238723 24 18.238723 C 27.061118 18.238723 29.551365 20.544255 29.551365 23.37766 C 29.551365 25.412553 28.76138 26.55 27.925878 27.75383 Z"
              fill="black"/>

        <path id="Indicator"
              d="M 24 13.828085 C 24.540962 13.828085 24.983745 13.253617 24.983745 12.55149 L 24.983745 10.276596 C 24.983745 9.574468 24.540962 9 24 9 C 23.459038 9 23.016255 9.574468 23.016255 10.276596 L 23.016255 12.55149 C 23.016255 13.254255 23.459038 13.828085 24 13.828085 Z"
              fill="#68bc36"/>

        <path id="Indicator"
              d="M 18.959038 15.154468 C 19.427828 14.888936 19.517555 14.174043 19.160598 13.566383 L 18.0026 11.595957 C 17.644993 10.98766 16.96879 10.707447 16.5 10.972979 C 16.03121 11.23851 15.940832 11.953404 16.29779 12.561064 L 17.457087 14.53149 C 17.814694 15.139787 18.490247 15.42 18.959038 15.154468 Z"
              fill="#68bc36"/>

        <path id="Indicator"
              d="M 14.63394 17.30234 L 12.628088 16.164894 C 12.008453 15.81383 11.280234 15.902553 11.009753 16.362766 C 10.739272 16.822979 11.024057 17.48617 11.644343 17.837234 L 13.650845 18.97468 C 14.270481 19.325745 14.9987 19.237021 15.26853 18.776809 C 15.538362 18.316596 15.253576 17.653404 14.63394 17.30234 Z"
              fill="#68bc36"/>

        <path id="Indicator"
              d="M 36.356307 29.61383 L 34.349805 28.47702 C 33.73017 28.12532 33.00195 28.214043 32.73212 28.674894 C 32.46164 29.135106 32.745774 29.798298 33.36736 30.14936 L 35.37256 31.28681 C 35.992198 31.637872 36.720416 31.54915 36.990897 31.088936 C 37.26138 30.628085 36.976593 29.964894 36.356307 29.61383 Z"
              fill="#68bc36"/>

        <path id="Indicator"
              d="M 13.918075 23.725532 C 13.918075 23.19383 13.3329 22.759787 12.617685 22.759787 L 10.30039 22.759787 C 9.585176 22.759787 9 23.194468 9 23.725532 C 9 24.256596 9.585176 24.691277 10.30039 24.691277 L 12.617685 24.691277 C 13.3329 24.691277 13.918075 24.256596 13.918075 23.725532 Z"
              fill="#68bc36"/>

        <path id="Indicator"
              d="M 37.69961 22.759787 L 35.382965 22.759787 C 34.6671 22.759787 34.082575 23.194468 34.082575 23.725532 C 34.082575 24.256596 34.6671 24.691277 35.382965 24.691277 L 37.69961 24.691277 C 38.415475 24.691277 39 24.256596 39 23.725532 C 39 23.194468 38.414824 22.759787 37.69961 22.759787 Z"
              fill="#68bc36"/>

        <path id="Indicator"
              d="M 13.650195 28.47702 L 11.643693 29.61383 C 11.024057 29.964894 10.738622 30.628085 11.009103 31.088936 C 11.279584 31.54915 12.007802 31.637234 12.627438 31.28681 L 14.63329 30.14936 C 15.252926 29.798298 15.538362 29.135106 15.26788 28.674894 C 14.99805 28.21532 14.269831 28.12532 13.650195 28.47702 Z"
              fill="#68bc36"/>

        <path id="Indicator"
              d="M 34.349805 18.97468 L 36.356307 17.837234 C 36.975943 17.48617 37.26138 16.822979 36.990897 16.362766 C 36.720416 15.902553 35.992198 15.81383 35.37256 16.164894 L 33.36671 17.30234 C 32.747724 17.653404 32.46164 18.316596 32.73212 18.776809 C 33.00195 19.237021 33.73017 19.325745 34.349805 18.97468 Z"
              fill="#68bc36"/>

        <path id="Indicator"
              d="M 31.50065 10.97234 C 31.03121 10.706809 30.355007 10.987021 29.9974 11.595319 L 28.839402 13.565745 C 28.481795 14.174043 28.57217 14.888298 29.040962 15.15383 C 29.510403 15.419362 30.185956 15.139149 30.543563 14.530851 L 31.70286 12.560426 C 32.059818 11.952766 31.96879 11.237872 31.50065 10.97234 Z"
              fill="#68bc36"/>
    </g>
    </g>
</svg>