<?xml version="1.0" encoding="utf-8"?>
<svg width="48" height="48" viewBox="0 0 48 48" fill="none" xmlns="http://www.w3.org/2000/svg">
    <g id="Route" fill="none" fill-opacity="1" stroke-dasharray="none" stroke="none" stroke-opacity="1">
        <circle id="ButtonOutline" cx="23.938982" cy="24.063982" r="16.0023290939332" stroke="black"
                stroke-linecap="butt" stroke-linejoin="round" stroke-width="2.000289"/>
        <circle id="Button" cx="24.008987" cy="23.994986" r="15.0021772325879" fill="#90c418"/>
        <line id="Indicator" x1="23.939" y1="16.344534" x2="23.939" y2="34.20729" stroke="white" stroke-linecap="square"
              stroke-linejoin="round" stroke-width="2"/>
        <line id="Indicator" x1="17.078852" y1="18.396199" x2="23.088393" y2="24" stroke="white" stroke-linecap="square"
              stroke-linejoin="round" stroke-width="2"/>
        <line id="Indicator" x1="30.651143" y1="18.896356" x2="24.789607" y2="24.14035" stroke="white"
              stroke-linecap="square" stroke-linejoin="round" stroke-width="2"/>
        <path id="Indicator" d="M 33.60527 15.597122 L 31.80086 21.010354 L 28.192037 17.401533 Z" fill="white"/>
        <path id="Indicator" d="M 14.272731 15.597122 L 19.685963 17.401533 L 16.077142 21.010354 Z" fill="white"/>
        <path id="Indicator" d="M 23.939 12.091497 L 26.490822 17.19514 L 21.387178 17.19514 Z" fill="white"/>
        <path id="Indicator"
              d="M 21.387178 33.35668 C 21.387178 31.947348 22.529667 30.80486 23.939 30.80486 C 25.34832 30.80486 26.490822 31.947348 26.490822 33.35668 C 26.490822 34.766 25.34832 35.908503 23.939 35.908503 C 22.529667 35.908503 21.387178 34.766 21.387178 33.35668 Z"
              fill="white"/>
    </g>
</svg>
