<?xml version="1.0" encoding="utf-8"?>
<svg width="48" height="48" viewBox="0 0 48 48" fill="none" xmlns="http://www.w3.org/2000/svg">
    <g id="Light" fill="none" fill-opacity="1" stroke-dasharray="none" stroke="none" stroke-opacity="1">
        <path id="Button"
              d="M 30.0375 29.856657 C 28.8855 31.548657 27.5825 33.460657 27.5025 36.088657 C 27.1065 36.529657 25.6935 37.246657 24.0035 37.246657 C 22.3125 37.246657 20.8985 36.529657 20.5035 36.086657 C 20.4235 33.457657 19.1185 31.545657 17.9645 29.854657 C 16.6775 27.968657 15.4625 26.187657 15.4625 23.000657 C 15.4625 18.561657 19.2925 14.949657 23.9995 14.949657 C 28.7075 14.949657 32.5375 18.561657 32.5375 23.000657 C 32.5375 26.188657 31.3225 27.970657 30.0375 29.856657 Z"
              fill="#68bc36"/>

        <path id="ButtonOutline"
              d="M 24 11.949 C 17.615 11.949 12.437 16.908 12.437 23.026 C 12.437 30.291 17.482 32.143 17.482 36.37 C 17.482 37.415 18.281 38.387 19.481 39.101 C 19.23 39.31 19.09 39.539 19.09 39.779 C 19.09 40.101 19.343 40.402 19.778 40.66 C 19.37 40.913 19.133 41.204 19.133 41.515 C 19.133 41.829 19.375 42.123 19.792 42.378 C 19.366 42.634 19.118 42.933 19.118 43.25 C 19.118 43.638 19.484 43.993 20.096 44.282 C 19.859 44.497 19.723 44.735 19.723 44.985 C 19.723 45.725 20.876 46.354 22.497 46.606 C 22.782 47.134 23.36 47.5 24.034 47.5 C 24.707 47.5 25.284 47.137 25.569 46.611 C 27.206 46.363 28.372 45.73 28.372 44.988 C 28.372 44.741 28.241 44.506 28.009 44.294 C 28.634 44.003 29.007 43.643 29.007 43.252 C 29.007 42.938 28.766 42.643 28.348 42.389 C 28.773 42.132 29.022 41.835 29.022 41.518 C 29.022 41.196 28.768 40.895 28.334 40.636 C 28.744 40.384 28.98 40.092 28.98 39.781 C 28.98 39.532 28.829 39.297 28.559 39.083 C 29.74 38.37 30.525 37.408 30.525 36.372 C 30.525 32.143 35.564 30.292 35.564 23.028 C 35.563 16.908 30.386 11.949 24 11.949 Z M 30.038 29.881 C 28.886 31.573 27.583 33.485 27.503 36.113 C 27.107 36.554 25.694 37.271 24.004 37.271 C 22.313 37.271 20.899 36.554 20.504 36.111 C 20.424 33.482 19.119 31.57 17.965 29.879 C 16.678 27.993 15.463 26.212 15.463 23.025 C 15.463 18.586 19.293 14.974 24 14.974 C 28.708 14.974 32.538 18.586 32.538 23.025 C 32.538 26.213 31.323 27.995 30.038 29.881 Z"
              fill="black"/>

        <path id="Indicator"
              d="M 24 8.064 C 24.832 8.064 25.513 7.164 25.513 6.064 L 25.513 2.5 C 25.513 1.4 24.832 .5 24 .5 C 23.168 .5 22.487 1.4 22.487 2.5 L 22.487 6.064 C 22.487 7.165 23.168 8.064 24 8.064 Z"
              fill="#68bc36"/>

        <path id="Indicator"
              d="M 16.247 10.142 C 16.968 9.726 17.106 8.606 16.557 7.654 L 14.776 4.567 C 14.226 3.614 13.186 3.175 12.465 3.591 C 11.744 4.007 11.605 5.127 12.154 6.079 L 13.937 9.166 C 14.487 10.119 15.526 10.558 16.247 10.142 Z"
              fill="#68bc36"/>

        <path id="Indicator"
              d="M 9.595 13.507 L 6.51 11.725 C 5.557 11.175 4.437 11.314 4.021 12.035 C 3.605 12.756 4.043 13.795 4.997 14.345 L 8.083 16.127 C 9.036 16.677 10.156 16.538 10.571 15.817 C 10.986 15.096 10.548 14.057 9.595 13.507 Z"
              fill="#68bc36"/>

        <path id="Indicator"
              d="M 43.004 32.795 L 39.918 31.014 C 38.965 30.463 37.845 30.602 37.43 31.324 C 37.014 32.045 37.451 33.084 38.407 33.634 L 41.491 35.416 C 42.444 35.966 43.564 35.827 43.98 35.106 C 44.396 34.384 43.958 33.345 43.004 32.795 Z"
              fill="#68bc36"/>

        <path id="Indicator"
              d="M 8.494 23.57 C 8.494 22.737 7.594 22.057 6.494 22.057 L 2.93 22.057 C 1.83 22.057 .93 22.738 .93 23.57 C .93 24.402 1.83 25.083 2.93 25.083 L 6.494 25.083 C 7.594 25.083 8.494 24.402 8.494 23.57 Z"
              fill="#68bc36"/>

        <path id="Indicator"
              d="M 45.07 22.057 L 41.507 22.057 C 40.406 22.057 39.507 22.738 39.507 23.57 C 39.507 24.402 40.406 25.083 41.507 25.083 L 45.07 25.083 C 46.171 25.083 47.07 24.402 47.07 23.57 C 47.07 22.738 46.17 22.057 45.07 22.057 Z"
              fill="#68bc36"/>

        <path id="Indicator"
              d="M 8.082 31.014 L 4.996 32.795 C 4.043 33.345 3.604 34.384 4.02 35.106 C 4.436 35.827 5.556 35.965 6.509 35.416 L 9.594 33.634 C 10.547 33.084 10.986 32.045 10.57 31.324 C 10.155 30.604 9.035 30.463 8.082 31.014 Z"
              fill="#68bc36"/>

        <path id="Indicator"
              d="M 39.918 16.127 L 43.004 14.345 C 43.957 13.795 44.396 12.756 43.98 12.035 C 43.564 11.314 42.444 11.175 41.491 11.725 L 38.406 13.507 C 37.454 14.057 37.014 15.096 37.43 15.817 C 37.845 16.538 38.965 16.677 39.918 16.127 Z"
              fill="#68bc36"/>

        <path id="Indicator"
              d="M 35.536 3.59 C 34.814 3.174 33.774 3.613 33.224 4.566 L 31.443 7.653 C 30.893 8.606 31.032 9.725 31.753 10.141 C 32.475 10.557 33.514 10.118 34.064 9.165 L 35.847 6.078 C 36.396 5.126 36.256 4.006 35.536 3.59 Z"
              fill="#68bc36"/>
    </g>
</svg>
