<?xml version="1.0" encoding="utf-8"?>
<svg width="48" height="48" viewBox="0 0 48 48" fill="none" xmlns="http://www.w3.org/2000/svg">
    <g id="Light" fill="none" fill-opacity="1" stroke-dasharray="none" stroke="none" stroke-opacity="1">
        <path id="Button"
              d="M 30.0375 29.856657 C 28.8855 31.548657 27.5825 33.460657 27.5025 36.088657 C 27.1065 36.529657 25.6935 37.246657 24.0035 37.246657 C 22.3125 37.246657 20.8985 36.529657 20.5035 36.086657 C 20.4235 33.457657 19.1185 31.545657 17.9645 29.854657 C 16.6775 27.968657 15.4625 26.187657 15.4625 23.000657 C 15.4625 18.561657 19.2925 14.949657 23.9995 14.949657 C 28.7075 14.949657 32.5375 18.561657 32.5375 23.000657 C 32.5375 26.188657 31.3225 27.970657 30.0375 29.856657 Z"
              fill="#68bc36"/>

        <path id="ButtonOutline"
              d="M 24 11.949 C 17.615 11.949 12.437 16.908 12.437 23.026 C 12.437 30.291 17.482 32.143 17.482 36.37 C 17.482 37.415 18.281 38.387 19.481 39.101 C 19.23 39.31 19.09 39.539 19.09 39.779 C 19.09 40.101 19.343 40.402 19.778 40.66 C 19.37 40.913 19.133 41.204 19.133 41.515 C 19.133 41.829 19.375 42.123 19.792 42.378 C 19.366 42.634 19.118 42.933 19.118 43.25 C 19.118 43.638 19.484 43.993 20.096 44.282 C 19.859 44.497 19.723 44.735 19.723 44.985 C 19.723 45.725 20.876 46.354 22.497 46.606 C 22.782 47.134 23.36 47.5 24.034 47.5 C 24.707 47.5 25.284 47.137 25.569 46.611 C 27.206 46.363 28.372 45.73 28.372 44.988 C 28.372 44.741 28.241 44.506 28.009 44.294 C 28.634 44.003 29.007 43.643 29.007 43.252 C 29.007 42.938 28.766 42.643 28.348 42.389 C 28.773 42.132 29.022 41.835 29.022 41.518 C 29.022 41.196 28.768 40.895 28.334 40.636 C 28.744 40.384 28.98 40.092 28.98 39.781 C 28.98 39.532 28.829 39.297 28.559 39.083 C 29.74 38.37 30.525 37.408 30.525 36.372 C 30.525 32.143 35.564 30.292 35.564 23.028 C 35.563 16.908 30.386 11.949 24 11.949 Z M 30.038 29.881 C 28.886 31.573 27.583 33.485 27.503 36.113 C 27.107 36.554 25.694 37.271 24.004 37.271 C 22.313 37.271 20.899 36.554 20.504 36.111 C 20.424 33.482 19.119 31.57 17.965 29.879 C 16.678 27.993 15.463 26.212 15.463 23.025 C 15.463 18.586 19.293 14.974 24 14.974 C 28.708 14.974 32.538 18.586 32.538 23.025 C 32.538 26.213 31.323 27.995 30.038 29.881 Z"
              fill="black"/>

    </g>
</svg>
