<svg xmlns="http://www.w3.org/2000/svg" width="90" height="90">
    <g fill="none">
        <path d="M71.25 20.475v48.3c0 .953-.783 1.725-1.75 1.725h-49c-.966 0-1.75-.772-1.75-1.725v-48.3c0-.953.784-1.725 1.75-1.725h49c.967 0 1.75.772 1.75 1.725z"
              stroke="#000" stroke-linecap="round" stroke-linejoin="round" stroke-width="5"/>
        <path d="M18.75 56.125 39.167 47.5 71.25 61.875M56.667 38.875c-3.222 0-5.834-2.574-5.834-5.75s2.612-5.75 5.834-5.75c3.221 0 5.833 2.574 5.833 5.75s-2.612 5.75-5.833 5.75z"
              stroke="#000" stroke-linecap="round" stroke-linejoin="round" stroke-width="5"/>
    </g>
</svg>