<?xml version="1.0" encoding="utf-8"?>
<svg width="48" height="48" viewBox="0 0 48 48" fill="none" xmlns="http://www.w3.org/2000/svg">
    <defs>
        <clipPath id="clip_path_1">
            <rect width="48" height="48"/>
        </clipPath>
    </defs>
    <g clip-path="url(#clip_path_1)">
        <rect width="48" height="48"/>
        <g id="Group" transform="translate(0 0)">
            <rect id="Rectangle" width="48" height="48"/>
            <rect id="Rectangle" width="31" height="31" fill="none" stroke-width="1" stroke="#979797"
                  transform="translate(8.5 8.5)"/>
            <line id="Line" x1="0" y1="0" x2="21.87" y2="0" fill="none" stroke-width="4" stroke="#000000"
                  stroke-linecap="square" transform="translate(13.13 23)"/>
            <path d="M0.616477 6.78125L0.616477 1.69034L1.23295 1.69034L1.23295 6.23438L3.59943 6.23438L3.59943 6.78125L0.616477 6.78125ZM5.17045 1.69034L5.17045 6.78125L4.55398 6.78125L4.55398 1.69034L5.17045 1.69034ZM10.4403 1.69034L10.4403 6.78125L9.84375 6.78125L7.0696 2.78409L7.01989 2.78409L7.01989 6.78125L6.40341 6.78125L6.40341 1.69034L7 1.69034L9.78409 5.69744L9.83381 5.69744L9.83381 1.69034L10.4403 1.69034ZM11.6733 6.78125L11.6733 1.69034L14.7457 1.69034L14.7457 2.23722L12.2898 2.23722L12.2898 3.95739L14.5866 3.95739L14.5866 4.50426L12.2898 4.50426L12.2898 6.23438L14.7855 6.23438L14.7855 6.78125L11.6733 6.78125Z"
                  fill="#A9A9A9" transform="translate(16 14)"/>
        </g>
    </g>
</svg>