<?xml version="1.0" encoding="utf-8"?>
<svg width="48" height="48" viewBox="0 0 48 48" fill="none" xmlns="http://www.w3.org/2000/svg">
    <defs>
        <clipPath id="clip_path_1">
            <rect width="48" height="48" />
        </clipPath>
    </defs>
    <g clip-path="url(#clip_path_1)">
    <g transform="matrix(1 0 0 -1 0 48)">

    <g transform="translate(-19 -22)">
            <g>
                <g>
                    <g transform="matrix(0 1 -1 0 100 0)">
                        <g>
                            <path id="Border" d="M3.8147e-06 43.0001C3.8147e-06 43.0001 0 40.0001 0 40.0001L40 0L41.0525 0L43 0C43 0 3.8147e-06 43.0001 3.8147e-06 43.0001Z" fill="#000000" fill-rule="evenodd" transform="translate(0 55)" />
                            <path id="BorderDiverging" d="M3.8147e-06 43.0001C3.8147e-06 43.0001 0 40.0001 0 40.0001L40 0L41.0525 0L43 0C43 0 3.8147e-06 43.0001 3.8147e-06 43.0001Z" fill="#000000" fill-rule="evenodd" transform="translate(55 13)" />
                            <path id="Border" d="M43 0C43 0 0 43 0 43L3 43L43 3C43 3 43 0 43 0Z" fill="#000000" fill-rule="evenodd" transform="translate(9 56)" />
                            <path id="Border" d="M43 0C43 0 0 43 0 43L3 43L43 3C43 3 43 0 43 0Z" fill="#000000" fill-rule="evenodd" transform="matrix(-1 0 0 -1 98 43)" />
                            <path id="Track" d="M5 48C5 48 2.5 45.5 2.5 45.5L0 43L43 0C43 0 45.5 2.5 45.5 2.5C45.5 2.5 48 5.00001 48 5.00001C48 5.00001 5 48 5 48Z" fill="#BDBDBD" fill-rule="evenodd" transform="translate(3 52)" />
                            <path id="TrackDiverging" d="M5.50011 20C5.50011 20 8.39233e-05 20 8.39233e-05 20L0 14.9458L15.0001 0C15.0001 0 15.0001 10 15.0001 10C15.0001 10 5.50011 20 5.50011 20Z" fill="#BDBDBD" fill-rule="evenodd" transform="matrix(-1 0 0 -1 70 53)" />
                            <line id="Dashline" x1="0" y1="0" x2="19.535" y2="19.417" fill="none" stroke-width="4" stroke="#686868" stroke-linecap="square" stroke-dasharray="2 6" transform="matrix(0 -1 1 0 26 77)" />
                        </g>
                    </g>
                    <g transform="translate(41 40)">
                        <path id="Border" d="M0 0C0 0 16 0 16 0L16 2L0 2C0 2 0 0 0 0Z" fill="#000000" fill-rule="evenodd" transform="translate(3 0)" />
                        <path id="Border" d="M0 0C0 0 19 0 19 0L19 2L0 2C0 2 0 0 0 0Z" fill="#000000" fill-rule="evenodd" transform="translate(0 10)" />
                        <path id="Track" d="M0 0C0 0 16 0 16 0L16 8L0 8C0 8 0 0 0 0Z" fill="#BDBDBD" fill-rule="evenodd" transform="translate(3 2)" />
                        <line id="Dashline" x1="0" y1="1" x2="10" y2="1" fill="none" stroke-width="4" stroke="#686868" stroke-linecap="square" stroke-dasharray="2 6" transform="translate(6 5)" />
                        <line id="Dashline" x1="0" y1="0" x2="7.348" y2="7.384" fill="none" stroke-width="4" stroke="#686868" stroke-linecap="square" stroke-dasharray="2 6" transform="translate(14.925 18.839)" />
                    </g>
                </g>
            </g>
        </g>
    </g>g>
    </g>
</svg>