<?xml version="1.0" encoding="utf-8"?>
<svg width="48" height="48" viewBox="0 0 48 48" fill="none" xmlns="http://www.w3.org/2000/svg">
    <g>
        <g transform="translate(7.653 7.792)">
            <g>
                <path id="Border" d="M0 16C0 7.16344 7.16344 0 16 0C24.8366 -2.98023e-08 32 7.16344 32 16C32 24.8366 24.8366 32 16 32C7.16344 32 0 24.8366 0 16Z" fill="none" stroke-width="4" stroke="#000000" transform="matrix(1 0.017 -0.017 1 0.558 0)" />
                <path id="Button" d="M0 15C-1.19209e-07 6.71573 6.71573 0 15 -1.19209e-07C23.2843 0 30 6.71573 30 15C30 23.2843 23.2843 30 15 30C6.71573 30 0 23.2843 0 15Z" fill="#90C418" fill-rule="evenodd" transform="matrix(1 0.017 -0.017 1 1.611 0.948)" />
            </g>
        </g>
    </g>
</svg>