<?xml version="1.0" encoding="utf-8"?>
<svg width="48" height="48" viewBox="0 0 48 48" fill="none" xmlns="http://www.w3.org/2000/svg">
<g>
    <g transform="matrix(0 1 -1 0 28 0)">
        <g>
            <g>
                <path id="Border"  d="M5.72205e-06 2.08399C2.56647 -0.482479 6.50023 -0.709794 8.78629 1.57626C11.0724 3.86233 10.845 7.79607 8.27855 10.3625C8.27855 10.3625 5.72205e-06 2.08399 5.72205e-06 2.08399C5.72205e-06 2.08399 5.72205e-06 2.08399 5.72205e-06 2.08399Z" fill="#000000" fill-rule="evenodd" transform="translate(17.532 0)" />
                <path id="Track" d="M0 1.688C1.85702 -0.169021 4.48422 -0.552654 5.86799 0.831122C7.25178 2.21491 6.86814 4.8421 5.01112 6.69912C5.01112 6.69912 0 1.688 0 1.688C0 1.688 0 1.688 0 1.688Z" fill="#BDBDBD" fill-rule="evenodd" transform="translate(19 2.249)" />
                <path id="Track" d="M24 5C24 5 4.99998 24 4.99998 24L0 24L0 19L19.0024 0L24 5C24 5 24 5 24 5Z" fill="#BDBDBD" fill-rule="evenodd" transform="translate(0 3.937)" />
                <path id="Border" d="M0 21C0 21 0 17.6822 0 17.6822L17.6967 0L21 0.0171957C21 0.0171957 0 21 0 21Z" fill="#000000" fill-rule="evenodd" transform="translate(0 1.937)" />
                <path id="Border" d="M21 0C21 0 20.9926 0.00738144 20.9926 0.00738144L0 21L3.31348 21L21 3.24209C21 3.24209 21 0 21 0Z" fill="#000000" fill-rule="evenodd" transform="translate(5 6.937)" />
                <line id="Dashline" x1="0" y1="15" x2="15" y2="0" fill="none" stroke-width="4" stroke="#686868" stroke-linecap="square" stroke-dasharray="2 6" transform="translate(4 8.937)" />
            </g>
        </g>
    </g>
</g>
</svg>