<?xml version="1.0" encoding="utf-8"?>
<svg width="48" height="48" viewBox="0 0 48 48" fill="none" xmlns="http://www.w3.org/2000/svg">
    <g>
        <g transform="translate(17 17)">
            <g>
                <path id="Border"
                      d="M0 7C0 3.13401 3.13401 0 7 0C10.866 0 14 3.13401 14 7C14 10.866 10.866 14 7 14C3.13401 14 0 10.866 0 7Z"
                      fill="none" stroke-width="2" stroke="#000000"/>
                <path id="Button"
                      d="M0 6C0 2.68629 2.68629 0 6 0C9.31371 0 12 2.68629 12 6C12 9.31371 9.31371 12 6 12C2.68629 12 0 9.31371 0 6Z"
                      fill="#90C418" fill-rule="evenodd" transform="translate(1 1)"/>
            </g>
            <g transform="translate(2 2)">
                <line id="Border" x1="1" y1="0" x2="1" y2="7" fill="none" stroke-width="1" stroke="#000000"
                      stroke-linecap="square" transform="translate(4 2)"/>
                <path id="Border" d="M1 0L2 2L0 2L1 0Z" fill="#000000" fill-rule="evenodd" transform="translate(4 0)"/>
                <path id="Border" d="M1 0L2 2L2.38419e-07 2L1 0Z" fill="#000000" fill-rule="evenodd"
                      transform="matrix(0.707 -0.707 0.707 0.707 0 3)"/>
                <path id="Border" d="M1 0L2 2L0 2L1 0Z" fill="#000000" fill-rule="evenodd"
                      transform="matrix(0.707 0.707 -0.707 0.707 8.414 1.952)"/>
                <line id="Border" x1="0" y1="0" x2="2.355" y2="2.196" fill="none" stroke-width="1" stroke="#000000"
                      stroke-linecap="square" transform="translate(2.45 3.998)"/>
                <line id="Border" x1="2.297" y1="0" x2="0" y2="2.055" fill="none" stroke-width="1" stroke="#000000"
                      stroke-linecap="square" transform="translate(5.088 4.349)"/>
                <path id="Border"
                      d="M0 1C0 0.447715 0.447715 0 1 0C1.55228 0 2 0.447715 2 1C2 1.55228 1.55228 2 1 2C0.447715 2 0 1.55228 0 1Z"
                      fill="#000000" fill-rule="evenodd" transform="translate(4 8)"/>
            </g>
        </g>
    </g>
</svg>