<?xml version="1.0" encoding="UTF-8" standalone="no"?>
<!DOCTYPE svg PUBLIC "-//W3C//DTD SVG 1.1//EN" "http://www.w3.org/Graphics/SVG/1.1/DTD/svg11.dtd">
<svg xmlns:xl="http://www.w3.org/1999/xlink" xmlns="http://www.w3.org/2000/svg" xmlns:dc="http://purl.org/dc/elements/1.1/" version="1.1" viewBox="0 0 256 256" width="256" height="256">
  <defs/>
  <g id="Route_Active" stroke="none" stroke-opacity="1" stroke-dasharray="none" fill-opacity="1" fill="none">
    <title>Route Active</title>
    <g id="Route_Active_Layer2">
      <title>Layer2</title>
      <g id="Group_15">
        <g id="Graphic_14">
          <path d="M 129 133.66942 L 111.54671 151.74284 L 85.48301 126.57341 L 102.9363 108.5 Z" fill="#dadada"/>
        </g>
        <g id="Graphic_13">
          <rect x="103.875" y="133.5" width="25.125" height="99" fill="#dadada"/>
        </g>
        <g id="Graphic_12">
          <path d="M 119.36366 124.18789 L 101.91037 142.2613 L 55.912416 97.84159 L 73.36571 79.76818 Z" fill="#dadada"/>
        </g>
        <g id="Graphic_11">
          <path d="M 50.990726 104.52971 L 45.687426 70.94214 L 79.275 76.24544 Z" fill="#dadada"/>
        </g>
      </g>
      <g id="Graphic_7">
        <path d="M 129.9387 108.5 L 147.392 126.57341 L 121.32829 151.74284 L 103.875 133.66942 Z" fill="#dadada"/>
      </g>
      <g id="Graphic_5">
        <path d="M 159.5093 79.76818 L 176.96258 97.84159 L 130.96463 142.2613 L 113.51134 124.18789 Z" fill="#dadada"/>
      </g>
      <g id="Graphic_10">
        <path d="M 153.6 76.24544 L 187.18757 70.94214 L 181.88427 104.52971 Z" fill="#dadada"/>
      </g>
      <g id="Graphic_8">
        <rect x="103.875" y="61.5" width="25.125" height="109.63636" fill="#68bc36"/>
      </g>
      <g id="Graphic_4">
        <rect x="103.875" y="133.5" width="25.125" height="99" fill="#68bc36"/>
      </g>
      <g id="Graphic_6">
        <path d="M 96.4375 65.5 L 116.4375 38 L 136.4375 65.5 Z" fill="#68bc36"/>
      </g>
    </g>
  </g>
</svg>
