<?xml version="1.0" encoding="utf-8"?>
<svg width="24" height="24" viewBox="0 0 24 24" fill="none" xmlns="http://www.w3.org/2000/svg">
    <g>
        <g transform="translate(2 13)">
            <path d="M0 2C0 0.895431 0.895431 0 2 0C3.10457 0 4 0.895431 4 2C4 3.10457 3.10457 4 2 4C0.895431 4 0 3.10457 0 2Z" fill="#000000" fill-rule="evenodd" transform="translate(9 2)" />
            <path d="M0 2C0 0.895431 0.895431 0 2 0C3.10457 0 4 0.895431 4 2C4 3.10457 3.10457 4 2 4C0.895431 4 0 3.10457 0 2Z" fill="#000000" fill-rule="evenodd" transform="translate(14 2)" />
            <path d="M0 4L0 2C0 1.44772 0.195262 0.976311 0.585786 0.585786C0.976311 0.195262 1.44772 0 2 0L18 0C18.5523 0 19.0237 0.195262 19.4142 0.585786C19.8047 0.976311 20 1.44772 20 2L20 6C20 6.55228 19.8047 7.02369 19.4142 7.41421C19.0237 7.80474 18.5523 8 18 8L2 8C1.44772 8 0.976311 7.80474 0.585786 7.41421C0.195262 7.02369 0 6.55228 0 6L0 4Z" fill="none" stroke-width="2" stroke="#000000" stroke-linecap="round" stroke-linejoin="round" />
            <line x1="0" y1="1" x2="2" y2="1" fill="none" stroke-width="2" stroke="#000000" stroke-linecap="round" stroke-linejoin="round" transform="translate(4 3)" />
        </g>
        <path d="M4.5 7.2L2.15 4.85L2.85 4.15L4.5 5.8C4.5 5.8 8.7 1.6 8.7 1.6C7.75 0.65 6.45 0 5 0C2.25 0 0 2.25 0 5C0 7.75 2.25 10 5 10C7.75 10 10 7.75 10 5C10 4.05 9.75 3.2 9.3 2.45C9.3 2.45 4.5 7.2 4.5 7.2L4.5 7.2Z" fill="#000000" transform="translate(7 1)" />
    </g>
</svg>