<?xml version="1.0" encoding="utf-8"?>
<svg width="24" height="24" viewBox="0 0 24 24"
     fill="none" stroke="currentColor" xmlns="http://www.w3.org/2000/svg">
    <g>
        <g transform="translate(2 15)">
            <g transform="translate(0 2)">
                <path d="M0 1C0 0.447716 0.447716 0 1 0C1.55229 0 2 0.447716 2 1C2 1.55228 1.55229 2 1 2C0.447716 2 0 1.55228 0 1Z"
                      fill-rule="evenodd" transform="translate(9 2)"/>
                <path d="M0 1C0 0.447716 0.447716 0 1 0C1.55229 0 2 0.447716 2 1C2 1.55228 1.55229 2 1 2C0.447716 2 0 1.55228 0 1Z"
                      fill-rule="evenodd" transform="translate(14 2)"/>
                <path d="M0 3C0 3 0 1.5 0 1.5C0 1.08579 0.195262 0.732233 0.585786 0.439339C0.976311 0.146446 1.44772 0 2 0C2 0 18 0 18 0C18.5523 0 19.0237 0.146446 19.4142 0.439339C19.8047 0.732233 20 1.08579 20 1.5C20 1.5 20 4.5 20 4.5C20 4.91421 19.8047 5.26777 19.4142 5.56066C19.0237 5.85355 18.5523 6 18 6C18 6 2 6 2 6C1.44772 6 0.976311 5.85355 0.585786 5.56066C0.195262 5.26777 0 4.91421 0 4.5C0 4.5 0 3 0 3Z"
                      fill="none" stroke-width="2" stroke-linecap="round" stroke-linejoin="round"/>
                <line x1="0" y1="1" x2="2" y2="1" fill="none" stroke-width="2" stroke-linecap="round"
                      stroke-linejoin="round" transform="translate(4 2)"/>
            </g>
        </g>
        <path d="M8.01059 5.79133L3.52287 1.28358C4.80051 0.473249 6.34131 0 8 0C9.66431 0 11.2099 0.476461 12.4901 1.29182L8.01059 5.79133ZM5.89398 7.91739L1.34012 3.3432C0.493507 4.53299 0 5.96247 0 7.5C0 9.24582 0.636272 10.8523 1.70328 12.1268L2.13698 11.6912L5.89398 7.91739ZM4.04883 14.0229L8.01059 10.0435L11.965 14.0155C10.7962 14.642 9.44272 15 8 15C6.56296 15 5.21443 14.6448 4.04883 14.0229ZM10.1272 7.91739L14.6687 3.35562C15.5099 4.54293 16 5.96781 16 7.5C16 9.24054 15.3676 10.8426 14.3064 12.1152L10.1272 7.91739Z"
              fill="currentcolor" fill-rule="evenodd" transform="translate(4 0)"/>
    </g>
</svg>