<?xml version="1.0" encoding="utf-8"?>
<svg width="24" height="24" viewBox="0 0 24 24" fill="none" xmlns="http://www.w3.org/2000/svg">
    <g>
        <g transform="translate(2 15)">
            <g transform="translate(0 2)">
                <path d="M0 1C0 0.447716 0.447716 0 1 0C1.55229 0 2 0.447716 2 1C2 1.55228 1.55229 2 1 2C0.447716 2 0 1.55228 0 1Z" fill="#000000" fill-rule="evenodd" transform="translate(9 2)" />
                <path d="M0 1C0 0.447716 0.447716 0 1 0C1.55229 0 2 0.447716 2 1C2 1.55228 1.55229 2 1 2C0.447716 2 0 1.55228 0 1Z" fill="#000000" fill-rule="evenodd" transform="translate(14 2)" />
                <path d="M0 3C0 3 0 1.5 0 1.5C0 1.08579 0.195262 0.732233 0.585786 0.439339C0.976311 0.146446 1.44772 0 2 0C2 0 18 0 18 0C18.5523 0 19.0237 0.146446 19.4142 0.439339C19.8047 0.732233 20 1.08579 20 1.5C20 1.5 20 4.5 20 4.5C20 4.91421 19.8047 5.26777 19.4142 5.56066C19.0237 5.85355 18.5523 6 18 6C18 6 2 6 2 6C1.44772 6 0.976311 5.85355 0.585786 5.56066C0.195262 5.26777 0 4.91421 0 4.5C0 4.5 0 3 0 3Z" fill="none" stroke-width="2" stroke="#000000" stroke-linecap="round" stroke-linejoin="round" />
                <line x1="0" y1="1" x2="2" y2="1" fill="none" stroke-width="2" stroke="#000000" stroke-linecap="round" stroke-linejoin="round" transform="translate(4 2)" />
            </g>
        </g>
        <path d="M8.5 0L17 15L0 15L8.5 0ZM9.5625 3.46154L7.4375 3.46154L7.4375 10.3846L9.5625 10.3846L9.5625 3.46154ZM9.5625 11.5385L9.5625 13.8462L7.4375 13.8462L7.4375 11.5385L9.5625 11.5385Z" fill="#000000" fill-rule="evenodd" transform="translate(3 0)" />
    </g>
</svg>